NidahasFMAbhaya-Regular_with_latin.sfdir
StartChar: exclaim
Encoding: 1 33 240
Width: 189
GlyphClass: 2
Flags: W
HStem: -6 87<52.7203 129.532>
VStem: 47 89<0.280231 75.0032> 56 74<396.484 694.406> 70 46<131.756 559.602>
LayerCount: 2
Back
Fore
SplineSet
104 122 m 1x90
 104 122 80 122 80 122 c 1
 78 167 75 241 70 345 c 0x90
 61 504 56 602 56 639 c 0
 56 679 69 698 95 698 c 0
 118 698 130 680 130 644 c 0
 130 641 130 641 130 638 c 0xa0
 130 599 126 502 116 348 c 0
 115 302 110 227 104 122 c 1x90
91 81 m 0
 103 81 113 77 122 69 c 0
 131 61 136 51 136 39 c 0
 136 27 131 16 122 7 c 0
 113 -2 103 -6 91 -6 c 0
 79 -6 69 -2 60 7 c 0
 51 16 47 25 47 37 c 0xc0
 47 49 51 59 60 68 c 0
 69 77 79 81 91 81 c 0
EndSplineSet
Validated: 1
EndChar
StartChar: quotedbl
Encoding: 252 34 251
Width: 286
VWidth: 1048
Flags: W
HStem: 484 232<76.0952 104.855 199.095 227.855>
VStem: 40 80<539.383 700.865> 163 80<539.383 700.865>
LayerCount: 2
Back
Fore
SplineSet
216 716 m 0
 228 716 235 712 243 702 c 1
 243 672 234 557 228 504 c 1
 225 498 216 488 208 484 c 1
 205 484 201 486 199 490 c 1
 177 564 163 615 163 644 c 0
 163 673 183 716 216 716 c 0
93 716 m 0
 105 716 112 712 120 702 c 1
 120 672 111 557 105 504 c 1
 102 498 93 488 85 484 c 1
 82 484 78 486 76 490 c 1
 54 564 40 615 40 644 c 0
 40 673 60 716 93 716 c 0
EndSplineSet
Validated: 1
EndChar
StartChar: numbersign
Encoding: 253 35 252
Width: 491
VWidth: 1048
UnlinkRmOvrlpSave: 1
Flags: W
HStem: 182 50<54.5516 127 168 292 334 407.951> 378 50<83.0051 158 200 323 365 436.364>
LayerCount: 2
Back
Fore
SplineSet
334 232 m 1
 334 232 402 232 402 232 c 2
 407 232 410 226 410 218 c 0
 410 205 403 186 395 182 c 1
 395 182 326 182 326 182 c 1
 326 182 309 79 309 79 c 2
 308 75 300 66 285 66 c 0
 275 66 273 70 273 70 c 1
 273 70 292 182 292 182 c 1
 292 182 160 182 160 182 c 1
 160 182 143 79 143 79 c 2
 142 75 135 66 120 66 c 0
 110 66 109 70 109 70 c 1
 109 70 127 182 127 182 c 1
 127 182 58 182 58 182 c 2
 54 182 52 188 52 195 c 0
 52 208 60 229 69 232 c 1
 69 232 134 232 134 232 c 1
 134 232 158 378 158 378 c 1
 158 378 87 378 87 378 c 2
 83 378 81 383 81 391 c 0
 81 404 87 425 96 428 c 1
 96 428 166 428 166 428 c 1
 166 428 182 530 182 530 c 2
 185 539 186 544 205 544 c 0
 214 544 215 543 218 541 c 2
 218 541 200 428 200 428 c 1
 200 428 331 428 331 428 c 1
 331 428 347 530 347 530 c 2
 350 539 351 544 370 544 c 0
 379 544 380 543 383 541 c 2
 383 541 365 428 365 428 c 1
 365 428 430 428 430 428 c 2
 435 428 438 422 438 413 c 0
 438 400 432 382 424 378 c 1
 424 378 357 378 357 378 c 1
 357 378 334 232 334 232 c 1
299 232 m 1
 299 232 323 378 323 378 c 1
 323 378 191 378 191 378 c 1
 191 378 168 232 168 232 c 1
 168 232 299 232 299 232 c 1
EndSplineSet
EndChar
StartChar: dollar
Encoding: 254 36 253
Width: 509
VWidth: 1048
Flags: W
HStem: -10 35<225 317.409> 621 33<194.993 285.539>
VStem: 52 37<119.152 176.047> 71 79<446.927 563.07> 292 43<653 696.725> 373 86<87.2342 209.516> 391 33<483.023 535.173>
LayerCount: 2
Back
Fore
SplineSet
299 699 m 1xd8
 307 699 335 699 335 692 c 1
 335 692 328 648 328 648 c 1
 353 643 375 635 412 627 c 1
 424 575 423 514 424 487 c 1
 419 484 413 483 406 483 c 0
 402 483 394 485 391 488 c 1xda
 387 522 360 573 319 601 c 1
 319 601 281 364 281 364 c 1
 283 363 286 360 288 359 c 0
 353 318 459 267 459 170 c 0
 459 61 358 -10 253 -10 c 0
 242 -10 230 -10 219 -9 c 1
 219 -9 212 -53 212 -53 c 1
 203 -53 176 -51 176 -44 c 1
 176 -44 182 -4 182 -4 c 1
 142 2 107 12 76 18 c 1
 64 76 52 158 52 169 c 1
 56 173 71 177 78 177 c 0
 83 177 87 176 89 172 c 1xec
 94 148 113 68 189 37 c 1
 189 37 231 291 231 291 c 1
 157 334 71 386 71 481 c 0
 71 585 165 654 263 654 c 0
 273 654 284 654 292 653 c 1
 292 653 299 699 299 699 c 1xd8
265 271 m 1
 265 271 225 27 225 27 c 1
 234 26 245 25 255 25 c 0
 316 25 373 66 373 143 c 0xcc
 373 215 323 239 265 271 c 1
247 384 m 1
 247 384 286 616 286 616 c 1
 277 618 267 621 257 621 c 0
 171 621 150 559 150 512 c 0xd8
 150 450 196 416 247 384 c 1
EndSplineSet
Validated: 1
EndChar
StartChar: percentage
Encoding: 2 37 227
Width: 569
GlyphClass: 2
Flags: W
HStem: 0 38<259.28 349.625> 167 36<258.096 346.253> 486 38<184.01 273.258> 652 37<180.336 269.287>
VStem: 124 37<544.085 629.506> 201 37<55.6189 147.029> 293 39<547.213 633.044> 370 39<60.5428 147.793>
LayerCount: 2
Back
Fore
SplineSet
251 141 m 0
 242 130 238 117 238 102 c 0
 238 79 246 62 263 50 c 0
 275 42 288 38 302 38 c 0
 325 38 342 46 356 63 c 0
 365 74 370 87 370 101 c 0
 370 123 361 141 344 154 c 0
 332 163 319 167 304 167 c 0
 281 167 264 158 251 141 c 0
223 166 m 0
 243 191 270 203 303 203 c 0
 328 203 351 195 370 180 c 0
 396 160 409 133 409 100 c 0
 409 76 401 55 386 37 c 0
 366 12 339 0 304 0 c 0
 279 0 258 8 240 22 c 0
 214 42 201 69 201 102 c 0
 201 126 208 148 223 166 c 0
174 627 m 0
 165 616 161 603 161 589 c 0
 161 568 169 551 187 537 c 0
 198 529 211 524 225 524 c 0
 248 524 266 533 280 550 c 0
 289 561 293 574 293 588 c 0
 293 609 284 626 266 640 c 0
 255 648 242 652 228 652 c 0
 205 652 188 644 174 627 c 0
146 651 m 0
 166 676 194 689 229 689 c 0
 254 689 276 682 294 668 c 0
 319 648 332 621 332 588 c 0
 332 563 324 541 309 523 c 0
 289 498 261 486 228 486 c 0
 203 486 182 494 163 508 c 0
 137 528 124 555 124 588 c 0
 124 613 131 633 146 651 c 0
40 0 m 1
 40 0 445 693 445 693 c 1
 445 693 486 693 486 693 c 1
 486 693 82 0 82 0 c 1
 82 0 40 0 40 0 c 1
EndSplineSet
Validated: 1
EndChar
StartChar: ampersand
Encoding: 255 38 254
Width: 699
VWidth: 1048
Flags: W
HStem: -3 44<203.99 350.427 527 621.902> 296 23<475.135 518.884 611.344 671.236> 635 37<268.756 365.752>
VStem: 54 88<96.54 242.174> 165 75<457.991 605.185> 394 70<476.442 609.125>
LayerCount: 2
Back
Fore
SplineSet
416 97 m 1
 349 165 248 322 248 322 c 1
 193 284 142 250 142 176 c 0
 142 80 213 41 288 41 c 0
 329 41 383 62 416 97 c 1
321 635 m 0
 277 635 240 603 240 556 c 0
 240 506 260 453 293 394 c 1
 356 431 394 464 394 543 c 0
 394 589 367 635 321 635 c 0
315 672 m 0
 405 672 464 631 464 557 c 0
 464 465 389 409 311 361 c 1
 354 288 412 215 463 158 c 1
 501 215 521 268 521 278 c 0
 521 298 482 294 475 296 c 1
 472 302 472 315 476 319 c 1
 476 319 557 319 557 319 c 2
 593 319 623 323 670 325 c 1
 673 323 672 296 669 296 c 1
 652 296 609 286 598 279 c 0
 593 276 554 199 492 126 c 1
 538 78 567 46 592 46 c 0
 614 46 640 80 645 93 c 1
 656 93 669 82 669 75 c 1
 665 66 636 0 557 0 c 0
 497 0 439 74 439 74 c 1
 390 31 321 -3 253 -3 c 0
 133 -3 54 59 54 162 c 0
 54 260 138 314 224 358 c 1
 195 407 165 460 165 531 c 0
 165 609 229 672 315 672 c 0
EndSplineSet
Validated: 1
Substitution2: "Crimson-Roman-'c2sc' Capitals to Small Capitals in Latin lookup 0 subtable" ampersand.sc
Substitution2: "Crimson-Roman-'smcp' Lowercase to Small Capitals lookup 2-1" ampersand.sc
EndChar
StartChar: apostrophe
Encoding: 3 39 232
Width: 61
GlyphClass: 2
Flags: W
HStem: 357 178<18 163>
VStem: 18 145<357 535>
LayerCount: 2
Back
Fore
SplineSet
18 535 m 1
 18 535 163 535 163 535 c 1
 163 535 163 357 163 357 c 1
 163 357 18 357 18 357 c 1
 18 357 18 535 18 535 c 1
EndSplineSet
Validated: 1
EndChar
StartChar: parenleft
Encoding: 4 40 228
Width: 267
GlyphClass: 2
Flags: W
VStem: 37 60<107.23 416.3>
LayerCount: 2
Back
Fore
SplineSet
242 642 m 1
 242 642 242 633 242 633 c 1
 190 570 153 513 133 464 c 0
 109 406 97 341 97 269 c 0
 97 266 97 266 97 263 c 0
 97 192 108 127 131 66 c 0
 153 7 189 -54 240 -114 c 1
 240 -114 240 -125 240 -125 c 1
 105 -33 37 94 37 254 c 0
 37 259 37 259 37 264 c 0
 37 267 37 270 37 273 c 0
 37 348 52 415 84 475 c 0
 117 537 170 593 242 642 c 1
EndSplineSet
Validated: 1
EndChar
StartChar: parenright
Encoding: 5 41 209
Width: 267
GlyphClass: 2
Flags: W
VStem: 179 63<113.084 411.022>
LayerCount: 2
Back
Fore
SplineSet
242 254 m 0
 239 93 170 -34 38 -125 c 1
 38 -125 38 -114 38 -114 c 1
 89 -55 124 6 146 66 c 0
 168 126 179 191 179 263 c 0
 179 266 179 266 179 269 c 0
 179 271 179 273 179 275 c 0
 179 343 167 406 143 464 c 0
 122 515 87 572 37 633 c 1
 37 633 37 642 37 642 c 1
 174 544 242 422 242 276 c 0
 242 272 242 270 242 266 c 0
 242 262 242 258 242 254 c 0
EndSplineSet
Validated: 1
EndChar
StartChar: asterisk
Encoding: 6 42 212
Width: 392
GlyphClass: 2
Flags: W
HStem: 392 75<274.799 340.202> 394 64<48.5686 100.672> 517 73<65.4234 119.206 271.543 330.624>
VStem: 164 65<329.371 434.103 551.748 654.498>
LayerCount: 2
Back
Fore
SplineSet
198 656 m 0xb0
 219 656 229 644 229 618 c 0
 229 607 226 596 221 584 c 0
 215 571 211 561 210 556 c 0
 205 536 203 517 202 501 c 1
 210 506 224 516 242 532 c 1
 248 542 262 558 282 579 c 0
 290 586 300 589 312 589 c 0
 335 589 347 579 347 559 c 0
 347 546 342 536 331 528 c 0
 323 523 313 520 299 518 c 0
 285 516 272 514 260 512 c 0
 244 509 227 503 208 493 c 1
 221 485 238 478 260 474 c 0
 274 472 287 470 301 467 c 0
 315 464 326 459 334 452 c 0
 342 445 346 436 346 425 c 0
 346 403 335 392 314 392 c 0xb0
 302 392 293 396 284 404 c 0
 279 409 272 417 264 428 c 0
 256 439 250 447 244 452 c 0
 234 461 221 470 203 481 c 1
 203 478 203 477 203 474 c 0
 203 461 204 447 207 432 c 0
 208 424 212 413 219 399 c 0
 225 387 228 378 228 369 c 0
 228 342 218 329 198 328 c 0
 197 328 197 328 196 328 c 0
 176 328 165 341 162 367 c 0
 162 369 161 371 161 373 c 0
 161 382 164 391 168 400 c 0
 176 418 180 430 181 434 c 0
 184 444 187 460 190 480 c 1
 174 475 162 465 150 451 c 0
 141 439 124 422 101 400 c 0
 94 396 87 394 79 394 c 0
 58 394 47 404 47 424 c 0
 47 440 54 451 67 458 c 0x70
 76 463 85 466 97 467 c 0
 114 469 115 469 132 471 c 0
 142 472 159 480 186 492 c 1
 177 497 162 503 141 510 c 0
 133 513 120 515 101 517 c 0
 85 518 74 522 65 527 c 0
 53 535 46 545 46 559 c 0
 46 579 57 590 79 590 c 0
 93 590 103 586 111 578 c 0
 121 566 135 549 153 529 c 0
 158 524 170 515 190 501 c 1
 190 505 191 510 191 514 c 0
 191 529 189 543 185 557 c 0
 184 562 180 572 172 585 c 0
 167 595 164 605 164 616 c 0
 164 643 175 656 198 656 c 0xb0
EndSplineSet
Validated: 1
EndChar
StartChar: plus
Encoding: 7 43 237
Width: 481
GlyphClass: 2
Flags: W
HStem: 189 42<59 205 256 403>
VStem: 205 51<61 189 231 362>
LayerCount: 2
Back
Fore
SplineSet
59 231 m 1
 59 231 205 231 205 231 c 1
 205 231 205 362 205 362 c 1
 205 362 256 362 256 362 c 1
 256 362 256 231 256 231 c 1
 256 231 403 231 403 231 c 1
 403 231 403 189 403 189 c 1
 403 189 256 189 256 189 c 1
 256 189 256 61 256 61 c 1
 256 61 205 61 205 61 c 1
 205 61 205 189 205 189 c 1
 205 189 59 189 59 189 c 1
 59 189 59 231 59 231 c 1
EndSplineSet
Validated: 1
EndChar
StartChar: comma
Encoding: 8 44 207
Width: 206
GlyphClass: 2
Flags: W
HStem: 13 86<57.4709 97.8096>
VStem: 103 52<-54.3403 30>
LayerCount: 2
Back
Fore
SplineSet
45 36 m 0
 43 40 42 45 42 50 c 0
 42 62 47 74 57 84 c 0
 67 94 80 99 94 99 c 0
 114 99 130 91 141 74 c 0
 150 60 155 41 155 19 c 0
 155 9 154 -1 152 -11 c 0
 149 -25 141 -43 127 -63 c 0
 115 -80 103 -93 93 -103 c 1
 93 -103 58 -101 58 -101 c 1
 88 -71 103 -45 103 -22 c 0
 103 -14 102 -6 98 0 c 0
 94 6 86 11 74 13 c 0
 62 15 52 23 45 36 c 0
EndSplineSet
Validated: 1
EndChar
StartChar: dot
Encoding: 10 46 210
Width: 212
GlyphClass: 2
Flags: W
HStem: -9 110<59.5171 142.786>
VStem: 42 113<3.60465 85.4829>
LayerCount: 2
Back
Fore
SplineSet
98 101 m 0
 114 101 127 96 138 85 c 0
 149 74 155 61 155 47 c 0
 155 31 149 18 137 7 c 0
 125 -4 112 -9 97 -9 c 0
 81 -9 69 -3 58 8 c 0
 47 19 42 32 42 46 c 0
 42 62 48 75 59 86 c 0
 70 97 83 101 98 101 c 0
EndSplineSet
Validated: 1
EndChar
StartChar: slash
Encoding: 11 47 208
Width: 416
GlyphClass: 2
Flags: W
VStem: 50 315
LayerCount: 2
Back
Fore
SplineSet
337 622 m 1
 337 622 365 622 365 622 c 1
 365 622 76 -33 76 -33 c 1
 76 -33 50 -33 50 -33 c 1
 50 -33 337 622 337 622 c 1
EndSplineSet
Validated: 1
EndChar
StartChar: zero
Encoding: 12 48 215
Width: 464
GlyphClass: 2
Flags: W
HStem: -4 30<171.76 289.301> 553 26<175.969 274.953>
VStem: 28 70<136.877 435.228> 351 71<144.201 430.123>
LayerCount: 2
Back
Fore
SplineSet
380 477 m 0
 408 424 422 362 422 290 c 0
 422 232 413 179 396 133 c 0
 362 42 304 -4 222 -4 c 0
 165 -4 120 21 85 69 c 0
 47 122 28 194 28 288 c 0
 28 360 41 422 66 473 c 0
 101 543 154 578 227 579 c 0
 228 579 228 579 229 579 c 0
 294 579 344 545 380 477 c 0
351 281 m 0
 351 285 351 288 351 292 c 0
 351 351 347 401 337 443 c 0
 321 516 283 553 225 553 c 0
 168 553 131 514 113 437 c 0
 103 397 98 343 98 274 c 0
 98 217 104 169 115 127 c 0
 133 59 170 26 228 26 c 0
 279 26 313 47 328 90 c 0
 343 133 350 196 351 281 c 0
EndSplineSet
Validated: 1
EndChar
StartChar: one
Encoding: 13 49 216
Width: 380
GlyphClass: 2
Flags: W
HStem: 1 19<75 131.652 248.762 310>
VStem: 158 70<31.4922 479.67>
LayerCount: 2
Back
Fore
SplineSet
228 567 m 2
 228 567 228 71 228 71 c 2
 228 49 234 36 246 31 c 0
 257 24 278 20 310 19 c 1
 310 19 310 1 310 1 c 1
 310 1 75 1 75 1 c 1
 75 1 75 20 75 20 c 1
 106 22 126 26 135 31 c 0
 150 39 158 56 158 83 c 2
 158 83 158 450 158 450 c 2
 158 464 156 473 152 480 c 0
 148 487 140 491 130 492 c 0
 124 492 114 489 100 484 c 0
 84 477 74 474 70 473 c 1
 70 473 70 493 70 493 c 1
 70 493 221 570 221 570 c 1
 221 570 226 570 226 570 c 2
 227 569 227 568 228 567 c 2
EndSplineSet
Validated: 1
EndChar
StartChar: two
Encoding: 14 50 217
Width: 457
GlyphClass: 2
Flags: W
HStem: -1 49<103 363.906> 525 52<119.747 251.786>
VStem: 30 26<404.622 446.078> 304 67<331.526 472.172>
LayerCount: 2
Back
Fore
SplineSet
29 9 m 1
 126 108 196 186 239 243 c 0
 282 300 304 349 304 389 c 0
 304 433 291 468 264 493 c 0
 241 515 214 525 184 525 c 0
 148 525 116 509 87 477 c 0
 73 462 63 436 56 401 c 1
 56 401 30 406 30 406 c 1
 53 520 113 577 211 577 c 0
 257 577 295 563 325 535 c 0
 355 507 371 470 371 424 c 0
 371 378 355 334 324 291 c 0
 282 234 208 153 103 48 c 1
 103 48 299 48 299 48 c 2
 328 48 351 57 368 74 c 0
 376 82 386 97 401 121 c 1
 401 121 417 116 417 116 c 1
 417 116 369 -1 369 -1 c 1
 369 -1 29 -1 29 -1 c 1
 29 -1 29 9 29 9 c 1
EndSplineSet
Validated: 1
EndChar
StartChar: three
Encoding: 15 51 218
Width: 410
GlyphClass: 2
Flags: W
HStem: -9 42<111.444 239.743> 532 45<116.077 244.839>
VStem: 30 24<434.013 455.857> 123 11<283 284.63> 273 64<394.793 503.653> 304 65<99.9008 239.352>
LayerCount: 2
Back
Fore
SplineSet
121 48 m 0xf4
 137 38 159 33 188 33 c 0
 223 33 251 45 274 68 c 0
 292 86 302 112 304 147 c 0
 304 151 304 156 304 160 c 0xf4
 304 192 298 218 283 239 c 0
 258 274 226 291 188 291 c 0
 181 291 175 290 168 289 c 0
 146 286 134 284 134 283 c 0
 134 283 135 283 136 283 c 1
 135 283 131 282 123 280 c 1
 123 280 122 300 122 300 c 1
 175 318 210 334 229 350 c 0
 251 368 265 393 271 426 c 0
 272 434 273 441 273 447 c 0
 273 470 264 490 247 508 c 0
 232 524 210 532 181 532 c 0
 177 532 172 531 167 531 c 0
 144 530 119 516 90 490 c 0
 76 478 64 457 54 427 c 1
 54 427 30 437 30 437 c 1
 41 479 62 513 92 538 c 0
 122 563 159 576 202 577 c 0
 203 577 204 577 205 577 c 0
 241 577 272 566 297 546 c 0
 323 525 337 497 337 460 c 0xf8
 337 433 327 408 307 385 c 0
 295 371 277 356 252 339 c 1
 281 334 305 321 322 302 c 0
 353 266 369 228 369 188 c 0
 369 126 343 76 291 40 c 0
 245 7 189 -9 123 -9 c 0
 90 -9 66 -5 51 5 c 0
 36 15 29 26 29 39 c 0
 29 45 31 51 35 58 c 0
 42 65 50 69 62 69 c 0
 79 69 99 62 121 48 c 0xf4
EndSplineSet
Validated: 1
EndChar
StartChar: four
Encoding: 16 52 219
Width: 472
GlyphClass: 2
Flags: W
HStem: 142 53<65 266 341 429>
VStem: 266 75<-1 142 195 475>
LayerCount: 2
Back
Fore
SplineSet
300 574 m 1
 300 574 341 574 341 574 c 1
 341 574 341 195 341 195 c 1
 341 195 429 195 429 195 c 1
 429 195 429 142 429 142 c 1
 429 142 341 142 341 142 c 1
 341 142 341 -1 341 -1 c 1
 341 -1 268 -1 268 -1 c 1
 268 -1 268 142 268 142 c 1
 268 142 26 142 26 142 c 1
 26 142 26 197 26 197 c 1
 26 197 300 574 300 574 c 1
266 475 m 1
 266 475 65 195 65 195 c 1
 65 195 266 195 266 195 c 1
 266 195 266 475 266 475 c 1
EndSplineSet
Validated: 1
EndChar
StartChar: five
Encoding: 17 53 220
Width: 416
GlyphClass: 2
Flags: W
HStem: -8 45<107.886 247.064> 0 74<41.4673 123.129> 362 59<117 206.22> 503 65<156 347.994>
VStem: 316 59<111.682 264.951>
LayerCount: 2
Back
Fore
SplineSet
123 52 m 0x78
 141 42 161 37 183 37 c 0
 186 37 187 37 190 37 c 0
 228 40 258 52 278 72 c 0
 304 99 316 130 316 164 c 0
 316 251 280 310 208 339 c 0
 170 355 134 362 101 362 c 0
 90 362 81 361 73 359 c 1
 62 361 56 363 57 364 c 0
 58 365 58 366 59 368 c 2
 59 368 152 568 152 568 c 1
 152 568 329 568 329 568 c 2
 338 568 345 570 352 574 c 0
 357 577 364 582 373 590 c 1
 373 590 382 584 382 584 c 1
 382 584 348 510 348 510 c 2
 348 505 340 503 322 503 c 2
 322 503 156 503 156 503 c 1
 156 503 117 421 117 421 c 1
 156 420 191 413 224 402 c 0
 262 390 291 373 313 353 c 0
 335 333 350 311 360 287 c 0
 370 263 375 237 375 208 c 0
 375 143 351 90 304 50 c 0
 260 12 204 -7 138 -8 c 0xb8
 113 -8 91 -5 71 0 c 0
 43 8 29 23 29 45 c 0
 29 57 33 65 41 68 c 0
 51 73 59 74 66 74 c 0
 68 74 71 75 73 74 c 0
 81 72 97 64 123 52 c 0x78
EndSplineSet
Validated: 1
EndChar
StartChar: six
Encoding: 18 54 221
Width: 441
GlyphClass: 2
Flags: W
HStem: -8 33<177.356 282.1> 315 46<145.05 280.719> 555 20<335.006 380>
VStem: 29 71<123.775 277.3> 329 70<91.4006 265.956>
LayerCount: 2
Back
Fore
SplineSet
314 254 m 0
 294 294 259 314 208 315 c 0
 207 315 206 315 205 315 c 0
 166 315 136 300 115 269 c 0
 105 255 100 236 100 211 c 0
 100 161 112 118 137 83 c 0
 164 44 195 25 228 25 c 0
 262 25 287 38 302 65 c 0
 320 96 329 127 329 157 c 0
 329 203 324 235 314 254 c 0
222 -8 m 0
 163 -8 115 19 78 74 c 0
 45 122 29 178 29 240 c 0
 29 338 67 420 145 487 c 0
 212 544 291 574 380 575 c 1
 380 575 382 555 382 555 c 1
 361 552 331 545 293 535 c 1
 261 521 237 508 222 496 c 0
 196 476 173 450 154 417 c 0
 135 384 121 350 113 316 c 1
 129 331 147 342 166 348 c 0
 193 357 219 361 244 361 c 0
 293 361 331 345 358 312 c 0
 385 279 399 237 399 187 c 0
 399 135 383 90 350 52 c 0
 316 12 273 -8 222 -8 c 0
EndSplineSet
Validated: 1
EndChar
StartChar: seven
Encoding: 19 55 222
Width: 432
GlyphClass: 2
Flags: W
HStem: 505 57<82.9399 325>
VStem: 158 52<-1 20.7186>
LayerCount: 2
Back
Fore
SplineSet
390 562 m 1
 390 562 390 548 390 548 c 1
 390 548 210 -1 210 -1 c 1
 210 -1 158 -1 158 -1 c 1
 158 -1 325 505 325 505 c 1
 325 505 141 505 141 505 c 2
 122 505 105 499 89 488 c 0
 79 481 65 462 45 429 c 1
 45 429 23 438 23 438 c 1
 39 475 50 502 57 520 c 0
 58 521 64 535 74 562 c 1
 74 562 390 562 390 562 c 1
EndSplineSet
Validated: 1
EndChar
StartChar: eight
Encoding: 20 56 223
Width: 408
GlyphClass: 2
Flags: W
HStem: -11 30<145.452 263.117> 544 31<132.58 257.502>
VStem: 29 61<63.8173 204.574 401.096 505.103> 289 62<388.142 519.442> 310 58<56.5647 173.963>
LayerCount: 2
Back
Fore
SplineSet
67 352 m 0xe8
 45 376 34 406 34 442 c 0
 34 484 52 518 88 543 c 0
 119 565 158 575 202 575 c 0
 242 575 275 565 303 545 c 0
 335 522 351 492 351 454 c 0xf0
 351 421 337 392 310 367 c 0
 289 348 261 328 227 310 c 1
 282 270 318 240 334 221 c 0
 357 193 368 163 368 131 c 0
 368 86 350 51 315 25 c 0
 284 1 245 -11 199 -11 c 0
 151 -11 110 1 78 26 c 0
 45 51 29 85 29 129 c 0
 29 163 40 193 63 220 c 0
 83 245 109 267 140 287 c 1
 107 313 83 334 67 352 c 0xe8
263 375 m 0
 280 398 289 423 289 449 c 0
 289 451 289 453 289 455 c 0
 288 482 279 504 265 522 c 0
 254 536 228 544 188 544 c 0
 161 544 140 536 123 522 c 0
 103 506 92 487 89 466 c 0
 89 464 89 461 89 459 c 0
 89 437 100 413 123 388 c 0
 148 361 174 340 199 324 c 1
 233 349 254 365 263 375 c 0
310 105 m 0xe8
 310 107 310 109 310 111 c 0
 310 138 301 162 280 183 c 0
 263 201 225 230 168 268 c 1
 134 245 111 221 100 195 c 0
 93 179 90 159 90 137 c 0
 90 102 101 73 124 50 c 0
 144 30 171 19 206 19 c 0
 236 19 261 28 280 46 c 0
 299 64 309 83 310 105 c 0xe8
EndSplineSet
Validated: 1
EndChar
StartChar: nine
Encoding: 21 57 224
Width: 441
GlyphClass: 2
Flags: W
HStem: -7 27<48 112.688> 207 42<148.828 278.771> 543 32<149.338 257.488>
VStem: 29 70<300.093 474.381> 325 74<291.955 444.237>
LayerCount: 2
Back
Fore
SplineSet
116 309 m 0
 136 269 170 249 220 249 c 0
 251 249 280 265 307 296 c 0
 317 308 324 328 325 357 c 0
 325 361 325 365 325 369 c 0
 325 409 315 447 296 483 c 0
 275 523 243 543 201 543 c 0
 166 543 140 528 123 497 c 0
 109 472 101 442 99 406 c 0
 99 401 99 395 99 390 c 0
 99 359 105 332 116 309 c 0
205 575 m 0
 264 575 312 549 350 494 c 0
 383 446 399 390 399 328 c 0
 399 230 361 147 282 80 c 0
 215 23 137 -6 48 -7 c 1
 48 -7 45 20 45 20 c 1
 67 23 97 29 136 39 c 1
 167 51 191 64 206 76 c 0
 233 98 254 123 272 151 c 0
 292 184 307 216 315 249 c 1
 302 238 285 229 262 220 c 0
 239 211 213 207 184 207 c 0
 134 207 96 224 68 257 c 0
 42 288 29 330 29 381 c 0
 29 432 46 478 79 517 c 0
 112 556 154 575 205 575 c 0
EndSplineSet
Validated: 1
EndChar
StartChar: colon
Encoding: 22 58 211
Width: 206
GlyphClass: 2
Flags: W
HStem: 82 98<65.468 124.624> 252 99<65.4219 124.624>
VStem: 45 101<95.4233 160.624 271.376 330.624>
LayerCount: 2
Back
Fore
SplineSet
54 331 m 0
 64 345 78 351 96 351 c 0
 107 351 117 348 125 342 c 0
 139 331 146 317 146 300 c 0
 146 289 143 279 137 271 c 0
 125 258 111 252 94 252 c 0
 83 252 74 255 65 261 c 0
 52 271 45 284 45 301 c 0
 45 313 48 323 54 331 c 0
54 161 m 0
 64 174 77 180 95 180 c 0
 107 180 117 177 125 171 c 0
 139 160 146 146 146 129 c 0
 146 115 142 104 132 95 c 0
 122 86 110 82 96 82 c 0
 84 82 75 85 65 92 c 0
 52 102 45 115 45 132 c 0
 45 143 48 153 54 161 c 0
EndSplineSet
Validated: 1
EndChar
StartChar: semicolon
Encoding: 23 59 235
Width: 206
GlyphClass: 2
Flags: W
HStem: 13 86<57.4709 97.8096> 167 111<62.5171 145.656>
VStem: 42 113<16.1875 73.3401 181.039 261.483> 103 52<-54.3403 30>
LayerCount: 2
Back
Fore
SplineSet
101 278 m 0xc0
 117 278 130 272 141 261 c 0
 152 250 158 237 158 223 c 0
 158 207 152 194 140 183 c 0
 128 172 115 167 100 167 c 0
 84 167 72 173 61 184 c 0
 50 195 45 208 45 222 c 0
 45 238 51 251 62 262 c 0
 73 273 86 278 101 278 c 0xc0
45 36 m 0
 43 40 42 45 42 50 c 0
 42 62 47 74 57 84 c 0
 67 94 80 99 94 99 c 0
 114 99 130 91 141 74 c 0
 150 60 155 41 155 19 c 0xe0
 155 9 154 -1 152 -11 c 0
 149 -25 141 -43 127 -63 c 0
 115 -80 103 -93 93 -103 c 1
 93 -103 58 -101 58 -101 c 1
 88 -71 103 -45 103 -22 c 0xd0
 103 -14 102 -6 98 0 c 0
 94 6 86 11 74 13 c 0
 62 15 52 23 45 36 c 0
EndSplineSet
Validated: 1
EndChar
StartChar: less
Encoding: 256 60 255
Width: 503
VWidth: 1048
Flags: W
HStem: 420 20G<431.5 433.5>
LayerCount: 2
Back
Fore
SplineSet
455 36 m 0
 455 29 444 -15 438 -15 c 0
 437 -15 435 -14 433 -13 c 2
 433 -13 49 181 49 181 c 2
 34 189 31 205 31 222 c 0
 31 233 39 242 49 247 c 2
 49 247 427 438 427 438 c 2
 429 439 431 440 432 440 c 0
 435 440 443 430 450 392 c 0
 451 386 446 383 446 383 c 1
 446 383 113 214 113 214 c 1
 113 214 452 42 452 42 c 1
 452 42 455 41 455 36 c 0
EndSplineSet
Validated: 1
Substitution2: "Crimson-Roman-'c2sc' Capitals to Small Capitals in Latin lookup 0 subtable" less.sc
Substitution2: "Crimson-Roman-'smcp' Lowercase to Small Capitals lookup 2-1" less.sc
EndChar
StartChar: equals
Encoding: 24 61 230
Width: 364
GlyphClass: 2
Flags: W
HStem: 157 38<51 310> 254 38<53 312>
VStem: 53 259
LayerCount: 2
Back
Fore
SplineSet
53 292 m 1
 53 292 312 292 312 292 c 1
 312 292 312 254 312 254 c 1
 312 254 53 254 53 254 c 1
 53 254 53 292 53 292 c 1
51 195 m 1
 51 195 310 195 310 195 c 1
 310 195 310 157 310 157 c 1
 310 157 51 157 51 157 c 1
 51 157 51 195 51 195 c 1
EndSplineSet
Validated: 1
EndChar
StartChar: greater
Encoding: 257 62 256
Width: 504
VWidth: 1048
Flags: W
HStem: 420 20G<70 72.5>
LayerCount: 2
Back
Fore
SplineSet
49 36 m 0
 49 40 52 42 52 42 c 1
 52 42 391 214 391 214 c 1
 391 214 58 383 58 383 c 1
 58 383 55 384 55 391 c 0
 55 409 68 440 72 440 c 0
 73 440 75 439 77 438 c 2
 77 438 456 247 456 247 c 2
 466 242 473 233 473 222 c 0
 473 205 471 189 456 181 c 2
 456 181 72 -13 72 -13 c 2
 70 -14 68 -15 67 -15 c 0
 61 -15 49 28 49 36 c 0
EndSplineSet
Validated: 1
Substitution2: "Crimson-Roman-'c2sc' Capitals to Small Capitals in Latin lookup 0 subtable" greater.sc
Substitution2: "Crimson-Roman-'smcp' Lowercase to Small Capitals lookup 2-1" greater.sc
EndChar
StartChar: question
Encoding: 25 63 225
Width: 394
GlyphClass: 2
Flags: W
HStem: -7 82<150.371 216.624> 361 59<80.4702 146.764> 578 31<109.328 234.521>
VStem: 30 35<433.472 535.441> 145 83<5.37574 61.6243> 163 29<137 232.859> 275 76<384.34 542.803>
LayerCount: 2
Back
Fore
SplineSet
187 75 m 0xfa
 199 75 209 70 217 62 c 0
 225 54 228 45 228 33 c 0
 228 22 225 13 217 5 c 0
 209 -3 199 -7 187 -7 c 0
 175 -7 166 -4 158 4 c 0
 150 12 145 21 145 33 c 0
 145 45 150 54 158 62 c 0
 166 70 175 75 187 75 c 0xfa
351 466 m 0
 351 406 326 357 275 319 c 0
 219 278 192 225 192 158 c 0
 192 151 192 144 193 137 c 1
 193 137 170 137 170 137 c 1
 165 160 163 179 163 194 c 0
 163 196 163 198 163 200 c 0xf6
 165 242 184 288 222 336 c 0
 255 380 273 421 274 461 c 0
 274 464 275 465 275 468 c 0
 275 498 267 525 252 547 c 0
 238 567 209 578 165 578 c 0
 125 578 95 561 77 528 c 0
 69 513 65 497 65 481 c 0
 65 458 70 443 80 433 c 0
 90 424 102 420 119 420 c 0
 120 420 122 420 123 420 c 0
 135 421 142 417 147 409 c 0
 152 401 154 393 152 384 c 0
 148 369 134 361 111 361 c 0
 97 361 85 365 75 371 c 0
 45 390 30 423 30 468 c 0
 30 473 31 477 31 482 c 0
 33 513 46 542 71 567 c 0
 98 595 137 609 190 609 c 0
 236 609 274 597 303 572 c 0
 335 545 351 510 351 466 c 0
EndSplineSet
Validated: 1
EndChar
StartChar: at
Encoding: 258 64 257
Width: 765
VWidth: 1048
Flags: HW
HStem: -127 18<268.744 292.136> -7 44<506.376 597.891> -5 59<289.879 349.297> 398 47<399.849 510> 551 41<321.533 530.797>
VStem: 50 41<60.8128 298.148> 199 75<68.6043 231.7> 433 68<43.2101 128> 688 41<160.389 386.318>
LayerCount: 2
Back
Fore
SplineSet
428 592 m 0xdf80
 629 592 729 436 729 276 c 0
 729 119 638 -7 518 -7 c 0xdf80
 468 -7 433 19 433 81 c 0
 433 93 437 120 440 128 c 1
 421 90 355 -5 296 -5 c 3xbf80
 233 -5 199 61 199 133 c 3
 199 283 352 445 492 445 c 0
 528 445 547 439 566 432 c 9
 566 432 504 109 504 109 c 2
 503 105 501 88 501 83 c 0
 501 50 522 37 550 37 c 0
 615 37 688 145 688 273 c 0
 688 411 606 551 428 551 c 0
 219 551 92.671290866 391.992477228 91 214 c 0
 89 0.999999999999 268.119140625 -108.346679688 459 -114 c 4
 459 -114 453 -144 453 -144 c 0
 256 -141 51 -34 50 214 c 0
 49.1895211437 414.998756352 190 592 428 592 c 0xdf80
449 398 m 3
 370 398 274 273 274 155 c 0
 274 92 291 54 327 54 c 3xbf80
 378 54 451 183 470 281 c 2
 470 281 490 385 490 385 c 17
 481 395 462 398 449 398 c 3
EndSplineSet
Validated: 524321
Substitution2: "Crimson-Roman-'c2sc' Capitals to Small Capitals in Latin lookup 0 subtable" at.sc
Substitution2: "Crimson-Roman-'smcp' Lowercase to Small Capitals lookup 2-1" at.sc
EndChar
StartChar: A
Encoding: 259 65 258
Width: 642
VWidth: 1048
Flags: W
HStem: -3 30<-13.615 44.7513 131.809 197.196 412.775 472.559 594.371 646.465> 259 40<204 387.999> 659 20G<329.5 335.5>
LayerCount: 2
Back
Fore
SplineSet
97 142 m 2
 97 142 233 489 295 649 c 1
 300 659 325 679 334 679 c 0
 337 679 337 677 340 676 c 1
 340 676 549 129 549 129 c 0
 563 91 572 65 574 61 c 0
 584 36 636 27 644 27 c 1
 649 20 647 0 646 -3 c 1
 605 -1 579 2 534 2 c 0
 487 2 462 -1 415 -3 c 1
 410 2 411 22 416 27 c 1
 428 27 464 32 473 40 c 0
 476 43 477 48 477 54 c 0
 477 85 408 254 408 254 c 1
 408 254 404 258 401 258 c 0
 373 259 326 259 300 259 c 0
 258 259 235 259 189 256 c 0
 187 256 184 253 184 253 c 1
 184 253 155 177 138 128 c 16
 126 92 124 68 124 55 c 0
 124 30 187 27 195 27 c 1
 198 24 199 3 197 -3 c 1
 156 -1 142 2 97 2 c 0
 50 2 35 -1 -12 -3 c 1
 -15 0 -15 20 -12 27 c 1
 0 27 39 33 49 46 c 0
 69 73 83 105 97 142 c 2
298 555 m 1
 298 555 204 305 204 305 c 1
 204 305 204 301 206 301 c 0
 233 300 275 299 299 299 c 0
 331 299 353 300 385 302 c 0
 387 302 388 307 388 307 c 1
 388 307 298 555 298 555 c 1
EndSplineSet
Validated: 1
Substitution2: "Crimson-Roman-'c2sc' Capitals to Small Capitals in Latin lookup 0 subtable" a.sc
EndChar
StartChar: B
Encoding: 260 66 259
Width: 610
VWidth: 1048
Flags: W
HStem: -3 33<44.2186 117.88 222.195 389.692> 340 39<211 369.5> 642 33<45.2859 118.468 216.21 347.553>
VStem: 122 89<48.3586 340 379 631.421> 425 93<446.068 579.028> 464 101<107.747 269.583>
LayerCount: 2
Back
Fore
SplineSet
211 340 m 1xf4
 211 340 211 118 211 118 c 2
 211 104 213 55 220 48 c 0
 235 32 263 30 301 30 c 0
 378 30 464 55 464 180 c 0
 464 257 431 340 273 340 c 2
 273 340 211 340 211 340 c 1xf4
211 379 m 1
 211 379 297 379 297 379 c 2
 389 379 425 441 425 499 c 0xf8
 425 590 362 642 267 642 c 0
 255 642 220 641 216 632 c 0
 211 620 211 586 211 555 c 2
 211 555 211 379 211 379 c 1
312 675 m 0
 405 675 518 639 518 522 c 0xf8
 518 443 451 387 415 374 c 0
 413 373 412 371 415 369 c 1
 465 367 565 305 565 204 c 0xf4
 565 146 547 94 497 52 c 0
 448 11 361 -2 282 -3 c 0
 248 -3 86 -3 46 -3 c 1
 41 2 42 22 46 27 c 1
 58 27 114 32 117 43 c 0
 122 59 122 88 122 119 c 2
 122 119 122 556 122 556 c 2
 122 587 122 616 117 632 c 0
 114 643 58 648 46 648 c 1
 42 653 41 673 46 678 c 1
 88 676 127 673 167 673 c 0
 207 673 252 675 312 675 c 0
EndSplineSet
Validated: 1
Substitution2: "Crimson-Roman-'c2sc' Capitals to Small Capitals in Latin lookup 0 subtable" b.sc
EndChar
StartChar: C
Encoding: 261 67 260
Width: 690
VWidth: 1048
Flags: W
HStem: -6 34<326.57 502.042> 649 34<321.357 497.387>
VStem: 49 102<217.641 450.581> 601 35<497.686 551.819> 614 33<143.623 190.938>
LayerCount: 2
Back
Fore
SplineSet
395 683 m 0xe8
 463 683 536 678 612 662 c 1
 612 662 636 520 636 510 c 1
 637 504 623 497 613 497 c 0
 607 497 604 498 601 500 c 1xf0
 595 532 571 649 400 649 c 0
 248 649 151 494 151 351 c 0
 151 191 239 28 417 28 c 0
 479 28 522 50 552 77 c 0
 592 113 607 162 614 196 c 1
 627 196 638 193 647 187 c 1
 647 167 625 52 611 40 c 1
 555 8 485 -6 391 -6 c 0
 188 -6 49 149 49 330 c 0
 49 521 193 683 395 683 c 0xe8
EndSplineSet
Validated: 1
Substitution2: "Crimson-Roman-'c2sc' Capitals to Small Capitals in Latin lookup 0 subtable" c.sc
EndChar
StartChar: D
Encoding: 262 68 261
Width: 727
VWidth: 1048
Flags: W
HStem: -3 33<44.2186 117.88 218.397 399.444> 641 33<46 118.827 215.721 385.279>
VStem: 122 90<44.3161 637.145> 573 102<206.168 459.558>
LayerCount: 2
Back
Fore
SplineSet
212 554 m 2
 212 554 212 118 212 118 c 0
 212 104 213 50 218 44 c 0
 226 33 264 30 302 30 c 0
 447 30 573 121 573 321 c 0
 573 552 435 641 288 641 c 0
 276 641 220 640 217 630 c 0
 212 614 212 584 212 554 c 2
315 674 m 0
 539 674 675 531 675 342 c 0
 675 168 591 -3 302 -3 c 0
 257 -3 86 -3 46 -3 c 1
 41 2 42 22 46 27 c 1
 58 27 114 32 117 43 c 0
 122 59 122 88 122 119 c 2
 122 119 122 556 122 556 c 2
 122 587 122 616 117 632 c 0
 114 643 58 648 46 648 c 1
 42 653 41 673 46 678 c 1
 88 676 127 673 167 673 c 0
 207 673 270 674 315 674 c 0
EndSplineSet
Validated: 1
Substitution2: "Crimson-Roman-'c2sc' Capitals to Small Capitals in Latin lookup 0 subtable" d.sc
EndChar
StartChar: E
Encoding: 263 69 262
Width: 601
VWidth: 1048
Flags: W
HStem: -3 30<43.4037 116.566> 0 35<217.612 445.95> 319 38<211 392.45> 639 34<214.532 444.227> 648 30<43.5487 116.566>
VStem: 122 89<45.2678 317.528 357.75 634.936> 422 33<236.009 296.16 379.11 437.963> 494 32<536.07 582.309>
LayerCount: 2
Back
Fore
SplineSet
167 673 m 0x37
 263 673 385 680 497 680 c 1
 504 629 517 587 526 541 c 1
 523 538 515 536 508 536 c 0
 501 536 495 538 494 543 c 0
 471 625 429 639 375 639 c 2
 375 639 287 639 287 639 c 0
 275 639 219 638 216 628 c 0
 211 612 211 583 211 555 c 2
 211 555 211 364 211 364 c 2
 211 359 232 357 255 357 c 2
 255 357 309 357 309 357 c 2
 407 357 405 363 422 431 c 0
 423 436 430 438 437 438 c 0
 444 438 452 436 455 433 c 1
 455 433 455 240 455 240 c 1
 453 238 445 236 438 236 c 0
 431 236 424 239 422 244 c 0
 407 302 402 305 393 311 c 0
 382 318 324 319 285 319 c 0
 256 319 211 319 211 310 c 2
 211 310 211 116 211 116 c 2
 211 101 211 50 217 45 c 0
 230 35 247 35 290 35 c 2
 290 35 339 35 339 35 c 2
 387 35 439 45 468 62 c 0
 501 81 516 122 532 166 c 0
 533 170 540 172 547 172 c 0
 557 172 569 169 572 166 c 1
 553 111 524 41 517 -4 c 1
 405 -4 304 0 168 0 c 0x77
 120 0 86 -3 46 -3 c 1
 41 2 42 22 46 27 c 1
 58 27 114 32 117 43 c 0
 122 59 122 88 122 119 c 2
 122 119 122 556 122 556 c 2
 122 587 122 616 117 632 c 0
 114 643 58 648 46 648 c 1
 42 653 41 673 46 678 c 1xaf
 88 676 127 673 167 673 c 0x37
EndSplineSet
Validated: 1
Substitution2: "Crimson-Roman-'c2sc' Capitals to Small Capitals in Latin lookup 0 subtable" e.sc
EndChar
StartChar: F
Encoding: 264 70 263
Width: 547
VWidth: 1048
Flags: W
HStem: -3 30<43.4037 116.566 216.462 299.596> 319 38<211 392.45> 639 34<214.532 444.227> 648 30<43.5487 116.566>
VStem: 122 89<34.7634 317.528 357.75 634.936> 422 33<236.009 296.16 379.11 437.963> 494 32<536.07 582.309>
LayerCount: 2
Back
Fore
SplineSet
167 673 m 0xee
 263 673 385 680 497 680 c 1
 504 629 517 587 526 541 c 1
 523 538 515 536 508 536 c 0
 501 536 495 538 494 543 c 0
 471 625 429 639 375 639 c 2
 375 639 287 639 287 639 c 0xee
 275 639 219 638 216 628 c 0
 211 612 211 583 211 555 c 2
 211 555 211 364 211 364 c 2
 211 359 232 357 255 357 c 2
 255 357 309 357 309 357 c 2
 407 357 405 363 422 431 c 0
 423 436 430 438 437 438 c 0
 444 438 452 436 455 433 c 1
 455 433 455 240 455 240 c 1
 453 238 445 236 438 236 c 0
 431 236 424 239 422 244 c 0
 407 302 402 305 393 311 c 0
 382 318 324 319 285 319 c 0
 256 319 211 319 211 310 c 2
 211 310 211 119 211 119 c 2
 211 88 211 59 216 43 c 0
 219 32 285 27 297 27 c 1
 301 22 302 2 297 -3 c 1
 255 -1 207 2 167 2 c 0
 119 2 86 -3 46 -3 c 1
 41 2 42 22 46 27 c 1
 58 27 114 32 117 43 c 0
 122 59 122 88 122 119 c 2
 122 119 122 556 122 556 c 2
 122 587 122 616 117 632 c 0
 114 643 58 648 46 648 c 1
 42 653 41 673 46 678 c 1xde
 88 676 127 673 167 673 c 0xee
EndSplineSet
Validated: 1
Substitution2: "Crimson-Roman-'c2sc' Capitals to Small Capitals in Latin lookup 0 subtable" f.sc
EndChar
StartChar: G
Encoding: 265 71 264
Width: 737
VWidth: 1048
Flags: W
HStem: -6 34<326.384 505.307> 271 30<470.404 542.569 641.422 710.596> 649 34<321.357 497.387>
VStem: 49 102<217.641 450.581> 548 88<66.4673 263.925> 601 35<497.686 551.819>
LayerCount: 2
Back
Fore
SplineSet
548 179 m 2xf8
 548 210 548 239 543 255 c 0
 540 266 485 271 473 271 c 1
 469 276 468 296 473 301 c 1
 515 299 553 296 593 296 c 0
 633 296 666 299 708 301 c 1
 713 296 712 276 708 271 c 1
 696 271 644 266 641 255 c 0
 636 239 636 210 636 179 c 2
 636 179 636 116 636 106 c 0xf8
 636 84 646 76 646 66 c 0
 646 60 643 56 626 47 c 0
 582 23 526 -6 391 -6 c 0
 188 -6 49 149 49 330 c 0
 49 521 193 683 395 683 c 0
 463 683 536 678 612 662 c 1
 612 662 636 520 636 510 c 1
 637 504 623 497 613 497 c 0
 607 497 604 498 601 500 c 1xf4
 595 532 571 649 400 649 c 0
 248 649 151 494 151 351 c 0
 151 191 238 28 417 28 c 0
 470 28 510 45 541 60 c 0
 547 63 548 69 548 76 c 0
 548 76 548 179 548 179 c 2xf8
EndSplineSet
Validated: 1
Substitution2: "Crimson-Roman-'c2sc' Capitals to Small Capitals in Latin lookup 0 subtable" g.sc
EndChar
StartChar: H
Encoding: 266 72 265
Width: 743
VWidth: 1048
Flags: W
HStem: -3 33<43.5037 116.999 216.001 289.496 454.504 526.999 627.001 699.496> 333 35<213 530> 645 33<43.5037 116.999 216.001 289.496 454.504 526.999 627.001 699.496>
VStem: 122 89<37.0745 325 371.001 637.925> 532 90<37.0745 328.999 371.001 637.925>
LayerCount: 2
Back
Fore
SplineSet
167 673 m 0
 207 673 245 676 287 678 c 1
 292 673 291 650 287 645 c 1
 275 645 219 640 216 629 c 0
 211 613 211 584 211 553 c 2
 211 553 211 374 211 374 c 1
 211 372 213 371 213 371 c 1
 263 370 317 368 374 368 c 0
 422 368 484 370 530 371 c 1
 530 371 532 373 532 375 c 0
 532 375 532 553 532 553 c 2
 532 584 532 613 527 629 c 0
 524 640 469 645 457 645 c 1
 453 650 452 673 457 678 c 1
 499 676 538 673 578 673 c 0
 618 673 655 676 697 678 c 1
 702 673 701 650 697 645 c 1
 685 645 630 640 627 629 c 0
 622 613 622 584 622 553 c 2
 622 553 622 122 622 122 c 2
 622 91 622 62 627 46 c 0
 630 35 685 30 697 30 c 1
 701 25 702 2 697 -3 c 1
 655 -1 618 2 578 2 c 0
 538 2 499 -1 457 -3 c 1
 452 2 453 25 457 30 c 1
 469 30 524 35 527 46 c 0
 532 62 532 91 532 122 c 2
 532 122 532 325 532 325 c 1
 532 327 530 329 530 329 c 1
 482 330 426 333 374 333 c 0
 232 333 216 329 212 327 c 1
 211 326 211 325 211 325 c 1
 211 325 211 122 211 122 c 2
 211 91 211 62 216 46 c 0
 219 35 275 30 287 30 c 1
 291 25 292 2 287 -3 c 1
 245 -1 207 2 167 2 c 0
 127 2 88 -1 46 -3 c 1
 41 2 42 25 46 30 c 1
 58 30 114 35 117 46 c 0
 122 62 122 91 122 122 c 2
 122 122 122 553 122 553 c 2
 122 584 122 613 117 629 c 0
 114 640 58 645 46 645 c 1
 42 650 41 673 46 678 c 1
 88 676 127 673 167 673 c 0
EndSplineSet
Validated: 33
Substitution2: "Crimson-Roman-'c2sc' Capitals to Small Capitals in Latin lookup 0 subtable" h.sc
EndChar
StartChar: I
Encoding: 267 73 266
Width: 331
VWidth: 1048
Flags: W
HStem: -3 30<43.4037 116.566 216.434 289.596> 648 30<43.4037 116.566 216.434 289.596>
VStem: 122 89<34.0745 640.925>
LayerCount: 2
Back
Fore
SplineSet
167 673 m 0
 207 673 245 676 287 678 c 1
 292 673 291 653 287 648 c 1
 275 648 219 643 216 632 c 0
 211 616 211 587 211 556 c 2
 211 556 211 119 211 119 c 2
 211 88 211 59 216 43 c 0
 219 32 275 27 287 27 c 1
 291 22 292 2 287 -3 c 1
 245 -1 207 2 167 2 c 0
 127 2 88 -1 46 -3 c 1
 41 2 42 22 46 27 c 1
 58 27 114 32 117 43 c 0
 122 59 122 88 122 119 c 2
 122 119 122 556 122 556 c 2
 122 587 122 616 117 632 c 0
 114 643 58 648 46 648 c 1
 42 653 41 673 46 678 c 1
 88 676 127 673 167 673 c 0
EndSplineSet
Validated: 1
Substitution2: "Crimson-Roman-'c2sc' Capitals to Small Capitals in Latin lookup 0 subtable" i.sc
EndChar
StartChar: J
Encoding: 268 74 267
Width: 320
VWidth: 1048
Flags: W
HStem: -232 48<-41.5 66.9096> 648 30<38.4037 111.566 211.434 284.596>
VStem: 117 89<-48.029 640.925>
LayerCount: 2
Back
Fore
SplineSet
162 673 m 0
 202 673 240 676 282 678 c 1
 287 673 286 653 282 648 c 1
 270 648 214 643 211 632 c 0
 206 616 206 587 206 556 c 2
 206 556 206 124 206 124 c 2
 206 -132 104 -232 -34 -232 c 0
 -49 -232 -86 -223 -98 -214 c 1
 -103 -209 -106 -197 -106 -190 c 0
 -106 -158 -90 -133 -57 -133 c 0
 -39 -133 -22 -150 -8 -163 c 0
 3 -173 21 -184 38 -184 c 0
 81 -184 117 -129 117 119 c 2
 117 119 117 556 117 556 c 2
 117 587 117 616 112 632 c 0
 109 643 53 648 41 648 c 1
 37 653 36 673 41 678 c 1
 83 676 122 673 162 673 c 0
EndSplineSet
Validated: 1
Substitution2: "Crimson-Roman-'c2sc' Capitals to Small Capitals in Latin lookup 0 subtable" j.sc
EndChar
StartChar: K
Encoding: 269 75 268
Width: 672
VWidth: 1048
Flags: W
HStem: -3 33<43.5037 116.999 216.001 289.496 603.756 676.682> 646 32<43.5037 116.566 216.434 289.496 412.462 469.678 570.235 642.998>
VStem: 122 89<37.0745 313.999 349 637.925>
LayerCount: 2
Back
SplineSet
166.912109375 672.767578125 m 4
 206.84765625 672.767578125 244.736328125 675.83984375 286.719726562 677.887695312 c 5
 291.83984375 672.767578125 290.81640625 650.240234375 286.719726562 645.120117188 c 5
 274.431640625 645.120117188 219.135742188 640 216.064453125 628.736328125 c 4
 210.944335938 612.3515625 210.944335938 583.6796875 210.944335938 552.959960938 c 6
 210.944335938 552.959960938 210.944335938 349.18359375 210.944335938 349.18359375 c 5
 232.448242188 362.49609375 284.671875 411.6484375 326.65625 452.608398438 c 4
 406.528320312 531.456054688 425.984375 551.935546875 456.704101562 591.872070312 c 4
 462.84765625 600.064453125 471.040039062 613.375976562 471.040039062 623.616210938 c 4
 471.040039062 649.215820312 422.912109375 646.143554688 413.696289062 646.143554688 c 5
 410.624023438 652.288085938 410.624023438 668.671875 413.696289062 677.887695312 c 5
 451.583984375 675.83984375 493.568359375 671.744140625 531.456054688 671.744140625 c 4
 576.51171875 671.744140625 601.087890625 675.83984375 642.047851562 677.887695312 c 5
 644.095703125 671.744140625 645.120117188 646.143554688 640 646.143554688 c 4
 630.784179688 645.120117188 573.440429688 646.143554688 538.624023438 608.255859375 c 4
 450.559570312 512 391.16796875 458.751953125 302.080078125 372.736328125 c 5
 300.032226562 369.6640625 300.032226562 367.616210938 302.080078125 364.543945312 c 5
 400.383789062 249.856445312 485.375976562 148.48046875 564.223632812 73.7275390625 c 4
 589.82421875 50.17578125 619.51953125 30.7197265625 675.83984375 26.6240234375 c 5
 680.959960938 21.50390625 675.83984375 -1.0244140625 674.81640625 -3.072265625 c 5
 606.208007812 -3.072265625 549.887695312 1.0244140625 529.408203125 8.1923828125 c 4
 515.072265625 13.3115234375 488.448242188 23.5517578125 459.776367188 52.2236328125 c 4
 438.272460938 73.7275390625 345.087890625 179.200195312 229.375976562 311.295898438 c 4
 227.328125 314.368164062 224.255859375 314.368164062 220.16015625 314.368164062 c 4
 217.087890625 314.368164062 212.9921875 313.34375 210.944335938 312.3203125 c 5
 210.944335938 312.3203125 210.944335938 121.856445312 210.944335938 121.856445312 c 6
 210.944335938 91.1357421875 210.944335938 62.4638671875 216.064453125 46.080078125 c 4
 219.135742188 34.81640625 274.431640625 29.6962890625 286.719726562 29.6962890625 c 5
 290.81640625 24.576171875 291.83984375 2.0478515625 286.719726562 -3.072265625 c 5
 244.736328125 -1.0244140625 206.84765625 2.0478515625 166.912109375 2.0478515625 c 4
 126.975585938 2.0478515625 88.064453125 -1.0244140625 46.080078125 -3.072265625 c 5
 40.9599609375 2.0478515625 41.984375 24.576171875 46.080078125 29.6962890625 c 5
 58.3681640625 29.6962890625 113.6640625 34.81640625 116.736328125 46.080078125 c 4
 121.856445312 62.4638671875 121.856445312 91.1357421875 121.856445312 121.856445312 c 6
 121.856445312 121.856445312 121.856445312 552.959960938 121.856445312 552.959960938 c 6
 121.856445312 583.6796875 121.856445312 612.3515625 116.736328125 628.736328125 c 4
 113.6640625 640 58.3681640625 645.120117188 46.080078125 645.120117188 c 5
 41.984375 650.240234375 40.9599609375 672.767578125 46.080078125 677.887695312 c 5
 88.064453125 675.83984375 126.975585938 672.767578125 166.912109375 672.767578125 c 4
EndSplineSet
Fore
SplineSet
167 673 m 0
 207 673 245 676 287 678 c 1
 292 673 291 650 287 645 c 1
 275 645 219 640 216 629 c 0
 211 613 211 584 211 553 c 2
 211 553 211 349 211 349 c 1
 233 362 285 412 327 453 c 0
 407 532 426 552 457 592 c 0
 463 600 471 614 471 624 c 0
 471 644 441 646 424 646 c 1
 424 646 414 646 414 646 c 1
 411 652 411 669 414 678 c 1
 452 676 493 672 531 672 c 0
 576 672 601 676 642 678 c 1
 644 672 645 646 640 646 c 0
 631 645 574 646 539 608 c 0
 451 512 391 459 302 373 c 1
 300 370 300 368 302 365 c 1
 400 250 485 149 564 74 c 0
 590 50 620 31 676 27 c 1
 681 22 676 -1 675 -3 c 1
 606 -3 549 1 529 8 c 0
 515 13 489 23 460 52 c 0
 438 74 345 179 229 311 c 0
 227 314 224 314 220 314 c 0
 217 314 213 313 211 312 c 1
 211 312 211 122 211 122 c 2
 211 91 211 62 216 46 c 0
 219 35 275 30 287 30 c 1
 291 25 292 2 287 -3 c 1
 245 -1 207 2 167 2 c 0
 127 2 88 -1 46 -3 c 1
 41 2 42 25 46 30 c 1
 58 30 114 35 117 46 c 0
 122 62 122 91 122 122 c 2
 122 122 122 553 122 553 c 2
 122 584 122 613 117 629 c 0
 114 640 58 645 46 645 c 1
 42 650 41 673 46 678 c 1
 88 676 127 673 167 673 c 0
EndSplineSet
Validated: 33
Substitution2: "Crimson-Roman-'c2sc' Capitals to Small Capitals in Latin lookup 0 subtable" k.sc
EndChar
StartChar: L
Encoding: 270 76 269
Width: 577
VWidth: 1048
Flags: W
HStem: -3 30<43.4037 116.566> 0 35<217.612 449.499> 648 30<43.4037 116.566 216.434 289.596>
VStem: 122 89<45.2699 640.925>
LayerCount: 2
Back
Fore
SplineSet
211 119 m 2xb0
 211 104 211 50 217 45 c 0
 230 35 247 35 290 35 c 2
 290 35 348 35 348 35 c 2
 387 35 439 43 468 62 c 0
 494 79 516 112 532 166 c 0
 533 170 540 172 547 172 c 0
 557 172 569 169 572 166 c 1
 553 111 524 41 517 -4 c 1
 405 -4 304 0 168 0 c 0x70
 120 0 86 -3 46 -3 c 1
 41 2 42 22 46 27 c 1
 58 27 114 32 117 43 c 0
 122 59 122 88 122 119 c 2
 122 119 122 556 122 556 c 2
 122 587 122 616 117 632 c 0
 114 643 58 648 46 648 c 1
 42 653 41 673 46 678 c 1
 88 676 127 673 167 673 c 0
 207 673 245 676 287 678 c 1
 292 673 291 653 287 648 c 1
 275 648 219 643 216 632 c 0
 211 616 211 587 211 556 c 2
 211 556 211 119 211 119 c 2xb0
EndSplineSet
Validated: 1
Substitution2: "Crimson-Roman-'c2sc' Capitals to Small Capitals in Latin lookup 0 subtable" l.sc
EndChar
StartChar: M
Encoding: 271 77 270
Width: 928
VWidth: 1048
Flags: W
HStem: -3 30<25.2432 106.156 174.466 255.562 647.243 715.415 821.545 894.36> 648 30<58.7871 124.898 806.283 873.207>
VStem: 122 46<38.8133 286.733> 136 45<391.179 597.448> 710 88<332.743 591.567> 725 83<38.2028 390.25>
LayerCount: 2
Back
Fore
SplineSet
166 673 m 0xd0
 201 673 226 676 249 678 c 1
 269 613 393 332 466 150 c 0
 467 148 469 147 470 147 c 0
 471 147 474 149 475 152 c 0
 535 308 573 403 632 555 c 0
 650 602 677 678 677 678 c 1
 710 676 739 674 758 674 c 0
 794 674 846 676 872 678 c 1
 873 675 876 648 876 648 c 17
 862 648 808 640 803 630 c 0
 799 621 798 603 798 591 c 0xd8
 800 520 805 276 808 143 c 0
 809 103 811 69 820 44 c 0
 825 30 884 27 892 27 c 1
 897 18 895 0 894 -3 c 1
 853 -1 817 2 772 2 c 0
 725 2 696 -1 649 -3 c 1
 647 -1 645 19 649 27 c 1
 661 27 704 31 716 38 c 0
 723 42 725 67 725 81 c 0xc4
 725 95 723 125 723 140 c 0
 719 287 716 413 710 579 c 0
 710 583 707 599 700 599 c 0
 698 599 697 597 695 592 c 8
 611 381 558 248 479 50 c 0
 475 41 451 0 440 -2 c 0
 437 -3 434 -1 431 0 c 1
 431 0 181 598 181 598 c 1xd8
 177 375 168 87 168 77 c 0
 168 68 169 53 172 45 c 0
 178 30 245 27 253 27 c 1
 258 21 256 0 255 -3 c 1
 214 -1 191 2 146 2 c 0
 99 2 74 -1 27 -3 c 1
 25 -1 23 19 27 27 c 1
 39 27 101 32 110 45 c 0
 119 58 121 74 122 96 c 0xe0
 131 342 136 568 136 586 c 0
 136 600 136 616 132 627 c 0
 128 639 72 648 60 648 c 1
 58 648 58 676 60 678 c 1
 107 676 119 673 166 673 c 0xd0
EndSplineSet
Validated: 1
Substitution2: "Crimson-Roman-'c2sc' Capitals to Small Capitals in Latin lookup 0 subtable" m.sc
EndChar
StartChar: N
Encoding: 272 78 271
Width: 794
VWidth: 1048
Flags: W
HStem: -3 30<40.1327 115.157 195.989 268.703> 649 30<40.2892 118.692 535.297 608.011 689.843 764.867>
VStem: 132 47<47.7515 582.103> 626 47<170 628.248>
LayerCount: 2
Back
Fore
SplineSet
146 676 m 0
 177 676 210 677 224 678 c 1
 276 596 512 329 626 170 c 1
 626 170 626 229 626 229 c 0
 626 229 626 558 626 558 c 2
 626 595 625 613 615 629 c 0
 609 639 554 649 538 649 c 1
 533 656 534 673 536 679 c 1
 577 677 608 674 653 674 c 0
 700 674 716 677 763 679 c 1
 766 674 768 660 763 649 c 1
 751 649 690 641 683 629 c 0
 674 614 673 598 673 559 c 2
 673 559 673 142 673 142 c 2
 673 83 673 54 675 1 c 1
 674 -4 665 -5 662 -5 c 0
 657 -5 640 0 626 18 c 2
 626 18 179 583 179 583 c 1
 179 583 179 118 179 118 c 2
 179 81 179 63 189 47 c 0
 195 37 250 27 266 27 c 1
 271 20 270 3 268 -3 c 1
 227 -1 197 2 152 2 c 0
 105 2 89 -1 42 -3 c 1
 39 2 37 16 42 27 c 1
 54 27 115 35 122 47 c 0
 131 62 132 78 132 117 c 2
 132 117 132 561 132 561 c 2
 132 600 131 616 122 631 c 0
 115 643 54 651 42 651 c 1
 37 662 39 676 42 681 c 1
 89 679 112 676 146 676 c 0
EndSplineSet
Validated: 1
Substitution2: "Crimson-Roman-'c2sc' Capitals to Small Capitals in Latin lookup 0 subtable" n.sc
EndChar
StartChar: O
Encoding: 273 79 272
Width: 765
VWidth: 1048
Flags: W
HStem: -10 35<316.155 477.392> 648 35<287.247 448.434>
VStem: 50 102<222.454 454.921> 614 102<214.691 450.696>
LayerCount: 2
Back
Fore
SplineSet
367 648 m 0
 213 648 152 495 152 358 c 0
 152 199 239 25 398 25 c 0
 552 25 614 178 614 316 c 0
 614 475 526 648 367 648 c 0
382 683 m 0
 562 683 716 540 716 336 c 0
 716 145 562 -10 382 -10 c 0
 202 -10 50 133 50 336 c 0
 50 527 202 683 382 683 c 0
EndSplineSet
Validated: 1
Substitution2: "Crimson-Roman-'c2sc' Capitals to Small Capitals in Latin lookup 0 subtable" o.sc
EndChar
StartChar: P
Encoding: 274 80 273
Width: 561
VWidth: 1048
Flags: W
HStem: -3 30<43.4037 116.566 216.434 289.596> 285 28<257.782 353.92> 642 33<45.2859 118.468 216.21 347.623>
VStem: 122 89<34.0745 631.421> 436 94<395.072 568.295>
LayerCount: 2
Back
Fore
SplineSet
530 490 m 0
 530 365 439 285 305 285 c 0
 294 285 271 288 261 293 c 0
 258 295 247 303 247 315 c 0
 247 317 248 322 252 321 c 1
 263 318 276 313 291 313 c 0
 373 313 436 371 436 473 c 0
 436 574 381 642 267 642 c 0
 255 642 220 641 216 632 c 0
 211 620 211 586 211 555 c 2
 211 555 211 119 211 119 c 2
 211 88 211 59 216 43 c 0
 219 32 275 27 287 27 c 1
 291 22 292 2 287 -3 c 1
 245 -1 207 2 167 2 c 0
 127 2 88 -1 46 -3 c 1
 41 2 42 22 46 27 c 1
 58 27 114 32 117 43 c 0
 122 59 122 88 122 119 c 2
 122 119 122 556 122 556 c 2
 122 587 122 616 117 632 c 0
 114 643 58 648 46 648 c 1
 42 653 41 673 46 678 c 1
 88 676 127 673 167 673 c 0
 207 673 252 675 312 675 c 0
 421 675 530 609 530 490 c 0
EndSplineSet
Validated: 1
Substitution2: "Crimson-Roman-'c2sc' Capitals to Small Capitals in Latin lookup 0 subtable" p.sc
EndChar
StartChar: Q
Encoding: 275 81 274
Width: 764
VWidth: 1048
Flags: W
HStem: -139 56<595.028 731.949> 648 35<287.247 448.434>
VStem: 50 102<223.916 454.921> 614 102<214.847 450.696>
LayerCount: 2
Back
Fore
SplineSet
367 648 m 0
 213 648 152 495 152 358 c 0
 152 199 239 25 398 25 c 0
 552 25 614 178 614 316 c 0
 614 475 526 648 367 648 c 0
382 683 m 0
 562 683 716 540 716 336 c 0
 716 179 613 47 477 4 c 1
 575 -43 596 -83 701 -83 c 0
 742 -83 767 -79 774 -77 c 1
 781 -77 790 -80 793 -84 c 0
 794 -85 794 -86 794 -87 c 1
 738 -117 686 -139 624 -139 c 0
 514 -139 433 -34 300 0 c 0
 158 36 50 165 50 336 c 0
 50 527 202 683 382 683 c 0
EndSplineSet
Validated: 1
Substitution2: "Crimson-Roman-'c2sc' Capitals to Small Capitals in Latin lookup 0 subtable" q.sc
EndChar
StartChar: R
Encoding: 276 82 275
Width: 635
VWidth: 1048
Flags: W
HStem: -3 30<43.4037 116.566 216.434 289.596 599.613 661.914> 309 32<211 295.801> 642 33<45.2859 118.468 216.21 347.639>
VStem: 122 89<34.0745 309 341 631.421> 425 95<424.127 578.99>
LayerCount: 2
Back
Fore
SplineSet
312 675 m 0
 405 675 520 615 520 498 c 0
 520 424 450 353 381 329 c 1
 435 239 478 177 546 88 c 0
 576 49 606 31 662 27 c 1
 667 22 661 -1 660 -3 c 1
 591 -3 545 2 525 9 c 0
 511 14 484 22 459 54 c 0
 444 74 361 197 296 297 c 0
 290 306 279 309 265 309 c 0
 265 309 220 309 211 309 c 1
 211 309 211 119 211 119 c 1
 211 88 211 59 216 43 c 0
 219 32 275 27 287 27 c 1
 291 22 292 2 287 -3 c 1
 245 -1 207 2 167 2 c 0
 127 2 88 -1 46 -3 c 1
 41 2 42 22 46 27 c 1
 58 27 114 32 117 43 c 0
 122 59 122 88 122 119 c 2
 122 119 122 556 122 556 c 2
 122 587 122 616 117 632 c 0
 114 643 58 648 46 648 c 1
 42 653 41 673 46 678 c 1
 88 676 127 673 167 673 c 0
 207 673 252 675 312 675 c 0
425 488 m 0
 425 577 381 642 267 642 c 0
 255 642 220 641 216 632 c 0
 211 620 211 586 211 555 c 2
 211 555 211 341 211 341 c 1
 211 341 247 341 266 341 c 0
 346 341 425 398 425 488 c 0
EndSplineSet
Validated: 1
Substitution2: "Crimson-Roman-'c2sc' Capitals to Small Capitals in Latin lookup 0 subtable" r.sc
EndChar
StartChar: S
Encoding: 277 83 276
Width: 514
VWidth: 1048
Flags: W
HStem: -10 35<185.47 322.676> 647 35<196.976 318.777>
VStem: 50 38<127.725 188.704> 67 81<466.139 584.253> 381 89<92.7678 218.832>
LayerCount: 2
Back
Fore
SplineSet
267 682 m 0xd8
 330 682 354 668 422 653 c 1
 430 600 434 536 436 508 c 0
 437 501 422 497 415 497 c 0
 412 497 406 498 403 501 c 1
 397 552 347 647 260 647 c 0
 176 647 148 583 148 534 c 0xd8
 148 452 224 418 292 375 c 0
 360 332 470 278 470 177 c 0
 470 64 366 -10 256 -10 c 0
 186 -10 122 9 72 19 c 1
 60 79 50 166 50 178 c 1
 56 184 68 190 77 190 c 0
 84 190 87 186 88 181 c 0xe8
 96 142 135 25 258 25 c 0
 325 25 381 70 381 150 c 0
 381 235 316 256 245 297 c 0
 166 343 67 399 67 502 c 0
 67 611 165 682 267 682 c 0xd8
EndSplineSet
Validated: 1
Substitution2: "Crimson-Roman-'c2sc' Capitals to Small Capitals in Latin lookup 0 subtable" s.sc
EndChar
StartChar: T
Encoding: 278 84 277
Width: 641
VWidth: 1048
Flags: W
HStem: -3 30<198.404 270.569 371.431 443.596> 641 36<97.8277 276 366 542.172>
VStem: 12 34<511.671 571.485> 276 90<34.0745 641> 594 34<511.671 571.485>
LayerCount: 2
Back
Fore
SplineSet
520 677 m 0
 536 677 570 686 582 692 c 0
 592 697 595 697 601 694 c 1
 608 632 617 572 628 518 c 1
 625 515 617 510 608 511 c 0
 603 511 596 513 594 516 c 1
 580 588 547 641 496 641 c 2
 496 641 366 641 366 641 c 1
 366 641 366 119 366 119 c 2
 366 88 366 59 371 43 c 0
 374 32 429 27 441 27 c 1
 445 22 446 2 441 -3 c 1
 399 -1 362 2 322 2 c 0
 282 2 243 -1 201 -3 c 1
 196 2 197 22 201 27 c 1
 213 27 268 32 271 43 c 0
 276 59 276 88 276 119 c 2
 276 119 276 641 276 641 c 1
 276 641 144 641 144 641 c 2
 93 641 60 588 46 516 c 1
 44 513 37 511 32 511 c 0
 23 510 15 515 12 518 c 1
 23 572 32 632 39 694 c 1
 45 697 56 694 62 691 c 0
 74 685 104 677 120 677 c 0
 209 677 425 677 520 677 c 0
EndSplineSet
Validated: 1
Substitution2: "Crimson-Roman-'c2sc' Capitals to Small Capitals in Latin lookup 0 subtable" t.sc
EndChar
StartChar: U
Encoding: 279 85 278
Width: 740
VWidth: 1048
Flags: W
HStem: -4 59<290.592 485.267> 648 30<27.4037 99.5693 200.431 272.596 497.528 568.022 645.955 722.988>
VStem: 105 90<164.959 640.925> 584 47<165.697 628.248>
LayerCount: 2
Back
Fore
SplineSet
151 673 m 0
 191 673 228 676 270 678 c 1
 275 673 274 653 270 648 c 1
 258 648 203 643 200 632 c 0
 195 616 195 587 195 556 c 2
 195 556 195 303 195 303 c 2
 195 218 212 156 245 115 c 0
 277 75 325 55 385 55 c 0
 490 55 581 105 584 281 c 2
 584 281 584 558 584 558 c 2
 584 595 583 613 573 629 c 0
 567 639 516 649 500 649 c 1
 495 656 496 673 498 679 c 1
 539 677 566 674 611 674 c 0
 658 674 674 677 721 679 c 1
 724 674 726 660 721 649 c 1
 709 649 648 641 641 629 c 0
 632 614 631 598 631 559 c 2
 631 559 631 283 631 283 c 2
 631 78 524 -4 364 -4 c 0
 290 -4 226 20 181 63 c 0
 134 108 105 175 105 257 c 2
 105 257 105 556 105 556 c 2
 105 587 105 616 100 632 c 0
 97 643 42 648 30 648 c 1
 26 653 25 673 30 678 c 1
 72 676 111 673 151 673 c 0
EndSplineSet
Validated: 1
Substitution2: "Crimson-Roman-'c2sc' Capitals to Small Capitals in Latin lookup 0 subtable" u.sc
EndChar
StartChar: V
Encoding: 280 86 279
Width: 653
VWidth: 1048
Flags: W
HStem: -2 21G<309 317.5> 648 30<-7.21289 49.9451 186.59 240.557 458.308 511.239 614.005 668.397>
LayerCount: 2
Back
Fore
SplineSet
113 673 m 0
 158 673 199 676 240 678 c 1
 242 672 242 649 238 648 c 1
 230 648 176 643 176 614 c 0
 176 604 182 580 194 545 c 0
 228 453 343 140 346 132 c 1
 352 145 449 378 510 536 c 16
 519 560 528 589 528 607 c 0
 528 640 473 647 461 647 c 1
 456 649 456 672 461 677 c 1
 499 675 529 673 567 673 c 0
 614 673 627 676 668 678 c 1
 671 673 669 648 666 648 c 1
 658 648 617 642 600 622 c 0
 588 608 564 557 549 518 c 0
 474 330 430 223 350 33 c 0
 339 5 324 -2 311 -2 c 0
 307 -2 303 10 301 14 c 0
 231 196 183 329 106 526 c 0
 91 566 76 598 59 625 c 0
 48 641 6 648 -6 648 c 1
 -8 648 -8 676 -6 678 c 1
 41 676 66 673 113 673 c 0
EndSplineSet
Validated: 1
Substitution2: "Crimson-Roman-'c2sc' Capitals to Small Capitals in Latin lookup 0 subtable" v.sc
EndChar
StartChar: W
Encoding: 281 87 280
Width: 921
VWidth: 1048
Flags: W
HStem: -2 21G<264 272.5 635 643.5> 648 30<-5.21289 48.0778 178.397 231.716 716.074 771.937 876.469 926.577>
LayerCount: 2
Back
Fore
SplineSet
121 673 m 0
 166 673 190 676 231 678 c 1
 233 672 233 649 229 648 c 1
 221 648 168 643 168 614 c 1
 168 607 173 584 183 548 c 0
 207 463 259 297 302 152 c 1
 350 311 426 544 457 644 c 0
 463 663 483 678 494 678 c 0
 498 678 501 673 506 662 c 1
 513 639 600 359 669 155 c 1
 713 312 738 393 776 537 c 0
 782 562 788 590 788 608 c 0
 788 641 731 648 719 648 c 1
 714 650 714 673 719 678 c 1
 757 676 791 673 829 673 c 0
 876 673 885 676 926 678 c 1
 929 673 927 648 924 648 c 1
 916 648 879 639 859 622 c 0
 845 610 834 586 822 544 c 0
 766 350 730 216 676 33 c 0
 671 15 650 -2 637 -2 c 0
 633 -2 628 10 627 14 c 0
 569 203 459 520 459 520 c 1
 402 332 359 214 305 33 c 0
 300 15 279 -2 266 -2 c 0
 262 -2 257 10 256 14 c 0
 197 203 154 343 92 545 c 0
 80 586 74 610 55 628 c 0
 41 641 8 648 -4 648 c 1
 -6 648 -6 676 -4 678 c 1
 43 676 74 673 121 673 c 0
EndSplineSet
Validated: 1
Substitution2: "Crimson-Roman-'c2sc' Capitals to Small Capitals in Latin lookup 0 subtable" w.sc
EndChar
StartChar: X
Encoding: 282 88 281
Width: 684
VWidth: 1048
Flags: W
HStem: -3 30<-7.95435 57.877 157.726 233.281 426.188 479.433 614.025 685.017> 648 30<32.1875 89.5396 239.566 295.082 442.979 508.197 605.329 663.567>
LayerCount: 2
Back
Fore
SplineSet
163 673 m 0
 213 673 253 676 294 678 c 1
 296 672 297 648 292 648 c 0
 278 648 230 642 230 615 c 0
 230 607 235 597 243 585 c 2
 243 585 361 402 361 402 c 1
 422 484 485 563 511 604 c 0
 515 610 515 619 515 621 c 0
 515 630 503 647 446 647 c 1
 442 648 441 670 444 677 c 1
 485 674 512 672 550 672 c 0
 603 672 638 675 663 677 c 1
 666 672 666 653 660 647 c 1
 652 647 599 642 569 606 c 0
 490 512 455 467 381 369 c 1
 381 369 583 68 583 68 c 2
 602 38 649 27 683 27 c 1
 687 22 685 -1 684 -3 c 1
 643 -1 621 2 579 2 c 0
 522 2 486 -1 429 -3 c 1
 424 2 424 27 429 27 c 0
 440 27 488 36 488 55 c 0
 488 58 485 65 483 68 c 2
 483 68 328 308 328 308 c 1
 267 226 173 97 158 68 c 0
 157 65 153 57 153 51 c 0
 153 39 174 27 231 27 c 1
 235 21 235 0 233 -3 c 1
 195 -1 156 2 118 2 c 0
 65 2 33 -1 -8 -3 c 1
 -11 3 -8 24 -6 27 c 1
 2 27 74 35 103 72 c 0
 181 171 230 242 304 340 c 1
 264 401 160 561 160 561 c 2
 136 598 121 616 92 632 c 0
 75 642 47 648 35 648 c 0
 30 648 30 673 35 678 c 1
 85 676 113 673 163 673 c 0
EndSplineSet
Validated: 1
Substitution2: "Crimson-Roman-'c2sc' Capitals to Small Capitals in Latin lookup 0 subtable" x.sc
EndChar
StartChar: Y
Encoding: 283 89 282
Width: 612
VWidth: 1048
Flags: W
HStem: -3 30<188.404 261.566 361.434 434.596> 648 30<-12.8125 44.5396 194.566 250.082 401.728 467.524 554.129 617.344>
VStem: 267 89<34.0745 119 119.07 326.167>
LayerCount: 2
Back
Fore
SplineSet
267 119 m 2
 267 119 267 273 267 273 c 0
 267 280 265 292 260 302 c 16
 201 410 175 452 115 561 c 0
 93 599 76 616 47 632 c 0
 30 642 2 648 -10 648 c 0
 -15 648 -15 673 -10 678 c 1
 40 676 68 673 118 673 c 0
 168 673 208 676 249 678 c 1
 251 672 252 648 247 648 c 0
 233 648 185 642 185 615 c 0
 185 607 190 598 198 585 c 2
 198 585 340 339 340 339 c 1
 390 429 458 567 473 604 c 0
 474 607 476 614 476 620 c 0
 476 630 461 647 404 647 c 1
 401 647 400 674 402 677 c 1
 440 675 467 672 505 672 c 0
 558 672 576 675 617 677 c 1
 619 671 618 647 615 647 c 1
 607 647 548 647 524 606 c 0
 485 537 406 390 362 308 c 8
 356 297 357 285 357 276 c 0
 357 215 356 119 356 119 c 2
 356 88 356 59 361 43 c 0
 364 32 420 27 432 27 c 1
 436 22 437 2 432 -3 c 1
 390 -1 352 2 312 2 c 0
 272 2 233 -1 191 -3 c 1
 186 2 187 22 191 27 c 1
 203 27 259 32 262 43 c 0
 267 59 267 88 267 119 c 2
EndSplineSet
Validated: 33
Substitution2: "Crimson-Roman-'c2sc' Capitals to Small Capitals in Latin lookup 0 subtable" y.sc
EndChar
StartChar: Z
Encoding: 284 90 283
Width: 648
VWidth: 1048
Flags: W
HStem: 0 36<161 498.8> 641 36<157.28 470.524>
VStem: 44 38<503.935 557.077>
LayerCount: 2
Back
Fore
SplineSet
221 641 m 2
 151 641 105 591 82 507 c 1
 80 504 76 503 71 503 c 0
 62 503 47 508 44 511 c 1
 61 558 72 615 78 685 c 1
 100 682 134 677 162 677 c 0
 162 677 360 677 360 677 c 2
 446 677 489 681 575 687 c 1
 579 686 594 673 594 665 c 1
 592 657 161 36 161 36 c 25
 161 36 428 36 428 36 c 2
 472 36 501 51 523 73 c 0
 553 103 567 143 578 173 c 0
 579 175 587 176 592 176 c 0
 602 176 612 171 616 167 c 1
 591 86 579 52 567 0 c 1
 567 0 252 0 54 0 c 0
 43 0 32 8 36 14 c 2
 36 14 471 641 471 641 c 1
 471 641 221 641 221 641 c 2
EndSplineSet
Validated: 1
Substitution2: "Crimson-Roman-'c2sc' Capitals to Small Capitals in Latin lookup 0 subtable" z.sc
EndChar
StartChar: bracketleft
Encoding: 285 91 284
Width: 265
VWidth: 1048
Flags: W
VStem: 81 49<-98 692>
LayerCount: 2
Back
Fore
SplineSet
100 735 m 0
 184 735 257 741 257 741 c 1
 257 741 260 738 260 732 c 0
 260 726 256 718 250 716 c 0
 211 703 130 692 130 692 c 1
 130 692 130 -98 130 -98 c 1
 130 -98 211 -109 250 -122 c 0
 256 -124 260 -132 260 -138 c 0
 260 -144 257 -147 257 -147 c 1
 257 -147 184 -141 100 -141 c 0
 82 -141 81 -119 81 -118 c 2
 81 -118 81 712 81 712 c 2
 81 713 82 735 100 735 c 0
EndSplineSet
Validated: 1
Substitution2: "Crimson-Roman-'c2sc' Capitals to Small Capitals in Latin lookup 0 subtable" bracketleft.sc
Substitution2: "Crimson-Roman-'smcp' Lowercase to Small Capitals lookup 2-1" bracketleft.sc
EndChar
StartChar: backslash
Encoding: 286 92 285
Width: 410
VWidth: 1048
Flags: W
LayerCount: 2
Back
Fore
SplineSet
32 768 m 1
 35 773 45 775 52 775 c 0
 63 775 78 767 81 759 c 2
 81 759 378 -11 378 -17 c 1
 377 -21 366 -29 354 -29 c 0
 347 -29 336 -21 333 -14 c 0
 219 282 122 537 32 768 c 1
EndSplineSet
Validated: 1
Substitution2: "Crimson-Roman-'c2sc' Capitals to Small Capitals in Latin lookup 0 subtable" backslash.sc
Substitution2: "Crimson-Roman-'smcp' Lowercase to Small Capitals lookup 2-1" backslash.sc
EndChar
StartChar: bracketright
Encoding: 287 93 286
Width: 266
VWidth: 1048
Flags: W
VStem: 136 49<-98 692>
LayerCount: 2
Back
Fore
SplineSet
166 735 m 0
 184 735 185 713 185 712 c 2
 185 712 185 -118 185 -118 c 2
 185 -119 184 -141 166 -141 c 0
 82 -141 9 -147 9 -147 c 1
 9 -147 6 -144 6 -138 c 0
 6 -132 10 -124 16 -122 c 0
 55 -109 136 -98 136 -98 c 1
 136 -98 136 692 136 692 c 1
 136 692 55 703 16 716 c 0
 10 718 6 726 6 732 c 0
 6 738 9 741 9 741 c 1
 9 741 82 735 166 735 c 0
EndSplineSet
Validated: 1
Substitution2: "Crimson-Roman-'c2sc' Capitals to Small Capitals in Latin lookup 0 subtable" bracketright.sc
Substitution2: "Crimson-Roman-'smcp' Lowercase to Small Capitals lookup 2-1" bracketright.sc
EndChar
StartChar: asciicircum
Encoding: 288 94 287
Width: 399
VWidth: 1048
Flags: W
HStem: 433 227
VStem: 62 256
LayerCount: 2
Back
Fore
SplineSet
190 660 m 0
 195 660 203 655 207 647 c 0
 248 566 274 527 318 450 c 1
 318 440 309 433 303 433 c 1
 256 482 190 565 190 565 c 25
 190 565 126 482 79 433 c 1
 73 433 62 440 62 450 c 1
 106 527 134 566 175 647 c 0
 179 655 185 660 190 660 c 0
EndSplineSet
Validated: 1
Substitution2: "Crimson-Roman-'c2sc' Capitals to Small Capitals in Latin lookup 0 subtable" asciicircum.sc
Substitution2: "Crimson-Roman-'smcp' Lowercase to Small Capitals lookup 2-1" asciicircum.sc
EndChar
StartChar: underscore
Encoding: 289 95 288
Width: 517
VWidth: 1048
Flags: W
HStem: -44 57<22 477>
LayerCount: 2
Back
Fore
SplineSet
14 -34 m 1
 14 -34 20 13 30 13 c 2
 30 13 489 13 489 13 c 2
 491 13 494 12 494 8 c 0
 494 -1 489 -15 483 -38 c 0
 481 -44 477 -44 477 -44 c 1
 477 -44 22 -44 22 -44 c 1
 22 -44 14 -44 14 -34 c 1
EndSplineSet
Validated: 1
EndChar
StartChar: grave
Encoding: 290 96 289
Width: 350
VWidth: 1048
Flags: W
HStem: 537 164
VStem: 119 163
LayerCount: 2
Back
Fore
SplineSet
155 701 m 0
 169 701 182 694 183 693 c 0
 216 652 282 556 282 550 c 128
 282 544 280 537 273 537 c 0
 263 537 119 638 119 671 c 0
 119 676 119 701 155 701 c 0
EndSplineSet
Validated: 1
EndChar
StartChar: a
Encoding: 291 97 290
Width: 441
VWidth: 1048
Flags: W
HStem: -8 55<142.374 217.167 331 396.509> 408 38<163.188 276>
VStem: 38 85<66.1501 169.558> 53 83<302.097 361.758> 281 77<69.5405 228 252.62 370.475>
LayerCount: 2
Back
Fore
SplineSet
191 47 m 0xe8
 227 47 281 79 281 89 c 2
 281 89 281 228 281 228 c 17
 253 220 203 206 185 199 c 0
 148 185 123 158 123 119 c 0
 123 81 152 47 191 47 c 0xe8
247 446 m 0
 305 446 358 385 358 306 c 2
 358 306 358 95 358 95 c 2
 358 67 366 47 390 47 c 0
 408 47 421 58 424 60 c 1
 427 60 428 55 428 52 c 0
 428 46 426 38 423 33 c 1
 411 22 368 -6 346 -6 c 0
 316 -6 290 28 284 60 c 1
 272 48 194 -8 158 -8 c 0
 90 -8 38 43 38 110 c 0xe8
 38 152 66 183 89 191 c 0
 146 211 238 243 268 256 c 0
 278 260 281 264 281 282 c 2
 281 282 281 309 281 309 c 2
 281 355 243 408 193 408 c 0
 157 408 143 384 136 344 c 0
 130 309 114 295 88 295 c 0
 66 295 53 318 53 338 c 0xd8
 53 342 56 357 60 362 c 1
 92 392 172 446 247 446 c 0
EndSplineSet
Validated: 1
Substitution2: "Crimson-Roman-'smcp' Lowercase to Small Capitals lookup 2-1" a.sc
EndChar
StartChar: b
Encoding: 292 98 291
Width: 509
VWidth: 1048
Flags: W
HStem: -7 35<186.026 300.838> 388 5<158 232> 643 27<3.89859 63.2695> 691 20G<130.5 154.5>
VStem: 73 79<55.1014 359.859 392.777 636.194> 383 86<137.914 306.934>
LayerCount: 2
Back
Fore
SplineSet
216 -7 m 0
 201 -7 162 2 140 8 c 0
 125 12 109 17 94 17 c 0
 88 17 81 16 74 14 c 1
 69 14 60 32 60 37 c 1
 69 57 73 93 73 113 c 2
 73 113 73 571 73 571 c 2
 73 584 73 613 68 625 c 0
 62 639 34 643 5 643 c 1
 4 643 2 669 6 670 c 1
 57 675 109 692 152 711 c 1
 157 711 163 701 163 694 c 1
 163 694 152 661 152 605 c 2
 152 605 152 403 152 403 c 2
 152 398 152 388 158 393 c 0
 173 404 243 449 282 449 c 0
 405 449 469 332 469 239 c 0
 469 105 361 -7 216 -7 c 0
232 388 m 0
 205 388 166 369 157 360 c 0
 154 357 152 354 152 349 c 2
 152 349 152 100 152 100 c 2
 152 56 202 28 247 28 c 0
 321 28 383 116 383 199 c 0
 383 318 323 388 232 388 c 0
EndSplineSet
Validated: 1
Substitution2: "Crimson-Roman-'smcp' Lowercase to Small Capitals lookup 2-1" b.sc
EndChar
StartChar: c
Encoding: 293 99 292
Width: 433
VWidth: 1048
Flags: W
HStem: -8 67<196.811 328.126> 403 46<197.983 297.591>
VStem: 40 80<135.425 295.906>
LayerCount: 2
Back
Fore
SplineSet
391 395 m 0
 391 358 369 346 352 346 c 1
 329 346 310 373 293 384 c 0
 271 398 261 403 234 403 c 0
 180 403 120 340 120 232 c 0
 120 112 194 59 286 59 c 0
 342 59 381 97 394 112 c 1
 395 112 402 105 402 97 c 0
 402 92 399 84 396 79 c 0
 378 49 327 -8 247 -8 c 0
 123 -8 40 93 40 199 c 0
 40 349 183 449 289 449 c 0
 325 449 356 440 381 424 c 1
 385 420 391 405 391 395 c 0
EndSplineSet
Validated: 1
Substitution2: "Crimson-Roman-'smcp' Lowercase to Small Capitals lookup 2-1" c.sc
EndChar
StartChar: d
Encoding: 294 100 293
Width: 527
VWidth: 1048
Flags: W
HStem: -8 63<198.432 295.561> 20 28<449.644 508.69> 406 43<201.716 334.78> 643 27<290.899 349.953> 691 20G<416.5 440.5>
VStem: 40 86<135.311 299.083> 359 79<72.6925 383.724 438.007 636.194>
LayerCount: 2
Back
Fore
SplineSet
284 449 m 0xbe
 306 449 344 442 354 438 c 1
 358 438 359 448 359 460 c 2
 359 460 359 571 359 571 c 2
 359 585 359 613 354 625 c 0
 348 639 321 643 292 643 c 1
 291 643 289 669 293 670 c 1
 344 675 395 692 438 711 c 1
 443 711 450 701 450 694 c 1
 450 694 438 661 438 605 c 2
 438 605 438 167 438 167 c 2
 438 127 439 81 445 67 c 0
 453 49 503 49 506 48 c 0
 508 47 509 39 509 36 c 0
 509 34 506 20 501 20 c 0x7e
 448 17 369 -8 368 -8 c 0
 362 -8 359 4 359 11 c 2
 359 11 359 47 359 47 c 2
 359 52 358 55 356 53 c 0
 341 37 269 -8 220 -8 c 0
 127 -8 40 86 40 211 c 0
 40 345 192 449 284 449 c 0xbe
251 406 m 0
 173 406 126 322 126 236 c 0
 126 140 177 55 270 55 c 0xbe
 316 55 359 80 359 96 c 2
 359 96 359 355 359 355 c 2
 359 379 308 406 251 406 c 0
EndSplineSet
Validated: 1
Substitution2: "Crimson-Roman-'smcp' Lowercase to Small Capitals lookup 2-1" d.sc
EndChar
StartChar: e
Encoding: 295 101 294
Width: 440
VWidth: 1048
Flags: W
HStem: -8 65<198.517 326.615> 254 38<119 308.718> 412 37<176.935 271.951>
VStem: 41 73<147.1 254 292 306.379> 309 87<292.178 379.309>
LayerCount: 2
Back
Fore
SplineSet
119 292 m 1
 128 292 276 292 286 292 c 0
 298 292 309 297 309 315 c 0
 309 345 287 412 225 412 c 0
 142 412 119 301 119 293 c 0
 119 292 119 292 119 292 c 1
114 254 m 1
 114 252 114 249 114 247 c 0
 114 121 193 57 281 57 c 0
 337 57 380 97 393 112 c 1
 394 112 401 105 401 97 c 0
 401 92 398 84 395 79 c 0
 377 49 326 -8 246 -8 c 0
 125 -8 41 84 41 205 c 0
 41 342 153 449 243 449 c 0
 366 449 396 350 396 309 c 0
 396 279 391 262 372 261 c 0
 340 259 126 254 114 254 c 1
EndSplineSet
Validated: 1
Substitution2: "Crimson-Roman-'smcp' Lowercase to Small Capitals lookup 2-1" e.sc
EndChar
StartChar: f
Encoding: 296 102 295
Width: 315
VWidth: 1048
Flags: W
HStem: -3 30<26.4037 92.5865 182.428 253.596> 400 42<41.9629 98 177 301.268> 652 62<219.917 307.919>
VStem: 98 79<33.7426 400 442 558.764>
LayerCount: 2
Back
Fore
SplineSet
275 714 m 0
 306 714 309 711 324 701 c 1
 328 697 334 683 334 673 c 0
 334 636 306 632 293 632 c 0
 283 632 274 637 263 643 c 0
 252 649 246 652 233 652 c 0
 201 652 177 619 177 556 c 2
 177 556 177 442 177 442 c 1
 177 442 298 442 298 442 c 2
 303 442 303 437 303 431 c 0
 303 422 298 409 289 400 c 1
 289 400 177 400 177 400 c 1
 177 400 177 119 177 119 c 2
 177 88 177 59 182 43 c 0
 185 32 239 27 251 27 c 1
 255 22 256 2 251 -3 c 1
 209 -1 177 2 137 2 c 0
 97 2 71 -1 29 -3 c 1
 24 2 25 22 29 27 c 1
 41 27 90 32 93 43 c 0
 98 59 98 88 98 119 c 2
 98 119 98 400 98 400 c 1
 98 400 39 400 39 400 c 2
 36 400 34 407 34 410 c 0
 34 414 59 441 60 442 c 1
 60 442 98 442 98 442 c 1
 98 442 98 449 98 449 c 2
 98 597 213 714 275 714 c 0
EndSplineSet
Validated: 1
Substitution2: "Crimson-Roman-'smcp' Lowercase to Small Capitals lookup 2-1" f.sc
EndChar
StartChar: g
Encoding: 297 103 296
Width: 477
VWidth: 1048
Flags: W
HStem: -232 39<160.896 302.555> -4 73<166.374 352.752> 140 31<181.539 270.168> 383 52<398.435 453.625> 419 31<175.573 266.089>
VStem: 24 80<-145.129 -62.0906> 51 79<77.9169 116.882 223.533 369.846> 315 79<221.301 374.854> 396 71<-104.199 -10.5>
LayerCount: 2
Back
Fore
SplineSet
220 419 m 27xeb80
 162 419 130 357 130 299 c 27
 130 237 166 171 228 171 c 27
 284 171 315 232 315 288 c 27
 315 351 283 419 220 419 c 27xeb80
261 -4 m 0
 243 -4 173 -5 166 -9 c 0
 142 -22 104 -51 104 -78 c 0xe580
 104 -145 155 -193 242 -193 c 0
 313 -193 396 -139 396 -83 c 0
 396 -53 358 -4 261 -4 c 0
308 69 m 0
 389 69 467 18 467 -39 c 0
 467 -123 343 -232 201 -232 c 0
 118 -232 24 -192 24 -108 c 0xf580
 24 -63 97 -18 132 -1 c 1
 96 10 48 43 48 94 c 1
 65 114 118 153 136 164 c 1
 86 192 51 245 51 295 c 0
 51 376 126 450 224 450 c 0xeb80
 268 450 299 434 317 427 c 0
 336 420 332 422 341 420 c 1
 341 420 451 435 451 435 c 1
 458 433 461 429 461 425 c 0
 461 417 447 389 437 383 c 1xf380
 411 384 370 387 370 387 c 2
 367 387 366 386 366 384 c 1
 371 379 394 338 394 291 c 0
 394 219 319 140 221 140 c 0
 204 140 174 146 164 150 c 1
 146 140 126 120 126 104 c 0
 126 94 146 69 187 69 c 0
 255 69 263 69 308 69 c 0
EndSplineSet
Validated: 1
Substitution2: "Crimson-Roman-'smcp' Lowercase to Small Capitals lookup 2-1" g.sc
EndChar
StartChar: h
Encoding: 298 104 297
Width: 528
VWidth: 1048
Flags: W
HStem: -3 30<19.4037 85.5865 175.416 242.596 295.404 361.587 452.413 518.596> 389 60<246.219 334.891> 643 27<22.8986 81.9531> 691 20G<148.5 172.5>
VStem: 91 79<33.4189 355.875 372.001 636.194> 368 78<33.7426 351.776>
LayerCount: 2
Back
Fore
SplineSet
314 449 m 0
 425 449 446 379 446 231 c 2
 446 231 446 119 446 119 c 2
 446 88 447 59 452 43 c 0
 455 32 504 27 516 27 c 1
 520 22 521 2 516 -3 c 1
 474 -1 447 2 407 2 c 0
 367 2 340 -1 298 -3 c 1
 293 2 294 22 298 27 c 1
 310 27 359 32 362 43 c 0
 367 59 368 88 368 119 c 2
 368 119 368 221 368 221 c 2
 368 348 347 389 267 389 c 0
 229 389 170 342 170 333 c 2
 170 333 170 119 170 119 c 2
 170 88 170 59 175 43 c 0
 178 32 228 27 240 27 c 1
 244 22 245 2 240 -3 c 1
 198 -1 170 2 130 2 c 0
 90 2 64 -1 22 -3 c 1
 17 2 18 22 22 27 c 1
 34 27 83 32 86 43 c 0
 91 59 91 88 91 119 c 2
 91 119 91 571 91 571 c 2
 91 584 91 613 86 625 c 0
 80 639 53 643 24 643 c 1
 23 643 21 669 25 670 c 1
 76 675 127 692 170 711 c 1
 175 711 181 701 181 694 c 1
 181 694 170 661 170 605 c 2
 170 605 170 382 170 374 c 0
 170 373 171 372 173 372 c 0
 174 372 175 373 176 374 c 0
 196 397 265 449 314 449 c 0
EndSplineSet
Validated: 1
Substitution2: "Crimson-Roman-'smcp' Lowercase to Small Capitals lookup 2-1" h.sc
EndChar
StartChar: j
Encoding: 300 106 299
Width: 244
VWidth: 1048
Flags: W
HStem: 381 27<21.1812 83.6204> 431 20<148.5 171.5> 556 102<76.4902 161.51>
VStem: 68 102<564.49 649.51> 94 79<-65.819 373.94>
LayerCount: 2
Back
Fore
SplineSet
68 607 m 128
 68 636 90 658 119 658 c 128
 148 658 170 636 170 607 c 128
 170 578 148 556 119 556 c 128
 90 556 68 578 68 607 c 128
94 46 m 2
 94 46 94 309 94 309 c 2
 94 322 94 350 89 362 c 0
 82 379 30 381 23 381 c 1
 21 383 19 403 23 408 c 1
 75 415 128 429 169 451 c 1
 174 451 180 439 180 434 c 1
 179 427 173 380 173 367 c 2
 173 367 173 332 173 332 c 128
 173 332 173 70 173 70 c 1
 173 -127 66 -208 -4 -237 c 1
 -9 -234 -15 -226 -17 -221 c 0
 -18 -219 -18 -215 -17 -214 c 1
 41 -172 94 -124 94 46 c 2
EndSplineSet
Validated: 1
Substitution2: "Crimson-Roman-'smcp' Lowercase to Small Capitals lookup 2-1" j.sc
EndChar
StartChar: k
Encoding: 301 107 300
Width: 530
VWidth: 1048
Flags: W
HStem: -3 30<19.4037 85.5865 175.416 242.596 449.625 524.505> 406 29<297.188 347.004 429.147 491.065> 643 27<22.8986 81.9531> 691 20G<148.5 172.5>
VStem: 91 79<33.4189 209 241 636.194>
LayerCount: 2
Back
Fore
SplineSet
170 119 m 2
 170 88 170 59 175 43 c 0
 178 32 228 27 240 27 c 1
 244 22 245 2 240 -3 c 1
 198 -1 170 2 130 2 c 0
 90 2 64 -1 22 -3 c 1
 17 2 18 22 22 27 c 1
 34 27 83 32 86 43 c 0
 91 59 91 88 91 119 c 2
 91 119 91 571 91 571 c 2
 91 585 91 613 86 625 c 0
 80 639 53 643 24 643 c 1
 23 643 21 669 25 670 c 1
 76 675 127 692 170 711 c 1
 175 711 181 701 181 694 c 1
 181 694 170 661 170 605 c 2
 170 605 170 241 170 241 c 1
 187 247 219 273 254 303 c 0
 307 348 348 378 348 388 c 0
 348 403 308 405 299 406 c 1
 294 413 296 433 301 435 c 1
 331 432 366 430 399 430 c 0
 434 430 466 432 489 435 c 1
 493 429 492 410 489 406 c 1
 475 406 433 397 411 382 c 0
 400 374 305 306 245 255 c 1
 322 172 404 74 429 54 c 0
 456 32 494 27 523 27 c 1
 525 24 527 7 524 2 c 1
 517 -1 486 -4 458 -4 c 0
 398 -4 347 25 332 41 c 2
 332 41 243 137 185 200 c 0
 181 205 170 209 170 209 c 1
 170 209 170 119 170 119 c 2
EndSplineSet
Validated: 1
Substitution2: "Crimson-Roman-'smcp' Lowercase to Small Capitals lookup 2-1" k.sc
EndChar
StartChar: l
Encoding: 302 108 301
Width: 261
VWidth: 1048
Flags: W
HStem: -3 30<19.4037 85.5865 175.416 242.596> 643 27<22.8986 81.9531> 691 20G<148.5 172.5>
VStem: 91 79<33.4189 636.194>
LayerCount: 2
Back
Fore
SplineSet
91 571 m 2
 91 585 91 613 86 625 c 0
 80 639 53 643 24 643 c 1
 23 643 21 669 25 670 c 1
 76 675 127 692 170 711 c 1
 175 711 181 701 181 694 c 1
 181 694 170 661 170 605 c 2
 170 605 170 119 170 119 c 2
 170 88 170 59 175 43 c 0
 178 32 228 27 240 27 c 1
 244 22 245 2 240 -3 c 1
 198 -1 170 2 130 2 c 0
 90 2 64 -1 22 -3 c 1
 17 2 18 22 22 27 c 1
 34 27 83 32 86 43 c 0
 91 59 91 88 91 119 c 2
 91 119 91 571 91 571 c 2
EndSplineSet
Validated: 1
Substitution2: "Crimson-Roman-'smcp' Lowercase to Small Capitals lookup 2-1" l.sc
EndChar
StartChar: m
Encoding: 303 109 302
Width: 808
VWidth: 1048
Flags: W
HStem: -3 30<34.4037 100.587 190.416 257.596 304.404 371.584 461.413 527.596 575.404 641.587 731.416 798.596> 381 27<33.1812 95.6204> 389 60<257.221 345.834 526.121 614.892>
VStem: 106 79<33.4189 358.803> 377 79<33.4189 355.255> 647 79<33.4189 351.776>
LayerCount: 2
Back
Fore
SplineSet
327 449 m 0xbc
 387 449 427 425 443 364 c 1
 488 405 545 449 594 449 c 0
 705 449 726 379 726 231 c 2
 726 231 726 119 726 119 c 2
 726 88 726 59 731 43 c 0
 734 32 784 27 796 27 c 1
 800 22 801 2 796 -3 c 1
 754 -1 726 2 686 2 c 0
 646 2 620 -1 578 -3 c 1
 573 2 574 22 578 27 c 1
 590 27 639 32 642 43 c 0
 647 59 647 88 647 119 c 2
 647 119 647 228 647 228 c 2
 647 329 634 389 551 389 c 0
 501 389 451 338 451 331 c 0
 451 330 452 319 452 317 c 0
 455 298 456 263 456 245 c 2
 456 245 456 119 456 119 c 2
 456 88 456 59 461 43 c 0
 464 32 513 27 525 27 c 1
 529 22 530 2 525 -3 c 1
 483 -1 456 2 416 2 c 0
 376 2 349 -1 307 -3 c 1
 302 2 303 22 307 27 c 1
 319 27 369 32 372 43 c 0
 377 59 377 88 377 119 c 2
 377 119 377 223 377 223 c 2
 377 348 355 389 281 389 c 0xbc
 235 389 185 346 185 333 c 2
 185 333 185 119 185 119 c 2
 185 88 185 59 190 43 c 0
 193 32 243 27 255 27 c 1
 259 22 260 2 255 -3 c 1
 213 -1 185 2 145 2 c 0
 105 2 79 -1 37 -3 c 1
 32 2 33 22 37 27 c 1
 49 27 98 32 101 43 c 0
 106 59 106 88 106 119 c 2
 106 119 106 305 106 305 c 2
 106 318 106 350 101 362 c 0
 94 379 42 381 35 381 c 1
 33 383 31 403 35 408 c 1
 87 415 140 429 181 451 c 1
 186 451 193 439 193 434 c 1
 192 427 186 389 186 381 c 0xdc
 186 380 186 377 188 377 c 0
 189 377 190 378 191 379 c 0
 217 401 272 449 327 449 c 0xbc
EndSplineSet
Validated: 1
Substitution2: "Crimson-Roman-'smcp' Lowercase to Small Capitals lookup 2-1" m.sc
EndChar
StartChar: n
Encoding: 304 110 303
Width: 544
VWidth: 1048
Flags: W
HStem: -3 30<34.4037 100.587 190.416 257.596 310.404 377.584 467.413 533.596> 381 27<33.1812 95.6204> 389 60<261.988 350.722>
VStem: 106 79<33.4189 354.674> 383 79<33.4189 355.028>
LayerCount: 2
Back
Fore
SplineSet
330 449 m 0xb8
 441 449 462 379 462 231 c 2
 462 231 462 119 462 119 c 2
 462 88 462 59 467 43 c 0
 470 32 519 27 531 27 c 1
 535 22 536 2 531 -3 c 1
 489 -1 462 2 422 2 c 0
 382 2 355 -1 313 -3 c 1
 308 2 309 22 313 27 c 1
 325 27 375 32 378 43 c 0
 383 59 383 88 383 119 c 2
 383 119 383 221 383 221 c 2
 383 348 363 389 283 389 c 0xb8
 245 389 185 342 185 333 c 2
 185 333 185 119 185 119 c 2
 185 88 185 59 190 43 c 0
 193 32 243 27 255 27 c 1
 259 22 260 2 255 -3 c 1
 213 -1 185 2 145 2 c 0
 105 2 79 -1 37 -3 c 1
 32 2 33 22 37 27 c 1
 49 27 98 32 101 43 c 0
 106 59 106 88 106 119 c 2
 106 119 106 305 106 305 c 2
 106 318 106 350 101 362 c 0
 94 379 42 381 35 381 c 1
 33 383 31 403 35 408 c 1xd8
 87 415 140 429 181 451 c 1
 186 451 193 439 193 434 c 1
 192 427 186 384 186 376 c 0
 186 375 186 372 188 372 c 0
 189 372 190 373 191 374 c 0
 211 397 281 449 330 449 c 0xb8
EndSplineSet
Validated: 1
Substitution2: "Crimson-Roman-'smcp' Lowercase to Small Capitals lookup 2-1" n.sc
EndChar
StartChar: o
Encoding: 305 111 304
Width: 521
VWidth: 1048
Flags: W
HStem: -7 34<216.94 327.684> 416 34<193.77 302.642>
VStem: 42 88<126.495 321.518> 391 88<121.733 314.45>
LayerCount: 2
Back
Fore
SplineSet
249 416 m 0
 162 416 130 327 130 239 c 0
 130 140 180 27 272 27 c 0
 359 27 391 116 391 203 c 0
 391 302 340 416 249 416 c 0
260 450 m 0
 395 450 479 354 479 226 c 0
 479 94 386 -7 262 -7 c 0
 127 -7 42 90 42 218 c 0
 42 350 136 450 260 450 c 0
EndSplineSet
Validated: 1
Substitution2: "Crimson-Roman-'smcp' Lowercase to Small Capitals lookup 2-1" o.sc
EndChar
StartChar: p
Encoding: 306 112 305
Width: 522
VWidth: 1048
Flags: W
HStem: -231 29<15.4037 80.987 174.013 239.596> -8 36<200.762 320.32> 381 27<14.1812 76.959> 388 61<227.14 324.626>
VStem: 88 79<-194.876 2.99635 53.8834 370.083> 396 86<142.875 306.824>
LayerCount: 2
Back
Fore
SplineSet
297 449 m 0xdc
 424 449 482 326 482 238 c 0
 482 106 359 -8 243 -8 c 0
 216 -8 187 -2 171 3 c 1
 171 3 167 -2 167 -10 c 2
 167 -10 167 -110 167 -110 c 2
 167 -141 167 -169 172 -185 c 0
 175 -196 225 -202 237 -202 c 1
 241 -207 242 -226 237 -231 c 1
 195 -229 167 -226 127 -226 c 0
 87 -226 60 -229 18 -231 c 1
 13 -226 14 -207 18 -202 c 1
 30 -202 80 -196 83 -185 c 0
 88 -169 88 -141 88 -110 c 2
 88 -110 88 309 88 309 c 2
 88 322 88 350 83 362 c 0
 76 379 23 381 16 381 c 1
 14 383 12 403 16 408 c 1xec
 68 415 122 429 163 451 c 1
 168 451 174 439 174 434 c 1
 173 427 167 400 167 392 c 0
 167 391 167 388 169 388 c 0
 170 388 171 389 172 390 c 0
 198 412 256 449 297 449 c 0xdc
253 388 m 0xdc
 211 388 167 362 167 348 c 2
 167 348 167 102 167 102 c 2
 167 49 226 28 262 28 c 0
 347 28 396 117 396 200 c 0
 396 322 331 388 253 388 c 0xdc
EndSplineSet
Validated: 1
Substitution2: "Crimson-Roman-'smcp' Lowercase to Small Capitals lookup 2-1" p.sc
EndChar
StartChar: q
Encoding: 307 113 306
Width: 508
VWidth: 1048
Flags: W
HStem: -232 29<285.404 350.012 443.013 508.596> -7 61<200.07 292.2> 412 37<211.391 324.448>
VStem: 40 86<136.659 296.6> 357 79<-195.876 51.178 71.2761 384.899>
LayerCount: 2
Back
Fore
SplineSet
262 412 m 0
 166 412 126 303 126 241 c 0
 126 120 190 54 275 54 c 0
 316 54 357 80 357 95 c 2
 357 95 357 340 357 340 c 2
 357 384 307 412 262 412 c 0
293 449 m 0
 324 449 381 423 415 423 c 0
 421 423 429 424 435 426 c 1
 441 426 449 408 449 403 c 1
 440 383 436 348 436 328 c 2
 436 328 436 -111 436 -111 c 2
 436 -142 436 -170 441 -186 c 0
 444 -197 494 -203 506 -203 c 1
 510 -208 511 -227 506 -232 c 1
 464 -230 436 -227 396 -227 c 0
 356 -227 330 -230 288 -232 c 1
 283 -227 284 -208 288 -203 c 1
 300 -203 349 -197 352 -186 c 0
 357 -170 357 -142 357 -111 c 2
 357 -111 357 41 357 41 c 2
 357 46 355 55 350 51 c 0
 335 38 266 -7 222 -7 c 0
 104 -7 40 113 40 204 c 0
 40 344 183 449 293 449 c 0
EndSplineSet
Validated: 1
Substitution2: "Crimson-Roman-'smcp' Lowercase to Small Capitals lookup 2-1" q.sc
EndChar
StartChar: r
Encoding: 308 114 307
Width: 392
VWidth: 1048
Flags: W
HStem: -3 30<34.4037 100.587 190.485 281.596> 369 78<258.895 318.163> 381 27<33.1812 95.6204>
VStem: 106 79<35.1203 327.671 337.953 372.73>
LayerCount: 2
Back
Fore
SplineSet
310 447 m 0xd0
 337 447 364 434 373 418 c 1
 375 412 377 401 377 390 c 0
 377 352 353 337 343 337 c 0
 329 337 316 349 305 356 c 0
 296 362 285 369 267 369 c 0xd0
 223 369 185 300 185 276 c 2
 185 276 185 119 185 119 c 2
 185 88 185 59 190 43 c 0
 193 32 267 27 279 27 c 1
 283 22 284 2 279 -3 c 1
 237 -1 192 2 152 2 c 0
 112 2 79 -1 37 -3 c 1
 32 2 33 22 37 27 c 1
 49 27 98 32 101 43 c 0
 106 59 106 88 106 119 c 2
 106 119 106 309 106 309 c 2
 106 322 106 350 101 362 c 0
 94 379 42 381 35 381 c 1
 33 383 31 403 35 408 c 1xb0
 87 415 140 429 181 451 c 1
 186 451 193 439 193 434 c 1
 192 427 185 351 185 340 c 0
 185 336 188 337 189 338 c 0
 209 382 264 447 310 447 c 0xd0
EndSplineSet
Validated: 1
Substitution2: "Crimson-Roman-'smcp' Lowercase to Small Capitals lookup 2-1" r.sc
EndChar
StartChar: s
Encoding: 309 115 308
Width: 377
VWidth: 1048
Flags: W
HStem: -11 33<130.662 228.457> 416 31<153.171 241.793>
VStem: 42 28<88.1783 120.544> 51 79<299.116 388.585> 254 83<57.39 147.973> 289 27<316.287 356.095>
LayerCount: 2
Back
Fore
SplineSet
200 447 m 0xd8
 240 447 259 439 304 434 c 1
 311 402 315 359 316 322 c 0
 316 318 311 316 306 316 c 0
 301 316 294 318 289 322 c 1
 279 360 247 416 203 416 c 0
 154 416 130 388 130 351 c 0xd4
 130 298 173 283 219 255 c 0
 265 227 337 195 337 130 c 0
 337 47 262 -11 179 -11 c 0
 132 -11 104 0 59 8 c 1
 51 30 42 88 42 115 c 1
 46 118 55 121 60 121 c 0
 63 121 67 121 70 119 c 1xe8
 82 76 126 22 180 22 c 0
 222 22 254 48 254 95 c 0
 254 157 188 178 129 213 c 0
 88 237 51 269 51 323 c 0
 51 399 124 447 200 447 c 0xd8
EndSplineSet
Validated: 1
Substitution2: "Crimson-Roman-'smcp' Lowercase to Small Capitals lookup 2-1" s.sc
EndChar
StartChar: t
Encoding: 310 116 309
Width: 318
VWidth: 1048
Flags: W
HStem: -7 55<180.933 257.529> 400 42<28.2793 85 164 299.268>
VStem: 85 79<66.4161 400 442 532.359>
LayerCount: 2
Back
Fore
SplineSet
164 442 m 1
 164 442 296 442 296 442 c 2
 301 442 301 437 301 431 c 0
 301 422 296 409 287 400 c 1
 287 400 164 400 164 400 c 1
 164 400 164 132 164 132 c 2
 164 78 186 48 231 48 c 0
 262 48 291 67 298 72 c 1
 300 71 301 68 301 65 c 0
 301 59 298 50 297 49 c 0
 283 33 241 -7 191 -7 c 0
 139 -7 85 15 85 103 c 2
 85 103 85 400 85 400 c 1
 85 400 26 400 26 400 c 2
 23 400 20 407 20 410 c 0
 20 414 46 441 47 442 c 1
 63 442 74 442 85 442 c 1
 85 453 85 499 85 507 c 1
 104 530 145 572 147 575 c 1
 152 580 164 581 164 577 c 2
 164 577 164 442 164 442 c 1
EndSplineSet
Validated: 1
Substitution2: "Crimson-Roman-'smcp' Lowercase to Small Capitals lookup 2-1" t.sc
EndChar
StartChar: u
Encoding: 311 117 310
Width: 527
VWidth: 1048
Flags: W
HStem: -7 57<200.564 291.799> 20 28<448.644 507.518> 403 27<14.7989 67.6576 290.799 343.405> 431 20G<139.5 160.5 414.5 435.5>
VStem: 83 79<94.6602 395.167> 358 79<73.9339 395.167>
LayerCount: 2
Back
Fore
SplineSet
358 328 m 2xbc
 358 341 358 368 350 383 c 0
 340 401 306 403 293 403 c 1
 290 406 289 425 293 430 c 1
 345 432 396 440 433 451 c 1
 438 451 444 431 444 426 c 1
 440 418 437 389 437 359 c 2
 437 359 437 312 437 312 c 0
 437 312 437 144 437 144 c 2
 437 133 438 96 444 67 c 0
 449 48 502 49 505 48 c 0
 507 47 508 40 508 37 c 0
 508 35 505 20 500 20 c 0x7c
 447 17 368 -8 367 -8 c 0
 362 -8 358 1 358 8 c 2
 358 8 358 55 358 55 c 2
 358 60 356 60 356 60 c 1
 327 29 263 -7 211 -7 c 0
 102 -7 83 111 83 197 c 2
 83 197 83 328 83 328 c 2
 83 341 83 368 75 383 c 0
 65 401 30 403 17 403 c 1
 14 406 13 425 17 430 c 1
 69 432 121 440 158 451 c 1
 163 451 169 435 169 430 c 1
 165 422 162 389 162 359 c 2
 162 359 162 315 162 315 c 0
 162 315 162 209 162 209 c 2
 162 100 192 50 264 50 c 0
 309 50 358 81 358 106 c 2
 358 106 358 328 358 328 c 2xbc
EndSplineSet
Validated: 1
Substitution2: "Crimson-Roman-'smcp' Lowercase to Small Capitals lookup 2-1" u.sc
EndChar
StartChar: v
Encoding: 312 118 311
Width: 484
VWidth: 1048
Flags: W
HStem: -11 21G<232 237> 411 29<0.308105 53.502 154.069 206.887 301.188 355.01 433.55 482.647>
LayerCount: 2
Back
Fore
SplineSet
104 435 m 0
 143 435 166 438 207 440 c 1
 209 434 208 411 203 411 c 1
 196 411 153 408 153 393 c 0
 153 392 153 391 154 389 c 0
 154 389 266 113 266 113 c 1
 266 113 318 249 357 345 c 0
 362 357 364 371 364 378 c 0
 364 398 339 411 304 411 c 1
 299 411 299 435 304 440 c 1
 336 438 345 435 387 435 c 0
 426 435 441 438 482 440 c 1
 486 434 483 411 479 411 c 1
 471 411 427 405 415 376 c 0
 355 232 320 151 261 6 c 0
 258 -2 240 -11 234 -11 c 0
 230 -11 226 -9 225 -7 c 0
 158 151 111 272 58 390 c 0
 49 410 14 411 2 411 c 1
 0 416 -2 430 2 440 c 1
 44 438 62 435 104 435 c 0
EndSplineSet
Validated: 1
Substitution2: "Crimson-Roman-'smcp' Lowercase to Small Capitals lookup 2-1" v.sc
EndChar
StartChar: w
Encoding: 313 119 312
Width: 738
VWidth: 1048
Flags: W
HStem: -11 21G<230 237.5 492 498> 411 29<0.244385 51.1295 156.415 206.716 273.074 316.711 429.383 477.307 551.229 606.525 686.008 737.257>
VStem: 346 78<314.201 388.259>
LayerCount: 2
Back
Fore
SplineSet
103 435 m 0
 142 435 165 438 206 440 c 1
 208 434 208 413 204 411 c 1
 196 411 153 409 153 387 c 0
 153 386 155 381 158 372 c 0
 170 339 206 255 263 120 c 1
 315 252 346 326 346 335 c 0
 346 342 335 372 322 391 c 0
 311 407 288 411 276 411 c 1
 271 414 271 435 276 440 c 1
 318 438 328 435 370 435 c 0
 409 435 435 438 476 440 c 1
 478 434 479 415 475 411 c 1
 443 411 424 403 424 378 c 0
 424 375 425 372 427 367 c 0
 435 339 464 268 520 123 c 1
 560 222 595 309 610 352 c 0
 614 363 615 373 615 377 c 0
 615 407 578 409 554 411 c 1
 550 414 549 435 554 440 c 1
 596 438 601 435 643 435 c 0
 682 435 696 438 737 440 c 1
 738 437 740 416 734 411 c 1
 726 411 677 405 665 374 c 0
 609 232 575 148 516 6 c 0
 513 -2 501 -11 495 -11 c 0
 489 -11 483 -9 482 -7 c 2
 482 -7 369 289 369 289 c 1
 369 289 258 8 258 8 c 2
 257 5 243 -11 232 -11 c 0
 228 -11 224 -9 223 -7 c 0
 160 152 125 235 57 388 c 0
 48 410 14 411 2 411 c 1
 -1 417 -1 434 2 440 c 1
 44 438 61 435 103 435 c 0
EndSplineSet
Validated: 1
Substitution2: "Crimson-Roman-'smcp' Lowercase to Small Capitals lookup 2-1" w.sc
EndChar
StartChar: x
Encoding: 314 120 313
Width: 487
VWidth: 1048
Flags: W
HStem: -3 30<10.8831 78.1465 151.787 207.125 266.633 311.272 421.143 479.774> 388 47<35.9312 92> 411 29<23.2969 82.439 186.631 229.653 272.46 330.262 391.611 460>
LayerCount: 2
Back
Fore
SplineSet
126 435 m 0xc0
 168 435 206 438 229 440 c 1
 230 436 232 417 227 411 c 1
 211 411 186 408 186 393 c 0
 186 390 188 386 191 381 c 2
 191 381 259 273 259 273 c 1
 287 316 332 371 332 391 c 0
 332 411 280 410 274 411 c 1
 272 412 271 436 274 440 c 1xa0
 316 438 336 435 378 435 c 0xc0
 415 435 446 438 460 440 c 1
 461 435 461 411 459 411 c 1xa0
 440 410 393 405 380 388 c 0
 343 337 287 257 278 246 c 1
 288 231 400 63 400 63 c 2
 420 33 449 27 479 27 c 1
 481 27 481 1 478 -3 c 1
 440 -1 420 2 382 2 c 0
 338 2 312 -1 268 -3 c 1
 265 4 266 27 269 27 c 1
 283 28 312 33 312 45 c 0
 312 47 311 49 310 51 c 2
 310 51 257 138 229 179 c 1
 210 149 185 114 156 69 c 0
 151 61 150 54 150 49 c 0
 150 30 182 29 206 27 c 1
 208 27 209 2 205 -3 c 1
 165 -1 148 2 108 2 c 0
 69 2 50 -1 11 -3 c 1
 9 5 10 22 13 27 c 1
 46 32 87 35 111 67 c 2
 111 67 206 204 211 211 c 1
 203 223 92 388 92 388 c 2xc0
 81 405 44 411 24 411 c 1
 22 411 22 434 25 440 c 1xa0
 59 437 86 435 126 435 c 0xc0
EndSplineSet
Validated: 1
Substitution2: "Crimson-Roman-'smcp' Lowercase to Small Capitals lookup 2-1" x.sc
EndChar
StartChar: y
Encoding: 315 121 314
Width: 480
VWidth: 1048
Flags: W
HStem: -233 73<45.3594 135.653> 411 29<0.747559 52.5449 153.093 206.887 296.188 349.305 428.782 478.352>
LayerCount: 2
Back
Fore
SplineSet
104 435 m 0
 143 435 190 438 207 440 c 1
 209 434 208 411 203 411 c 1
 196 411 152 408 152 393 c 0
 152 392 153 391 154 389 c 0
 154 389 262 113 262 113 c 1
 262 113 313 249 352 345 c 0
 357 357 358 371 358 378 c 0
 358 398 334 411 299 411 c 1
 294 411 294 435 299 440 c 1
 314 438 349 435 391 435 c 0
 430 435 457 438 477 440 c 1
 481 434 479 411 475 411 c 1
 467 411 422 405 410 376 c 0
 350 232 315 151 256 6 c 0
 230 -56 212 -122 175 -176 c 0
 151 -211 120 -233 86 -233 c 0
 67 -233 41 -226 41 -189 c 0
 41 -177 48 -166 53 -160 c 1
 101 -160 129 -156 170 -101 c 0
 186 -79 216 -9 219 2 c 1
 162 148 116 258 57 390 c 0
 48 410 14 411 2 411 c 1
 0 411 0 438 2 440 c 1
 21 438 62 435 104 435 c 0
EndSplineSet
Validated: 1
Substitution2: "Crimson-Roman-'smcp' Lowercase to Small Capitals lookup 2-1" y.sc
EndChar
StartChar: z
Encoding: 316 122 315
Width: 457
VWidth: 1048
Flags: W
HStem: 0 36<139 342.52> 122 12<402 429> 407 34<110.428 297.791> 430 20G<58.5 60 387 410.5>
LayerCount: 2
Back
Fore
SplineSet
152 441 m 2xe0
 152 441 283 441 283 441 c 2xe0
 338 441 366 445 408 450 c 1xd0
 413 442 411 430 411 425 c 1
 411 425 139 39 139 36 c 1
 139 36 283 36 283 36 c 2
 345 36 383 84 395 128 c 0
 396 133 398 134 402 134 c 0
 410 134 424 128 429 122 c 1
 429 122 398 47 383 0 c 1
 324 0 184 0 50 0 c 1
 43 2 35 12 35 20 c 0
 35 21 35 27 36 28 c 2
 36 28 299 406 299 406 c 1
 299 406 156 407 156 407 c 2xe0
 98 407 86 353 78 335 c 0
 76 331 65 326 55 326 c 0
 49 326 44 327 44 329 c 1
 48 344 57 396 60 450 c 1xd0
 60 450 115 441 152 441 c 2xe0
EndSplineSet
Validated: 1
Substitution2: "Crimson-Roman-'smcp' Lowercase to Small Capitals lookup 2-1" z.sc
EndChar
StartChar: braceleft
Encoding: 26 123 246
Width: 425
GlyphClass: 2
Flags: W
HStem: -37 22<269.269 323> 311 25<42 92.0977> 666 20<276.633 323>
VStem: 163 58<27.4778 271.995 375.134 617.953>
LayerCount: 2
Back
Fore
SplineSet
323 686 m 1
 323 686 323 666 323 666 c 1
 290 666 264 655 247 632 c 1
 230 615 221 587 221 548 c 2
 221 548 221 487 221 487 c 2
 221 436 215 400 203 377 c 0
 193 357 156 340 94 324 c 1
 146 313 181 298 197 279 c 0
 213 260 221 222 221 166 c 2
 221 166 221 99 221 99 c 2
 221 67 231 38 250 13 c 1
 260 -5 285 -14 323 -15 c 1
 323 -15 323 -37 323 -37 c 1
 323 -37 302 -37 302 -37 c 2
 272 -37 241 -25 209 -2 c 0
 197 7 186 22 177 45 c 0
 167 70 163 97 163 126 c 2
 163 126 163 188 163 188 c 2
 163 227 155 255 141 272 c 0
 124 292 91 305 42 311 c 1
 42 311 42 336 42 336 c 1
 90 344 122 357 140 374 c 0
 155 388 163 417 163 460 c 2
 163 460 163 522 163 522 c 2
 163 578 177 618 206 642 c 0
 240 671 279 685 323 686 c 1
EndSplineSet
Validated: 1
EndChar
StartChar: bar
Encoding: 317 124 316
Width: 209
VWidth: 1048
Flags: W
VStem: 79 52<-120.192 775>
LayerCount: 2
Back
Fore
SplineSet
131 -109 m 2
 131 -117 86 -126 84 -126 c 0
 77 -126 79 -122 79 -118 c 2
 79 -118 79 775 79 775 c 1
 79 775 78 781 84 783 c 0
 101 788 119 791 122 791 c 0
 131 791 130 784 130 784 c 1
 130 784 131 -109 131 -109 c 2
EndSplineSet
Validated: 1
Substitution2: "Crimson-Roman-'c2sc' Capitals to Small Capitals in Latin lookup 0 subtable" bar.sc
Substitution2: "Crimson-Roman-'smcp' Lowercase to Small Capitals lookup 2-1" bar.sc
EndChar
StartChar: braceright
Encoding: 27 125 242
Width: 425
GlyphClass: 2
Flags: W
HStem: -37 22<85 138.785> 311 25<311.671 366> 666 20<85 130.5>
VStem: 185 60<29.2067 273.156 374.207 617.691>
LayerCount: 2
Back
Fore
SplineSet
85 686 m 1
 129 685 168 671 202 642 c 0
 231 618 245 578 245 522 c 2
 245 522 245 460 245 460 c 2
 245 418 252 389 268 373 c 0
 284 357 317 344 366 336 c 1
 366 336 366 311 366 311 c 1
 314 304 280 291 266 272 c 0
 252 256 245 228 245 188 c 2
 245 188 245 126 245 126 c 2
 245 97 240 70 230 45 c 0
 221 22 211 7 199 -2 c 0
 166 -25 134 -37 105 -37 c 2
 105 -37 85 -37 85 -37 c 1
 85 -37 85 -15 85 -15 c 1
 123 -14 148 -5 158 13 c 0
 176 39 185 68 185 99 c 2
 185 99 185 166 185 166 c 2
 185 222 194 260 211 279 c 0
 225 298 258 313 313 324 c 1
 251 340 215 357 205 377 c 0
 192 402 185 438 185 487 c 2
 185 487 185 548 185 548 c 2
 185 583 177 611 160 633 c 0
 143 655 118 666 85 666 c 1
 85 666 85 686 85 686 c 1
EndSplineSet
Validated: 1
EndChar
StartChar: asciitilde
Encoding: 318 126 317
Width: 583
VWidth: 1048
Flags: W
HStem: 256 52<324.959 482.467> 310 52<108.797 267.926>
LayerCount: 2
Back
Fore
SplineSet
278 284 m 0
 242 297 206 310 160 310 c 0
 120 310 92 288 67 265 c 1
 61 268 57 275 57 283 c 0
 57 321 136 362 190 362 c 0
 238 362 275 348 312 335 c 0
 348 322 384 308 432 308 c 0
 472 308 494 329 524 353 c 1
 530 350 534 344 534 336 c 0
 534 302 465 256 402 256 c 0
 352 256 316 270 278 284 c 0
EndSplineSet
Validated: 1
Substitution2: "Crimson-Roman-'c2sc' Capitals to Small Capitals in Latin lookup 0 subtable" asciitilde.sc
Substitution2: "Crimson-Roman-'smcp' Lowercase to Small Capitals lookup 2-1" asciitilde.sc
EndChar
StartChar: exclamdown
Encoding: 320 161 319
Width: 220
VWidth: 1048
Flags: W
HStem: 328 112<65.9218 154.694>
VStem: 54 113<339.538 427.694> 60 97<-217.815 92.469>
LayerCount: 2
Back
Fore
SplineSet
54 383 m 0xc0
 54 414 79 440 110 440 c 0
 141 440 167 414 167 383 c 0
 167 352 141 328 110 328 c 0
 79 328 54 352 54 383 c 0xc0
105 -228 m 0
 73 -228 60 -196 60 -169 c 0
 60 -140 73 -3 95 253 c 1
 99 261 103 265 112 266 c 1
 117 264 123 261 126 255 c 1
 140 90 157 -117 157 -169 c 0xa0
 157 -198 138 -228 105 -228 c 0
EndSplineSet
Validated: 1
Substitution2: "Crimson-Roman-'c2sc' Capitals to Small Capitals in Latin lookup 0 subtable" exclamdown.sc
Substitution2: "Crimson-Roman-'smcp' Lowercase to Small Capitals lookup 2-1" exclamdown.sc
EndChar
StartChar: cent
Encoding: 321 162 320
Width: 456
VWidth: 1048
Flags: W
HStem: -8 67<202.811 334.126> 403 46<203.983 303.591>
VStem: 46 80<135.425 295.906> 194 28<-44.416 -1.89572> 279 28<438.98 481.975>
LayerCount: 2
Back
Fore
SplineSet
279 483 m 17
 287 483 307 484 307 477 c 1
 307 477 222 -46 222 -46 c 1
 213 -46 194 -46 194 -39 c 9
 194 -39 279 483 279 483 c 17
EndSplineSet
Refer: 292 99 N 1 0 0 1 6 0 2
Validated: 5
EndChar
StartChar: sterling
Encoding: 322 163 321
Width: 488
VWidth: 1048
UnlinkRmOvrlpSave: 1
Flags: W
HStem: -8 67<246.113 366.245> 50 58<102.484 183.153> 313 37<69.832 387.738> 604 47<244.594 340>
VStem: 128 79<352.462 520.891> 152 76<194.998 351.66> 437 14<130.547 137.278>
LayerCount: 2
Back
Fore
SplineSet
322 651 m 0x7a
 358 651 370 643 395 627 c 1
 399 623 406 608 406 598 c 0
 406 561 384 549 367 549 c 1
 344 549 327 573 312 587 c 0
 297 601 289 604 276 604 c 0
 223 604 207 541 207 470 c 0x7a
 207 394 228 336 228 279 c 0
 228 202 163 123 137 99 c 1
 151 106 162 108 173 108 c 0x76
 229 108 244 59 335 59 c 0
 391 59 428 124 437 142 c 1
 438 142 451 134 451 126 c 0
 451 122 449 117 447 111 c 0
 436 78 378 -8 298 -8 c 0xb6
 211 -8 172 50 119 50 c 0
 87 50 78 10 61 -6 c 1
 53 -6 45 7 45 16 c 0
 45 46 81 81 96 96 c 0
 125 125 152 187 152 237 c 0x76
 152 259 129 376 128 409 c 0
 124 548 226 651 322 651 c 0x7a
80 350 m 1
 96 350 379 350 390 350 c 1
 404 339 387 317 381 313 c 1
 381 313 56 313 56 313 c 17
 50 319 71 350 80 350 c 1
EndSplineSet
EndChar
StartChar: currency
Encoding: 323 164 322
Width: 587
VWidth: 1048
Flags: W
HStem: 123 33<251.342 349.601> 474 34<234.954 333.732>
VStem: 104 75<231.247 405.596> 404 74<224.16 400.442>
LayerCount: 2
Back
Fore
SplineSet
301 156 m 0
 363 156 404 224 404 301 c 0
 404 395 349 474 284 474 c 0
 222 474 179 404 179 327 c 0
 179 233 236 156 301 156 c 0
408 466 m 1
 408 466 468 522 468 522 c 2
 476 530 503 502 510 477 c 1
 510 477 449 420 449 420 c 1
 467 389 478 352 478 314 c 0
 478 273 466 236 444 204 c 1
 444 204 500 144 500 144 c 2
 508 136 480 109 455 102 c 1
 455 102 401 159 401 159 c 1
 370 136 334 123 293 123 c 0
 249 123 208 138 176 164 c 1
 176 164 122 113 122 113 c 2
 114 105 87 133 80 158 c 1
 80 158 135 210 135 210 c 1
 116 241 104 276 104 314 c 0
 104 359 118 400 143 433 c 1
 143 433 90 490 90 490 c 2
 82 498 110 525 135 532 c 1
 135 532 188 476 188 476 c 1
 218 496 254 508 293 508 c 0
 337 508 376 493 408 466 c 1
EndSplineSet
Validated: 33
EndChar
StartChar: yen
Encoding: 324 165 323
Width: 688
VWidth: 1048
UnlinkRmOvrlpSave: 1
Flags: W
HStem: -3 30<229.404 302.566 402.434 475.596> 141 38<218.68 492.671> 223 38<218.68 492.671> 626 29<28.1875 82.951 236.546 291.161 439.728 507.045 595.129 658.413>
VStem: 308 89<34.0745 119 119.054 304.167>
LayerCount: 2
Back
Fore
SplineSet
228 179 m 1
 244 179 486 179 497 179 c 1
 511 168 492 145 486 141 c 1
 486 141 208 141 208 141 c 17
 202 147 219 179 228 179 c 1
228 261 m 1
 244 261 486 261 497 261 c 1
 511 250 492 227 486 223 c 1
 486 223 208 223 208 223 c 17
 202 229 219 261 228 261 c 1
308 119 m 2
 308 119 308 251 308 251 c 0
 308 258 306 270 301 280 c 16
 242 388 216 430 156 539 c 0
 134 577 117 593 88 609 c 0
 71 619 43 626 31 626 c 0
 26 626 26 650 31 655 c 1
 81 653 109 650 159 650 c 0
 209 650 249 653 290 655 c 1
 292 649 293 626 288 626 c 0
 274 626 226 620 226 593 c 0
 226 585 231 575 239 562 c 2
 239 562 381 318 381 318 c 1
 431 408 502 549 516 584 c 0
 517 587 519 593 519 599 c 0
 519 605 499 625 442 625 c 1
 439 625 438 651 440 654 c 1
 478 652 508 649 546 649 c 0
 599 649 617 652 658 654 c 1
 660 648 659 625 656 625 c 1
 648 625 589 625 565 584 c 0
 526 515 447 368 403 286 c 8
 397 275 398 263 398 254 c 0
 398 193 397 119 397 119 c 2
 397 88 397 59 402 43 c 0
 405 32 461 27 473 27 c 1
 477 22 478 2 473 -3 c 1
 431 -1 393 2 353 2 c 0
 313 2 274 -1 232 -3 c 1
 227 2 228 22 232 27 c 1
 244 27 300 32 303 43 c 0
 308 59 308 88 308 119 c 2
EndSplineSet
EndChar
StartChar: brokenbar
Encoding: 325 166 324
Width: 219
VWidth: 1048
Flags: W
VStem: 84 52<-121.239 255 399.284 775>
LayerCount: 2
Back
Fore
SplineSet
136 410 m 2
 136 402 91 394 89 394 c 0
 82 394 84 398 84 402 c 2
 84 402 84 775 84 775 c 1
 84 775 83 781 89 783 c 0
 106 788 125 788 128 788 c 0
 137 788 136 782 136 782 c 1
 136 782 136 410 136 410 c 2
84 -118 m 2
 84 -118 84 255 84 255 c 1
 84 255 83 261 89 263 c 0
 106 268 125 268 128 268 c 0
 137 268 136 262 136 262 c 1
 136 262 136 -111 136 -111 c 2
 136 -119 91 -126 89 -126 c 0
 82 -126 84 -122 84 -118 c 2
EndSplineSet
Validated: 1
EndChar
StartChar: section
Encoding: 326 167 325
Width: 451
VWidth: 1048
UnlinkRmOvrlpSave: 1
Flags: W
HStem: -80 51<115.224 243.717> 617 52<208.083 337.276>
VStem: 39 55<362.154 480.819> 135 35<518.273 555> 283 47<6.85376 80.7646> 283 34<34 70.7275> 358 56<108.181 226.846>
LayerCount: 2
Back
Fore
SplineSet
311 669 m 0xf6
 196 669 123 601 123 519 c 0
 123 445 195 388 244 343 c 0
 299 292 358 223 358 138 c 0
 358 93 340 73 317 34 c 0
 317 34 293 14 283 -3 c 24
 277 -14 278 -24 276 -36 c 17
 315 -9 414 107 414 183 c 0
 414 271 348 343 295 392 c 0
 247 436 170 515 170 562 c 0
 170 601 221 617 253 617 c 0
 268 617 278 613 286 609 c 0
 296 604 306 597 323 597 c 0
 339 597 359 620 359 634 c 0
 359 640 358 650 353 660 c 1
 339 666 325 669 311 669 c 0xf6
141 -80 m 0
 127 -80 113 -78 99 -72 c 1
 94 -62 93 -51 93 -45 c 0
 93 -31 114 -8 130 -8 c 0
 147 -8 157 -15 167 -20 c 0
 175 -24 185 -29 200 -29 c 0
 232 -29 283 -12 283 27 c 0
 283 74 206 153 158 197 c 0
 105 246 39 318 39 406 c 0
 39 482 137 598 176 625 c 9
 174 613 176 603 170 592 c 24
 160 575 135 555 135 555 c 0
 112 516 94 496 94 451 c 0
 94 366 154 297 209 246 c 0
 258 201 330 144 330 70 c 0xfa
 330 -12 256 -80 141 -80 c 0
EndSplineSet
EndChar
StartChar: dieresis
Encoding: 327 168 326
Width: 386
VWidth: 1048
Flags: W
HStem: 482 94<59.9831 140.312 246.983 327.312>
VStem: 52 96<489.699 567.668> 239 96<489.699 567.668>
LayerCount: 2
Back
Fore
SplineSet
288 576 m 128
 314 576 335 554 335 528 c 128
 335 502 313 482 287 482 c 128
 261 482 239 503 239 529 c 128
 239 555 262 576 288 576 c 128
101 576 m 128
 127 576 148 554 148 528 c 128
 148 502 126 482 100 482 c 128
 74 482 52 503 52 529 c 128
 52 555 75 576 101 576 c 128
EndSplineSet
Validated: 1
EndChar
StartChar: copyright
Encoding: 328 169 327
Width: 674
VWidth: 1048
Flags: W
HStem: 71 31<253.421 421.64> 200 32<304.458 424.861> 460 35<297.458 414.737> 598 32<253.421 421.64>
VStem: 57 34<262.64 437.414> 191 59<278.018 419.159> 443 24<403.494 427.662> 586 31<265.906 434.14>
LayerCount: 2
Back
Fore
SplineSet
467 283 m 1
 467 280 453 222 446 219 c 0
 413 206 381 200 338 200 c 0
 255 200 191 263 191 344 c 0
 191 426 251 495 336 495 c 0
 367 495 416 488 451 475 c 1
 451 475 467 417 467 413 c 0
 467 408 458 403 451 403 c 0
 448 403 445 405 443 406 c 1
 440 419 421 460 348 460 c 0
 293 460 250 409 250 353 c 0
 250 270 310 232 357 232 c 0
 388 232 418 240 431 252 c 0
 443 263 444 286 446 286 c 0
 449 286 466 285 467 283 c 1
91 350 m 0
 91 214 202 102 338 102 c 0
 474 102 586 214 586 350 c 0
 586 486 474 598 338 598 c 0
 202 598 91 486 91 350 c 0
57 350 m 0
 57 505 182 630 337 630 c 0
 492 630 617 505 617 350 c 0
 617 195 492 71 337 71 c 0
 182 71 57 195 57 350 c 0
EndSplineSet
Validated: 1
EndChar
StartChar: ordfeminine
Encoding: 329 170 328
Width: 353
VWidth: 1048
Flags: W
HStem: 255 38<117.651 177.603 251 301.018> 539 30<129.947 195.198>
VStem: 48 58<301.42 382.521> 58 58<466.573 511.854> 216 54<307.221 415 432.314 525.177>
LayerCount: 2
Back
Fore
SplineSet
155 293 m 0xe8
 180 293 216 321 216 328 c 2
 216 328 216 415 216 415 c 17
 197 409 163 399 151 394 c 0
 125 384 106 370 106 343 c 0
 106 316 128 293 155 293 c 0xe8
193 569 m 0
 233 569 270 527 270 473 c 2
 270 473 270 327 270 327 c 2
 270 308 276 293 292 293 c 0
 304 293 313 301 315 302 c 1
 317 302 318 299 318 297 c 0
 318 293 316 287 314 284 c 1
 306 276 276 256 261 256 c 0
 241 256 222 280 218 302 c 1
 210 294 156 255 131 255 c 0
 84 255 48 291 48 337 c 0xe8
 48 366 69 387 84 393 c 0
 124 407 188 429 208 438 c 0
 215 441 216 444 216 456 c 2
 216 456 216 475 216 475 c 2
 216 507 195 539 156 539 c 0
 131 539 121 527 116 499 c 0
 112 474 100 465 83 465 c 0
 68 465 58 481 58 495 c 0xd8
 58 498 60 509 63 512 c 1
 85 532 141 569 193 569 c 0
EndSplineSet
Validated: 1
EndChar
StartChar: guillemotleft
Encoding: 330 171 329
Width: 493
VWidth: 1048
Flags: W
LayerCount: 2
Back
Fore
SplineSet
212 252 m 0
 212 262 213 261 217 270 c 1
 351 351 430 432 431 433 c 1
 447 428 452 424 454 421 c 1
 448 399 349 295 302 253 c 1
 349 211 448 107 454 85 c 1
 452 82 447 78 431 73 c 1
 430 74 351 155 217 236 c 1
 215 239 212 246 212 252 c 0
28 252 m 0
 28 262 29 261 33 270 c 1
 167 351 246 432 247 433 c 1
 263 428 267 424 269 421 c 1
 263 399 165 295 118 253 c 1
 165 211 263 107 269 85 c 1
 267 82 263 78 247 73 c 1
 246 74 167 155 33 236 c 1
 31 239 28 246 28 252 c 0
EndSplineSet
Validated: 1
EndChar
StartChar: logicalnot
Encoding: 331 172 330
Width: 601
VWidth: 1048
Flags: W
HStem: 373 57<52 467>
VStem: 467 61<163.205 373>
LayerCount: 2
Back
Fore
SplineSet
528 430 m 17
 528 430 528 173 528 173 c 17
 527 172 500 158 480 158 c 0
 480 158 470 159 467 165 c 1
 467 188 467 292 467 373 c 9
 467 373 52 373 52 373 c 1
 52 373 46 373 46 383 c 1
 46 383 51 430 61 430 c 2
 61 430 528 430 528 430 c 17
EndSplineSet
Validated: 1
EndChar
StartChar: registered
Encoding: 332 174 331
Width: 674
VWidth: 1048
Flags: W
HStem: 136 33<253.421 421.64> 280 14<209.5 240.936 293.064 324.5 458.961 488> 413 18<291 320.793> 549 17<209.83 240.936 293.102 348.097> 664 32<253.421 421.64>
VStem: 57 34<329.533 504.299> 243 48<301.332 413 431 544.758> 374 49<441.624 538.855> 586 31<332.813 501.033>
LayerCount: 2
Back
Fore
SplineSet
331 566 m 4
 370 566 423 539 423 490 c 4
 423 459 397 431 367 420 c 5
 390 382 411 352 440 317 c 4
 453 301 465 296 489 294 c 5
 491 292 488 281 488 280 c 5
 459 280 427 282 419 285 c 4
 413 287 401 290 391 303 c 4
 385 311 347 366 319 408 c 4
 316 412 312 413 306 413 c 4
 306 413 295 413 291 413 c 5
 291 413 291 333 291 333 c 5
 291 320 291 308 293 301 c 4
 294 296 318 294 323 294 c 5
 325 292 325 282 323 280 c 5
 306 281 283 282 267 282 c 4
 251 282 228 281 211 280 c 5
 209 282 209 292 211 294 c 5
 216 294 240 296 241 301 c 4
 243 308 243 320 243 333 c 6
 243 333 243 514 243 514 c 6
 243 526 243 539 241 546 c 4
 240 551 216 553 211 553 c 5
 209 555 209 565 211 567 c 5
 228 566 253 565 269 565 c 4
 285 565 305 566 331 566 c 4
374 480 m 4
 374 519 362 549 314 549 c 4
 309 549 295 549 293 545 c 4
 291 540 291 525 291 512 c 6
 291 512 291 431 291 431 c 5
 291 431 302 431 309 431 c 20
 346 431 374 446 374 480 c 4
91 417 m 4
 91 281 202 169 338 169 c 4
 474 169 586 281 586 417 c 4
 586 553 474 664 338 664 c 4
 202 664 91 553 91 417 c 4
57 417 m 4
 57 572 182 696 337 696 c 4
 492 696 617 572 617 417 c 4
 617 262 492 136 337 136 c 4
 182 136 57 262 57 417 c 4
EndSplineSet
Validated: 1
EndChar
StartChar: macron
Encoding: 333 175 332
Width: 346
VWidth: 1048
Flags: W
HStem: 510 43<56.8889 289.599>
LayerCount: 2
Back
Fore
SplineSet
285 510 m 1
 238 510 133 510 56 510 c 1
 46 514 53 547 62 553 c 9
 151 553 203 553 292 553 c 1
 299 548 295 521 285 510 c 1
EndSplineSet
Validated: 1
EndChar
StartChar: degree
Encoding: 334 176 333
Width: 280
VWidth: 1048
Flags: W
HStem: 447 38<95.9638 184.036> 611 38<94.3424 185.658>
VStem: 39 38<504.617 592.69> 203 38<504.617 592.69>
LayerCount: 2
Back
Fore
SplineSet
77 549 m 0
 77 514 105 485 140 485 c 0
 175 485 203 514 203 549 c 0
 203 584 175 611 140 611 c 0
 105 611 77 584 77 549 c 0
39 549 m 0
 39 604 85 649 140 649 c 0
 195 649 241 604 241 549 c 0
 241 494 195 447 140 447 c 0
 85 447 39 494 39 549 c 0
EndSplineSet
Validated: 1
EndChar
StartChar: plusminus
Encoding: 335 177 334
Width: 561
VWidth: 1048
Flags: W
HStem: 6 57<41 521.817> 312 58<41 251 308 521.817>
VStem: 251 57<96.2807 312 370 580>
LayerCount: 2
Back
Fore
SplineSet
50 63 m 1
 132 63 469 63 517 63 c 0
 521 63 526 59 526 51 c 0
 526 35 518 14 510 6 c 1
 510 6 41 6 41 6 c 1
 41 6 35 6 35 16 c 0
 35 20 40 55 50 63 c 1
50 370 m 1
 50 370 251 370 251 370 c 9
 251 370 251 555 251 574 c 1
 267 580 288 586 295 586 c 0
 305 586 308 580 308 580 c 1
 308 580 308 370 308 370 c 25
 390 370 435 370 517 370 c 16
 521 370 526 365 526 357 c 0
 526 341 518 320 510 312 c 1
 510 312 308 312 308 312 c 25
 308 312 308 184 308 105 c 1
 296 96 274 94 264 94 c 0
 257 94 251 99 251 103 c 2
 251 103 251 312 251 312 c 25
 251 312 41 312 41 312 c 1
 41 312 35 313 35 323 c 0
 35 327 40 362 50 370 c 1
EndSplineSet
Validated: 1
EndChar
StartChar: uni00B2
Encoding: 336 178 335
Width: 366
VWidth: 1048
Flags: W
HStem: 260 56<124 289.212> 616 47<119.224 215.335>
VStem: 232 67<483.747 600.146>
LayerCount: 2
Back
Fore
SplineSet
328 369 m 1
 317 339 304 294 290 260 c 1
 290 260 52 260 52 260 c 1
 46 260 38 268 40 272 c 1
 81 317 142 372 184 428 c 0
 213 466 232 506 232 543 c 0
 232 586 208 616 165 616 c 0
 119 616 94 589 76 566 c 1
 72 562 57 579 58 584 c 1
 82 625 130 663 177 663 c 0
 249 663 299 618 299 553 c 0
 299 519 283 487 252 450 c 0
 224 417 173 366 124 316 c 1
 124 316 247 316 247 316 c 2
 289 316 302 362 308 372 c 0
 309 374 310 374 313 375 c 0
 316 375 325 373 328 369 c 1
EndSplineSet
Validated: 1
EndChar
StartChar: uni00B3
Encoding: 337 179 336
Width: 325
VWidth: 1048
Flags: W
HStem: 255 29<110.292 191.879> 457 21<102.153 135.65> 622 40<105.074 184.247>
VStem: 198 57<526.015 610.202> 222 66<321.489 437.802>
LayerCount: 2
Back
Fore
SplineSet
166 662 m 0xf0
 209 662 255 635 255 583 c 0xf0
 255 538 219 508 196 498 c 1
 223 498 288 463 288 395 c 0
 288 305 210 255 121 255 c 0
 98 255 62 261 52 270 c 1
 52 270 40 282 40 295 c 0
 40 315 56 329 72 329 c 0
 89 329 97 311 109 299 c 0
 119 289 133 284 148 284 c 0
 191 284 222 315 222 377 c 0xe8
 222 427 186 465 148 465 c 0
 130 465 113 458 108 457 c 1
 106 459 103 464 102 468 c 0
 101 472 101 476 102 478 c 1
 152 488 198 519 198 569 c 0
 198 596 172 622 145 622 c 0
 107 622 80 590 74 584 c 1
 69 586 64 599 65 600 c 1
 79 622 112 662 166 662 c 0xf0
EndSplineSet
Validated: 1
EndChar
StartChar: acute
Encoding: 338 180 337
Width: 266
VWidth: 1048
Flags: W
HStem: 537 164
VStem: 51 164
LayerCount: 2
Back
Fore
SplineSet
178 701 m 0
 214 701 215 676 215 671 c 0
 215 638 71 537 61 537 c 0
 54 537 51 544 51 550 c 128
 51 556 118 652 151 693 c 0
 152 694 164 701 178 701 c 0
EndSplineSet
Validated: 1
EndChar
StartChar: uni00B5
Encoding: 339 181 338
Width: 553
VWidth: 1048
Flags: W
HStem: -232 21G<129 140> -9 75<171.444 256.579 421.829 479.811> 427 20G<116 127 364 375>
VStem: 97 79<256.235 432.656> 97 44<111.408 228> 345 79<264.521 432.656>
LayerCount: 2
Back
Fore
SplineSet
147 228 m 0xf4
 147 147 163 66 200 66 c 0
 269 66 319 158 345 232 c 1
 345 257 345 281 345 305 c 0
 345 318 346 388 345 427 c 1
 350 435 358 447 370 447 c 0
 380 447 424 423 424 410 c 0
 424 392 414 343 400 252 c 0
 398 242 390 200 390 200 c 1
 390 127 415 68 462 68 c 0
 489 68 507 89 514 98 c 1
 517 98 520 94 523 89 c 0
 525 85 526 81 526 78 c 0
 513 33 472 -4 431 -4 c 0
 382 -3 367 117 365 145 c 1
 334 73 278 -9 206 -9 c 0
 163 -9 146 72 141 103 c 1xec
 143 77 136 -91 159 -212 c 1
 154 -220 146 -232 134 -232 c 0
 124 -232 80 -208 80 -195 c 0
 80 -177 89 103 101 209 c 1
 101 234 97 281 97 305 c 0
 97 318 98 388 97 427 c 1
 102 435 110 447 122 447 c 0
 132 447 176 423 176 410 c 0
 176 392 172 343 153 252 c 0
 152 246 147 228 147 228 c 0xf4
EndSplineSet
Validated: 33
EndChar
StartChar: paragraph
Encoding: 340 182 339
Width: 495
VWidth: 1048
Flags: W
HStem: -4 28<160.918 220.661 380.359 442.252> 2 35<274.061 326.94> 295 41<271 329> 306 41<371 400.484> 626 38<271.286 329.804>
VStem: 35 236<401.07 569.185> 231 40<43.7595 294> 330 41<43.7595 299 347 625.382>
LayerCount: 2
Back
Fore
SplineSet
330 341 m 1x2b
 330 378 330 608 330 621 c 1
 326 625 310 626 300 626 c 0
 290 626 277 626 271 620 c 9
 271 620 271 440 271 336 c 1
 277 336 326 338 330 341 c 1x2b
329 299 m 17
 315 298 287 296 271 295 c 9
 271 226 271 188 271 119 c 20
 271 88 271 59 274 43 c 4
 275 36 296 37 300 37 c 4x6b
 307 37 326 37 327 43 c 4
 330 59 330 88 330 119 c 6
 330 119 329 299 329 299 c 17
370 306 m 1x9d
 370 233 370 192 370 119 c 16
 370 88 370 59 375 43 c 0
 378 32 429 24 441 24 c 1
 443 24 443 -2 441 -4 c 1x9d
 376 -2 369 2 304 2 c 0x4d
 257 2 203 -2 162 -4 c 1
 160 2 159 20 164 24 c 1
 172 24 223 32 226 43 c 0
 231 59 231 88 231 119 c 2
 231 119 231 294 231 294 c 17x8b
 100 294 35 408 35 480 c 0
 35 592 126 668 210 668 c 0
 270 668 249 664 309 664 c 0
 378 664 433 669 433 669 c 1
 438 664 437 642 432 639 c 1
 417 639 379 630 374 618 c 0
 372 611 371 605 371 553 c 0
 371 491 371 366 371 347 c 1
 376 346 421 360 421 360 c 1
 426 360 431 358 431 354 c 0
 430 344 408 319 401 316 c 0
 390 311 378 307 370 306 c 1x9d
EndSplineSet
Validated: 33
EndChar
StartChar: periodcentered
Encoding: 341 183 340
Width: 229
VWidth: 1048
Flags: W
HStem: 210 120<68.7454 160.661>
VStem: 55 119<223.745 316.255>
LayerCount: 2
Back
Fore
SplineSet
55 270 m 0
 55 303 82 330 115 330 c 0
 148 330 174 303 174 270 c 0
 174 237 148 210 115 210 c 0
 82 210 55 237 55 270 c 0
EndSplineSet
Validated: 1
EndChar
StartChar: cedilla
Encoding: 342 184 341
Width: 236
VWidth: 1048
Flags: W
HStem: -156 25<70.4495 137.941> -62 34<115 143.63>
VStem: 148 38<-125.249 -65.3957>
LayerCount: 2
Back
Fore
SplineSet
115 -28 m 129
 115 -28 140 -28 140 -28 c 2
 167 -28 186 -51 186 -78 c 0
 186 -126 142 -156 89 -156 c 0
 77 -156 60 -150 54 -146 c 1
 53 -141 51 -138 51 -132 c 0
 51 -125 60 -118 66 -118 c 0
 78 -118 88 -131 104 -131 c 0
 133 -131 148 -114 148 -97 c 0
 148 -72 129 -62 116 -62 c 0
 105 -62 99 -66 89 -70 c 0
 87 -70 77 -60 79 -56 c 0
 88 -41 104 -18 112 -4 c 1
 112 -4 133 -4 133 -4 c 129
 133 -4 115 -28 115 -28 c 129
EndSplineSet
Validated: 1
EndChar
StartChar: uni00B9
Encoding: 343 185 342
Width: 299
VWidth: 1048
Flags: W
HStem: 259 26<58.8689 118.986 212.289 264.819>
VStem: 126 76<300.747 581.657>
LayerCount: 2
Back
Fore
SplineSet
126 530 m 2
 126 577 117 583 106 583 c 0
 94 583 69 573 49 566 c 1
 43 569 40 578 40 584 c 0
 40 587 41 591 43 592 c 0
 152 637 194 668 197 668 c 2
 197 668 199 668 199 668 c 2
 205 668 210 647 211 644 c 1
 211 644 202 601 202 561 c 2
 202 561 202 348 202 348 c 2
 202 328 203 316 210 300 c 0
 213 293 255 286 263 286 c 1
 266 286 266 263 263 259 c 1
 223 260 205 262 165 262 c 0
 125 262 102 260 62 259 c 1
 57 262 57 285 62 285 c 0
 74 285 117 292 120 299 c 0
 125 312 126 336 126 346 c 2
 126 346 126 530 126 530 c 2
EndSplineSet
Validated: 1
EndChar
StartChar: ordmasculine
Encoding: 344 186 343
Width: 397
VWidth: 1048
Flags: W
HStem: 253 25<167.847 244.88> 543 24<152.856 230.745>
VStem: 39 71<331.872 488.532> 288 70<331.712 492.114>
LayerCount: 2
Back
Fore
SplineSet
191 543 m 0
 132 543 110 478 110 421 c 0
 110 353 141 278 209 278 c 0
 265 278 288 344 288 400 c 0
 288 467 258 543 191 543 c 0
201 567 m 0
 290 567 358 498 358 413 c 0
 358 328 290 253 201 253 c 0
 112 253 39 324 39 409 c 0
 39 496 110 567 201 567 c 0
EndSplineSet
Validated: 1
EndChar
StartChar: next_page
Encoding: 28 187 239
Width: 823
GlyphClass: 2
Flags: W
HStem: -16 28<369.96 462.846> -2 75<488.375 544.975> 32 30<140 175> 60 40<213.142 299.127> 112 5<488.523 510.042> 139 29<411.514 483.65> 196 32<415.351 466.886> 239 31<554 737.557> 308 28<140 175> 343 29<305.438 420.164 463.526 734.092>
VStem: 33 107<62 308> 175 38<100 273> 342 42<170 224.765> 465 4<92.0938 101.952> 562 31<84.6049 118> 577 16<154.218 185.725> 744 32<284.571 334.79>
LayerCount: 2
Back
Fore
SplineSet
140 62 m 1x2ffc80
 140 62 175 62 175 62 c 1
 175 62 175 308 175 308 c 1
 175 308 140 308 140 308 c 1
 140 308 140 62 140 62 c 1x2ffc80
539 206 m 1
 527 178 506 158 477 146 c 0
 465 141 452 139 439 139 c 0
 431 139 422 140 411 143 c 1
 418 119 430 102 449 90 c 0
 468 78 485 73 500 73 c 0x4ffd80
 511 73 522 74 533 78 c 0
 544 82 553 88 560 96 c 0
 561 97 562 99 562 100 c 0x1ffe80
 562 108 549 112 522 112 c 0
 518 112 505 111 482 109 c 0
 475 107 471 104 468 102 c 1
 468 102 464 135 464 135 c 2
 466 123 474 117 490 117 c 0
 508 117 528 123 547 136 c 0
 566 149 577 160 577 170 c 0x1ffd80
 577 173 575 177 573 180 c 0
 565 194 554 203 539 206 c 1
344 203 m 2
 343 207 342 209 342 210 c 0
 342 215 344 221 348 226 c 0
 352 231 357 234 362 234 c 0
 366 234 372 231 378 225 c 0
 382 220 384 214 384 206 c 2
 384 206 384 170 384 170 c 1
 384 170 463 168 463 168 c 1
 487 181 506 201 522 230 c 0
 528 246 533 260 535 270 c 1
 535 270 702 270 702 270 c 2
 724 270 737 278 742 293 c 0
 743 296 743 299 744 302 c 0
 744 312 741 321 733 330 c 0
 725 339 717 343 708 343 c 2
 708 343 498 343 498 343 c 2
 491 344 481 347 467 355 c 0
 461 359 454 365 447 372 c 1
 447 372 702 372 702 372 c 2
 720 372 738 366 753 353 c 0
 768 340 776 325 776 307 c 0
 776 269 758 247 722 239 c 1
 722 239 554 239 554 239 c 1
 554 239 567 212 567 212 c 1
 581 205 590 194 593 180 c 1x8ffd80
 593 164 590 153 585 146 c 1
 590 134 593 123 593 113 c 0
 593 104 590 94 585 83 c 1
 585 83 552 68 552 68 c 1
 554 62 555 55 555 50 c 0
 555 44 554 38 552 33 c 0
 543 10 522 -2 489 -2 c 1x4ffe80
 466 -12 443 -16 418 -16 c 0
 393 -16 368 -12 344 -4 c 1
 315 39 277 60 231 60 c 0x9ffe80
 221 60 216 60 213 59 c 2
 213 59 206 32 206 32 c 1x2ffe80
 206 32 33 33 33 33 c 1
 33 33 33 336 33 336 c 1
 33 336 227 336 227 336 c 1
 249 348 264 354 272 357 c 0
 301 367 326 373 344 374 c 2
 344 374 407 376 407 376 c 1
 440 368 466 352 488 325 c 0
 505 304 517 280 522 254 c 1
 517 232 505 217 489 207 c 0
 477 199 466 196 454 196 c 0
 440 196 424 200 408 210 c 0
 392 220 382 231 379 245 c 1
 379 245 398 279 398 279 c 1
 398 265 404 254 414 245 c 0
 427 234 437 228 446 228 c 0
 453 228 459 230 463 233 c 0
 473 242 477 256 477 276 c 1
 459 307 433 327 399 337 c 0
 388 342 375 344 359 344 c 0
 343 344 328 341 315 335 c 2
 315 335 213 273 213 273 c 1
 213 273 213 100 213 100 c 1x1ffe80
 256 100 291 91 319 73 c 0x4ffe80
 336 61 350 47 362 31 c 1
 378 19 397 12 415 12 c 0x8ffe80
 444 12 468 24 488 48 c 1
 488 48 427 65 427 65 c 1
 427 65 420 94 420 94 c 1
 420 94 393 98 393 98 c 1
 393 98 390 127 390 127 c 1
 390 127 358 130 358 130 c 1
 358 130 348 164 348 164 c 1
 348 164 344 203 344 203 c 2
468 102 m 2
 468 102 469 92 469 92 c 2
 466 94 465 96 465 98 c 0
 465 99 466 101 468 102 c 2
EndSplineSet
Validated: 5
EndChar
StartChar: onequarter
Encoding: 345 188 344
Width: 715
VWidth: 1048
Flags: W
HStem: -3 21G<595.5 609> 109 46<453 569 633 668.032> 257 23<52.1375 101.818 187.48 239.441>
VStem: 115 63<295.617 567.988> 569 61<-2.7356 109 155 312>
LayerCount: 2
Back
Fore
SplineSet
621 417 m 4
 627 417 630 409 630 404 c 12
 630 305 630 244 630 150 c 5
 637 150 656 150 666 150 c 5
 675 142 680 123 672 109 c 5
 658 109 639 109 633 109 c 13
 633 109 633 0 633 0 c 5
 631 -2 616 -3 602 -3 c 4
 589 -3 574 -2 569 2 c 13
 569 2 569 109 569 109 c 5
 569 109 400 109 400 109 c 5
 395 110 391 114 390 125 c 5
 390 125 600 404 600 404 c 6
 604 409 613 417 621 417 c 4
569 155 m 13
 569 155 569 303 569 312 c 5
 527 259 499 214 453 155 c 5
 460 155 561 155 569 155 c 13
178 547 m 2
 178 547 178 344 178 344 c 2
 178 324 180 309 185 294 c 0
 187 287 229 280 237 280 c 1
 242 275 239 259 238 257 c 1
 198 258 190 260 150 260 c 0
 110 260 95 258 55 257 c 1
 50 260 51 276 55 280 c 1
 67 280 103 288 106 295 c 0
 111 308 115 332 115 342 c 2
 115 342 115 532 115 532 c 2
 115 551 107 568 97 568 c 0
 86 568 68 560 48 553 c 1
 42 556 37 565 35 571 c 1
 54 583 86 602 173 653 c 1
 180 651 186 644 186 637 c 1
 186 637 178 587 178 547 c 2
190 -13 m 0
 179 -11 179 -4 179 -4 c 1
 179 -4 537 651 537 651 c 1
 538 654 551 662 568 659 c 0
 574 658 577 652 577 649 c 1
 577 649 223 2 223 2 c 2
 220 -4 206 -16 190 -13 c 0
EndSplineSet
Validated: 33
EndChar
StartChar: onehalf
Encoding: 346 189 345
Width: 768
VWidth: 1048
Flags: W
HStem: -1 56<529 694.665> 257 23<55.1375 105.74 190.48 242.441> 355 46<517.277 621.097>
VStem: 118 63<295.617 567.988> 638 67<223.32 339.059>
LayerCount: 2
Back
Fore
SplineSet
583 401 m 0
 655 401 705 357 705 292 c 0
 705 258 688 225 657 188 c 0
 629 155 578 105 529 55 c 1
 529 55 652 55 652 55 c 2
 694 55 708 101 714 111 c 0
 715 113 716 113 719 114 c 0
 722 114 730 112 733 108 c 1
 722 78 709 33 695 -1 c 1
 695 -1 458 -1 458 -1 c 1
 452 -1 443 7 445 11 c 1
 484 53 540 104 581 156 c 0
 614 198 638 241 638 282 c 0
 638 325 613 355 570 355 c 0
 524 355 499 328 481 305 c 1
 477 301 463 318 464 323 c 1
 488 364 536 401 583 401 c 0
181 547 m 2
 181 547 181 344 181 344 c 2
 181 324 183 309 188 294 c 0
 190 287 232 280 240 280 c 1
 245 275 242 259 241 257 c 1
 201 258 193 260 153 260 c 0
 113 260 98 258 58 257 c 1
 53 260 54 276 58 280 c 1
 70 280 107 288 110 295 c 0
 115 308 118 332 118 342 c 2
 118 342 118 532 118 532 c 2
 118 551 110 568 100 568 c 0
 89 568 71 560 51 553 c 1
 45 556 40 565 38 571 c 1
 57 583 89 602 176 653 c 1
 183 651 189 644 189 637 c 1
 189 637 181 587 181 547 c 2
578 649 m 1
 578 649 224 2 224 2 c 2
 221 -4 207 -16 191 -13 c 0
 180 -11 180 -4 180 -4 c 1
 180 -4 538 651 538 651 c 1
 539 654 552 662 569 659 c 0
 575 658 578 652 578 649 c 1
EndSplineSet
Validated: 33
EndChar
StartChar: threequarters
Encoding: 347 190 346
Width: 716
VWidth: 1048
Flags: W
HStem: -3 21G<596.5 610> 109 46<454 570 634 669.032> 255 29<105.184 187.879> 622 40<100.859 180.247>
VStem: 194 57<526.896 610.202> 218 66<321.489 437.802> 570 61<-2.7356 109 155 312>
LayerCount: 2
Back
Fore
SplineSet
622 417 m 0xf2
 628 417 631 409 631 404 c 8
 631 305 631 244 631 150 c 1
 638 150 657 150 667 150 c 1
 676 142 681 123 673 109 c 1
 659 109 640 109 634 109 c 9
 634 109 634 0 634 0 c 1
 632 -2 617 -3 603 -3 c 0
 590 -3 575 -2 570 2 c 9
 570 2 570 109 570 109 c 1
 570 109 401 109 401 109 c 1
 396 110 392 114 391 125 c 1
 391 125 601 404 601 404 c 2
 605 409 614 417 622 417 c 0xf2
570 155 m 9
 570 155 570 303 570 312 c 1
 528 259 500 214 454 155 c 1
 461 155 562 155 570 155 c 9
162 662 m 0
 205 662 251 635 251 583 c 0xfa
 251 538 214 508 191 498 c 1
 218 498 284 463 284 395 c 0
 284 305 206 255 117 255 c 0
 94 255 58 261 48 270 c 1
 48 270 36 282 36 295 c 0
 36 315 52 329 68 329 c 0
 85 329 92 311 104 299 c 0
 114 289 129 284 144 284 c 0
 187 284 218 315 218 377 c 0xf6
 218 427 182 465 144 465 c 0
 126 465 108 458 103 457 c 1
 101 459 99 464 98 469 c 0
 97 472 97 476 98 478 c 1
 148 488 194 519 194 569 c 0xfa
 194 596 168 622 141 622 c 0
 103 622 76 590 70 584 c 1
 65 586 59 599 60 600 c 1
 74 622 108 662 162 662 c 0
583 649 m 1
 583 649 229 2 229 2 c 2
 226 -4 213 -16 197 -13 c 0
 186 -11 185 -4 185 -4 c 1
 185 -4 543 651 543 651 c 1
 544 654 557 662 574 659 c 0
 580 658 583 652 583 649 c 1
EndSplineSet
Validated: 33
EndChar
StartChar: questiondown
Encoding: 348 191 347
Width: 353
VWidth: 1048
Flags: W
HStem: -228 96<171.497 292.96> -228 74<162.265 274.137> 328 112<193.922 282.694>
VStem: 42 51<-119.513 -16.3416> 182 113<339.538 427.694> 231 30<181.762 265.71>
LayerCount: 2
Back
Fore
SplineSet
295 383 m 0x38
 295 352 269 328 238 328 c 0
 207 328 182 352 182 383 c 0
 182 414 207 440 238 440 c 0
 269 440 295 414 295 383 c 0x38
261 255 m 1xb4
 266 233 269 190 269 162 c 0
 269 86 220 60 182 35 c 0
 132 3 93 -21 93 -70 c 0
 93 -123 130 -154 169 -154 c 0x78
 223 -154 230 -132 257 -132 c 0
 271 -132 302 -149 302 -183 c 0
 302 -198 298 -214 293 -221 c 1
 283 -226 266 -228 244 -228 c 0
 176 -228 42 -159 42 -39 c 0
 42 31 68 74 145 118 c 0
 173 134 219 170 225 181 c 0
 234 197 231 229 231 253 c 1
 235 261 239 265 248 266 c 1
 253 264 258 261 261 255 c 1xb4
EndSplineSet
Validated: 33
Substitution2: "Crimson-Roman-'c2sc' Capitals to Small Capitals in Latin lookup 0 subtable" questiondown.sc
Substitution2: "Crimson-Roman-'smcp' Lowercase to Small Capitals lookup 2-1" questiondown.sc
EndChar
StartChar: multiply
Encoding: 29 215 236
Width: 504
GlyphClass: 2
Flags: W
LayerCount: 2
Back
Fore
SplineSet
57 338 m 1
 57 338 93 374 93 374 c 1
 93 374 234 230 234 230 c 1
 234 230 380 371 380 371 c 1
 380 371 417 337 417 337 c 1
 417 337 269 193 269 193 c 1
 269 193 422 47 422 47 c 1
 422 47 383 11 383 11 c 1
 383 11 233 159 233 159 c 1
 233 159 83 10 83 10 c 1
 83 10 48 44 48 44 c 1
 48 44 204 199 204 199 c 1
 204 199 57 338 57 338 c 1
EndSplineSet
Validated: 1
EndChar
StartChar: ae
Encoding: 95 230 348
Width: 668
VWidth: 1048
Flags: W
HStem: -8 65<426.287 554.89> -8 55<142.374 215.972> 254 38<347 537.462> 412 37<173.135 267 402.565 499.665>
VStem: 38 85<66.1501 170.866> 53 83<301.51 361.807> 271 71<146.077 225> 538 87<292.353 377.159>
LayerCount: 2
Back
Fore
SplineSet
185 199 m 0x7b
 148 186 123 158 123 119 c 0
 123 81 152 47 191 47 c 0
 228 47 286 75 286 106 c 1
 278 124 270 167 267 198 c 0
 266 209 265 218 265 225 c 1
 238 216 202 205 185 199 c 0x7b
454 412 m 0
 368 412 345 292 347 292 c 1
 356 292 504 292 514 292 c 0
 526 292 537 297 538 315 c 0
 539 340 516 412 454 412 c 0
471 449 m 0
 594 449 625 350 625 309 c 0
 625 279 619 262 600 261 c 0
 568 259 354 254 342 254 c 1
 339 123 419 57 509 57 c 0
 565 57 609 97 622 112 c 1
 623 112 630 105 630 97 c 0
 630 92 627 84 624 79 c 0
 606 49 554 -8 474 -8 c 0xb7
 412 -8 340 21 305 79 c 1
 280 53 194 -8 158 -8 c 0
 90 -8 38 43 38 110 c 0x7b
 38 152 61 178 85 190 c 0
 134 215 225 249 255 262 c 0
 265 266 267 268 269 276 c 0
 271 285 271 297 271 309 c 0
 271 355 243 408 193 408 c 0
 157 408 143 383 136 343 c 0
 130 308 114 295 88 295 c 0
 66 295 53 318 53 338 c 0x77
 53 346 57 358 60 362 c 1
 85 386 170 446 245 446 c 0
 289 446 323 416 340 383 c 1
 365 410 413 449 471 449 c 0
EndSplineSet
Validated: 33
Substitution2: "Crimson-Roman-'smcp' Lowercase to Small Capitals lookup 2-1" ae.sc
EndChar
StartChar: divide
Encoding: 30 247 238
Width: 406
GlyphClass: 2
Flags: W
HStem: 69 62<179.975 242.653> 186 41<39 382> 271 65<178.579 240.39>
VStem: 179 66<70.0547 129.2 272.579 333.298>
LayerCount: 2
Back
Fore
SplineSet
212 131 m 0
 221 131 229 128 235 121 c 0
 241 114 245 106 245 97 c 0
 245 78 234 69 211 69 c 0
 190 69 179 79 179 99 c 0
 179 120 190 131 212 131 c 0
211 336 m 0
 220 336 227 332 233 325 c 0
 239 318 243 310 243 302 c 0
 243 282 232 271 210 271 c 0
 188 271 177 282 177 304 c 0
 177 312 180 320 187 326 c 0
 194 332 202 336 211 336 c 0
39 186 m 1
 39 186 39 227 39 227 c 1
 39 227 382 227 382 227 c 1
 382 227 382 186 382 186 c 1
 382 186 39 186 39 186 c 1
EndSplineSet
Validated: 1
EndChar
StartChar: napostrophe
Encoding: 1632 329 635
Width: 544
VWidth: 1048
Flags: W
HStem: -3 30<36.4037 102.587 192.416 259.596 312.404 379.584 469.413 535.596> 381 27<35.1812 97.6204> 389 60<263.988 352.722> 472 218
VStem: -19 60<544.727 644> 108 79<33.4189 354.674> 385 79<33.4189 355.028>
LayerCount: 2
Back
Fore
SplineSet
4 690 m 0
 11 690 20 687 26 684 c 1
 32 674 41 661 41 627 c 0
 41 576 10 517 -31 472 c 1
 -37 472 -51 478 -51 483 c 1
 -33 507 -19 535 -19 566 c 0
 -19 614 -48 612 -48 647 c 0
 -48 665 -28 690 4 690 c 0
EndSplineSet
Refer: 303 110 N 1 0 0 1 2 0 3
Validated: 1
EndChar
StartChar: OE
Encoding: 491 338 349
Width: 1024
VWidth: 1048
Flags: H
LayerCount: 2
Back
SplineSet
366.591796875 648.192382812 m 0
 212.9921875 648.192382812 151.551757812 495.616210938 151.551757812 358.400390625 c 0
 151.551757812 199.6796875 239.616210938 24.576171875 398.3359375 24.576171875 c 1024
381.952148438 -10.240234375 m 0
 201.727539062 -10.240234375 50.17578125 133.120117188 50.17578125 335.872070312 c 0
 50.17578125 527.360351562 201.727539062 683.0078125 381.952148438 683.0078125 c 1024
EndSplineSet
Fore
Validated: 1
EndChar
StartChar: Ohorn
Encoding: 716 416 454
Width: 787
VWidth: 1048
Flags: HW
HStem: -10 35<315.155 476.392> 574 32<625.541 680.317> 648 35<286.247 447.632>
VStem: 49 102<222.454 454.921> 613 102<214.691 451.508> 686 64<615.271 672.934>
LayerCount: 2
Back
Fore
SplineSet
366 648 m 0xf8
 212 648 151 495 151 358 c 0
 151 199 238 25 397 25 c 0
 551 25 613 178 613 316 c 0
 613 475 525 648 366 648 c 0xf8
625 575 m 1
 680 515 715 432 715 336 c 0xf8
 715 145 561 -10 381 -10 c 0
 201 -10 49 133 49 336 c 0
 49 527 201 683 381 683 c 0
 436 683 491 669 537 644 c 0
 573 626 615 606 646 606 c 0
 672 606 686 621 686 639 c 0
 686 656 659 665 659 690 c 0
 659 710 683 725 706 725 c 0
 716 725 722 724 730 721 c 1
 739 712 750 697 750 669 c 0xf4
 750 611 682 574 640 574 c 0
 639 574 629 574 625 575 c 1
EndSplineSet
Validated: 1
EndChar
StartChar: ohorn
Encoding: 717 417 455
Width: 528
VWidth: 1048
Flags: HW
HStem: -7 34<215.94 326.684> 362 28<439.408 477.53> 416 34<192.77 303.182>
VStem: 41 88<126.495 321.518> 390 88<121.733 315.233> 463 85<411.794 482.527>
LayerCount: 2
Back
Fore
SplineSet
248 416 m 0xf8
 161 416 129 327 129 239 c 0
 129 140 179 27 271 27 c 0
 358 27 390 116 390 203 c 0
 390 302 339 416 248 416 c 0xf8
352 432 m 0
 387 417 433 390 451 390 c 0
 465 390 477 393 480 411 c 0
 483 428 459 441 463 466 c 0
 466 486 491 497 514 493 c 0
 524 491 531 487 538 483 c 1
 545 473 553 457 548 429 c 0xf4
 538 372 483 362 469 362 c 0
 464 362 447 363 439 366 c 1
 461 333 478 278 478 226 c 0
 478 94 385 -7 261 -7 c 0
 126 -7 41 90 41 218 c 0
 41 350 135 450 259 450 c 0
 294 450 318 446 352 432 c 0
EndSplineSet
Validated: 33
EndChar
StartChar: Uhorn
Encoding: 718 431 456
Width: 740
VWidth: 1048
Flags: HW
HStem: -4 59<291.592 486.46> 648 30<28.4037 100.569 201.431 273.596 498.528 569.022>
VStem: 106 90<164.959 640.925> 585 49<165.697 620.438> 711 63<681.305 732.97>
LayerCount: 2
Back
Fore
SplineSet
666 637 m 0
 657 635 647 627 644 621 c 0
 638 609 634 598 634 559 c 2
 634 559 634 283 634 283 c 2
 634 78 525 -4 365 -4 c 0
 291 -4 227 20 182 63 c 0
 135 108 106 175 106 257 c 2
 106 257 106 556 106 556 c 2
 106 587 106 616 101 632 c 0
 98 643 43 648 31 648 c 1
 27 653 26 673 31 678 c 1
 73 676 112 673 152 673 c 0
 192 673 229 676 271 678 c 1
 276 673 275 653 271 648 c 1
 259 648 204 643 201 632 c 0
 196 616 196 587 196 556 c 2
 196 556 196 303 196 303 c 2
 196 218 213 156 246 115 c 0
 278 75 326 55 386 55 c 0
 491 55 582 105 585 281 c 2
 585 281 585 558 585 558 c 2
 585 595 584 613 574 629 c 0
 568 639 517 649 501 649 c 1
 496 656 497 673 499 679 c 1
 540 677 567 674 612 674 c 0
 664 674 711 680 711 698 c 0
 711 715 684 725 684 750 c 0
 684 770 707 784 730 784 c 0
 740 784 747 783 755 780 c 1
 764 771 774 756 774 728 c 0
 774 670 713 647 666 637 c 0
EndSplineSet
Validated: 1
EndChar
StartChar: uhorn
Encoding: 719 432 457
Width: 520
VWidth: 1048
Flags: HW
HStem: -7 57<196.564 287.799> 20 28<444.431 503.518> 399 27<10.7989 63.6576 286.799 340.144> 426 20G<135.5 156.5>
VStem: 79 79<94.6602 391.167> 354 79<73.9339 391.167> 457 85<450.187 540.525>
LayerCount: 2
Back
Fore
SplineSet
433 359 m 2xae
 433 359 433 312 433 312 c 0
 433 312 433 144 433 144 c 2
 433 133 434 96 440 67 c 0
 445 48 498 49 501 48 c 0
 503 47 504 40 504 37 c 0
 504 35 501 20 496 20 c 0x6e
 443 17 363 -8 362 -8 c 0
 357 -8 354 1 354 8 c 2
 354 8 354 55 354 55 c 2
 354 60 352 60 352 60 c 1
 323 29 259 -7 207 -7 c 0
 98 -7 79 111 79 197 c 2
 79 197 79 324 79 324 c 2
 79 337 79 364 71 379 c 0
 61 397 26 399 13 399 c 1
 10 402 9 421 13 426 c 1xae
 65 428 117 435 154 446 c 1
 159 446 165 431 165 426 c 1x1e
 161 418 158 389 158 359 c 2
 158 359 158 315 158 315 c 0
 158 315 158 209 158 209 c 2
 158 100 188 50 260 50 c 0
 305 50 354 81 354 106 c 2
 354 106 354 324 354 324 c 2
 354 337 354 364 346 379 c 0
 336 397 302 399 289 399 c 1
 286 402 285 421 289 426 c 1
 341 428 386 432 424 441 c 0
 440 445 468 453 474 468 c 0
 480 484 453 498 457 523 c 0
 460 543 485 554 508 550 c 0
 518 548 524 545 531 541 c 1
 538 531 547 513 542 486 c 0
 533 440 466 420 452 416 c 0
 439 412 433 389 433 359 c 2xae
EndSplineSet
Validated: 33
EndChar
StartChar: uni01CE
Encoding: 721 462 459
Width: 441
VWidth: 1048
Flags: HW
HStem: -8 55<142.374 217.167 331 396.509> 408 38<163.188 276> 509 158
VStem: 38 85<66.1501 169.558> 53 83<302.097 361.758> 113 215 281 77<69.5405 228 252.62 370.475>
LayerCount: 2
Back
Fore
SplineSet
221 509 m 0
 217 509 213 513 210 518 c 0
 175 574 153 601 113 653 c 1
 113 660 120 667 125 667 c 1
 165 632 221 582 221 582 c 25
 221 582 277 632 317 667 c 1
 322 667 328 660 328 653 c 1
 288 601 267 574 232 518 c 0
 229 513 225 509 221 509 c 0
EndSplineSet
Refer: 290 97 N 1 0 0 1 0 0 3
Validated: 8389121
Substitution2: "Crimson-Roman-'smcp' Lowercase to Small Capitals lookup 2-1" uni01CE.sc
EndChar
StartChar: uni01D0
Encoding: 723 464 461
Width: 276
VWidth: 1048
Flags: HW
HStem: -3 30<34.4037 100.587 190.416 257.596> 381 27<33.1812 95.6204> 431 20<160.5 183.5> 509 158
VStem: 52 215 106 79<33.4189 373.361>
LayerCount: 2
Back
Fore
SplineSet
160 509 m 0
 156 509 152 513 149 518 c 0
 114 574 92 601 52 653 c 1
 52 660 59 667 64 667 c 1
 104 632 160 582 160 582 c 25
 160 582 216 632 256 667 c 1
 261 667 267 660 267 653 c 1
 227 601 206 574 171 518 c 0
 168 513 164 509 160 509 c 0
185 333 m 128
 185 333 185 119 185 119 c 2
 185 88 185 59 190 43 c 0
 193 32 243 27 255 27 c 1
 259 22 260 2 255 -3 c 1
 213 -1 185 2 145 2 c 128
 105 2 79 -1 37 -3 c 1
 32 2 33 22 37 27 c 1
 49 27 98 32 101 43 c 0
 106 59 106 88 106 119 c 2
 106 119 106 309 106 309 c 2
 106 322 106 350 101 362 c 0
 94 379 42 381 35 381 c 1
 33 383 31 403 35 408 c 1
 87 415 140 429 181 451 c 1
 186 451 193 439 193 434 c 1
 192 427 185 377 185 367 c 2
 185 367 185 333 185 333 c 128
EndSplineSet
Validated: 8389121
Substitution2: "Crimson-Roman-'smcp' Lowercase to Small Capitals lookup 2-1" uni01D0.sc
EndChar
StartChar: uni01D2
Encoding: 725 466 463
Width: 521
VWidth: 1048
Flags: HW
HStem: -7 34<216.94 327.684> 416 34<193.77 302.642> 509 158
VStem: 42 88<126.495 321.518> 166 215 391 88<121.733 314.45>
LayerCount: 2
Back
Fore
SplineSet
274 509 m 0
 270 509 266 513 263 518 c 0
 228 574 206 601 166 653 c 1
 166 660 173 667 178 667 c 1
 218 632 274 582 274 582 c 25
 274 582 330 632 370 667 c 1
 375 667 381 660 381 653 c 1
 341 601 320 574 285 518 c 0
 282 513 278 509 274 509 c 0
EndSplineSet
Refer: 304 111 N 1 0 0 1 0 0 3
Validated: 513
Substitution2: "Crimson-Roman-'smcp' Lowercase to Small Capitals lookup 2-1" uni01D2.sc
EndChar
StartChar: uni01D4
Encoding: 727 468 465
Width: 527
VWidth: 1048
Flags: HW
HStem: -7 57<200.564 291.799> 20 28<448.644 507.518> 403 27<14.7989 67.6576 290.799 343.405> 431 20<139.5 160.5 414.5 435.5> 509 158
VStem: 83 79<94.6602 395.167> 199 215 358 79<73.9339 395.167>
LayerCount: 2
Back
Fore
SplineSet
307 509 m 0
 303 509 299 513 296 518 c 0
 261 574 239 601 199 653 c 1
 199 660 206 667 211 667 c 1
 251 632 307 582 307 582 c 25
 307 582 363 632 403 667 c 1
 408 667 414 660 414 653 c 1
 374 601 353 574 318 518 c 0
 315 513 311 509 307 509 c 0
EndSplineSet
Refer: 310 117 N 1 0 0 1 0 0 3
Validated: 513
Substitution2: "Crimson-Roman-'smcp' Lowercase to Small Capitals lookup 2-1" uni01D4.sc
EndChar
StartChar: uni01D5
Encoding: 728 469 466
Width: 740
VWidth: 1048
Flags: HW
HStem: -4 59<290.592 485.267> 648 30<27.4037 99.5693 200.431 272.596 497.528 568.022 645.955 722.988> 745 102<238.49 323.51 423.49 508.51> 905 43<244.889 500.521>
VStem: 105 90<164.959 640.925> 230 102<753.49 838.51> 415 102<753.49 838.51> 584 47<165.697 628.248>
LayerCount: 2
Back
Fore
SplineSet
415 796 m 128
 415 825 437 847 466 847 c 128
 495 847 517 825 517 796 c 128
 517 767 495 745 466 745 c 128
 437 745 415 767 415 796 c 128
230 796 m 128
 230 825 252 847 281 847 c 128
 310 847 332 825 332 796 c 128
 332 767 310 745 281 745 c 128
 252 745 230 767 230 796 c 128
151 673 m 128
 191 673 228 676 270 678 c 1
 275 673 274 653 270 648 c 1
 258 648 203 643 200 632 c 0
 195 616 195 587 195 556 c 2
 195 556 195 303 195 303 c 2
 195 218 212 156 245 115 c 0
 277 75 325 55 385 55 c 0
 490 55 581 105 584 281 c 2
 584 281 584 558 584 558 c 2
 584 595 583 613 573 629 c 0
 567 639 516 649 500 649 c 1
 495 656 496 673 498 679 c 1
 539 677 566 674 611 674 c 0
 658 674 674 677 721 679 c 1
 724 674 726 660 721 649 c 1
 709 649 648 641 641 629 c 0
 632 614 631 598 631 559 c 2
 631 559 631 283 631 283 c 2
 631 78 524 -4 364 -4 c 0
 290 -4 226 20 181 63 c 0
 134 108 105 175 105 257 c 2
 105 257 105 556 105 556 c 2
 105 587 105 616 100 632 c 0
 97 643 42 648 30 648 c 1
 26 653 25 673 30 678 c 1
 72 676 111 673 151 673 c 128
EndSplineSet
Refer: 442 -1 N 1 0 0 1 635 160 2
Validated: 1
EndChar
StartChar: uni01DC
Encoding: 735 476 473
Width: 527
VWidth: 1048
Flags: HW
HStem: -7 57<199.564 290.799> 20 28<447.644 506.518> 403 27<13.7989 66.6576 289.799 342.405> 431 20<138.5 159.5 413.5 434.5> 512 94<115.983 196.312 302.983 383.312> 669 164
VStem: 82 79<94.6602 395.167> 91 163 108 96<519.699 597.668> 295 96<519.699 597.668> 357 79<73.9339 395.167>
LayerCount: 2
Back
Fore
SplineSet
127 833 m 0
 141 833 154 826 155 825 c 0
 188 784 254 688 254 682 c 0
 254 676 252 669 245 669 c 0
 235 669 91 770 91 803 c 0
 91 808 91 833 127 833 c 0
357 328 m 2xbc
 357 341 357 368 349 383 c 0
 339 401 305 403 292 403 c 1
 289 406 288 425 292 430 c 1
 344 432 395 440 432 451 c 1
 437 451 443 431 443 426 c 1
 439 418 436 389 436 359 c 2
 436 359 436 312 436 312 c 128
 436 312 436 144 436 144 c 2
 436 133 437 96 443 67 c 0
 448 48 501 49 504 48 c 0
 506 47 507 40 507 37 c 0
 507 35 504 20 499 20 c 0x7c
 446 17 367 -8 366 -8 c 0
 361 -8 357 1 357 8 c 2
 357 8 357 55 357 55 c 2
 357 60 355 60 355 60 c 1
 326 29 262 -7 210 -7 c 0
 101 -7 82 111 82 197 c 2
 82 197 82 328 82 328 c 2
 82 341 82 368 74 383 c 0
 64 401 29 403 16 403 c 1
 13 406 12 425 16 430 c 1
 68 432 120 440 157 451 c 1
 162 451 168 435 168 430 c 1
 164 422 161 389 161 359 c 2
 161 359 161 315 161 315 c 128
 161 315 161 209 161 209 c 2
 161 100 191 50 263 50 c 0
 308 50 357 81 357 106 c 2
 357 106 357 328 357 328 c 2xbc
344 606 m 128
 370 606 391 584 391 558 c 128
 391 532 369 512 343 512 c 128
 317 512 295 533 295 559 c 128
 295 585 318 606 344 606 c 128
157 606 m 128
 183 606 204 584 204 558 c 128
 204 532 182 512 156 512 c 128
 130 512 108 533 108 559 c 128
 108 585 131 606 157 606 c 128
EndSplineSet
Validated: 513
Substitution2: "Crimson-Roman-'smcp' Lowercase to Small Capitals lookup 2-1" uni01DC.sc
EndChar
StartChar: uni01E3
Encoding: 737 483 475
Width: 668
VWidth: 0
Flags: HW
HStem: -8 55<142.374 215.972> -8 65<426.287 554.89> 254 38<347 537.462> 412 37<173.135 267 402.565 499.665> 510 47<135 517>
VStem: 38 85<66.1501 170.866> 53 83<301.51 361.807> 271 71<146.077 225> 538 87<292.353 377.159>
LayerCount: 2
Back
Fore
SplineSet
129 519 m 0x3980
 129 521 130 557 141 557 c 2
 141 557 525 557 525 557 c 2
 527 557 530 556 530 550 c 0
 530 545 529 535 524 517 c 0
 522 511 517 510 517 510 c 1
 517 510 135 510 135 510 c 1
 135 510 129 509 129 519 c 0x3980
EndSplineSet
Refer: 348 230 N 1 0 0 1 0 0 3
Validated: 8389121
Substitution2: "Crimson-Roman-'smcp' Lowercase to Small Capitals lookup 2-1" uni01E3.sc
EndChar
StartChar: gcaron
Encoding: 1621 487 624
Width: 477
VWidth: 1048
Flags: W
HStem: -232 39<160.896 302.555> -4 73<166.374 352.752> 140 31<181.539 270.168> 383 52<398.435 453.625> 419 31<175.573 266.089> 535 158
VStem: 24 80<-145.129 -62.0906> 51 79<77.9169 116.882 223.533 369.846> 124 215 315 79<221.301 374.854> 396 71<-104.199 -10.5>
LayerCount: 2
Back
Fore
SplineSet
232 535 m 128
 228 535 224 539 221 544 c 0
 186 600 164 627 124 679 c 1
 124 686 131 693 136 693 c 1
 176 658 232 608 232 608 c 153
 232 608 288 658 328 693 c 1
 333 693 339 686 339 679 c 1
 299 627 278 600 243 544 c 0
 240 539 236 535 232 535 c 128
EndSplineSet
Refer: 296 103 N 1 0 0 1 0 0 3
Validated: 1
EndChar
StartChar: Aringacute
Encoding: 738 506 476
Width: 642
VWidth: 1048
Flags: HW
HStem: -3 30<-13.615 44.7513 131.809 197.196 412.775 472.559 594.371 646.465> 259 40<204 387.999> 659 20<329.5 335.5> 677 35<290.486 368.822> 826 35<289.02 370.245> 890 137
VStem: 239 34<729.637 809.67> 353 189 385 34<728.144 810.133>
LayerCount: 2
Back
Fore
SplineSet
97 142 m 2
 97 142 233 489 295 649 c 1
 300 659 325 679 334 679 c 0
 337 679 337 677 340 676 c 1
 340 676 549 129 549 129 c 0
 563 91 572 65 574 61 c 0
 584 36 636 27 644 27 c 1
 649 20 647 0 646 -3 c 1
 605 -1 579 2 534 2 c 0
 487 2 462 -1 415 -3 c 1
 410 2 411 22 416 27 c 1
 428 27 464 32 473 40 c 0
 476 43 477 48 477 54 c 0
 477 85 408 254 408 254 c 129
 408 254 404 258 401 258 c 0
 373 259 326 259 300 259 c 0
 258 259 235 259 189 256 c 0
 187 256 184 253 184 253 c 129
 184 253 155 177 138 128 c 16
 126 92 124 68 124 55 c 0
 124 30 187 27 195 27 c 1
 198 24 199 3 197 -3 c 1
 156 -1 142 2 97 2 c 0
 50 2 35 -1 -12 -3 c 1
 -15 0 -15 20 -12 27 c 1
 0 27 39 33 49 46 c 0
 69 73 83 105 97 142 c 2
298 555 m 129
 298 555 204 305 204 305 c 129
 204 305 204 301 206 301 c 0
 233 300 275 299 299 299 c 0
 331 299 353 300 385 302 c 0
 387 302 388 307 388 307 c 129
 388 307 298 555 298 555 c 129
273 770 m 128
 273 738 299 712 330 712 c 128
 361 712 385 738 385 770 c 128
 385 802 361 826 330 826 c 128
 299 826 273 802 273 770 c 128
239 770 m 128
 239 820 281 861 330 861 c 128
 379 861 419 820 419 770 c 128
 419 720 379 677 330 677 c 128
 281 677 239 720 239 770 c 128
EndSplineSet
Refer: 438 -1 N 1 0 0 1 711 145 2
Validated: 8389125
Substitution2: "Crimson-Roman-'c2sc' Capitals to Small Capitals in Latin lookup 0 subtable" aringacute.sc
EndChar
StartChar: aringacute
Encoding: 739 507 477
Width: 441
VWidth: 1048
Flags: HW
HStem: -8 55<142.374 217.167 331 396.509> 408 38<163.188 276> 509 35<189.363 268.279> 657 35<188.388 269.245> 752 164
VStem: 38 85<66.1501 169.558> 53 83<302.097 361.758> 139 34<560.984 640.67> 202 164 281 77<69.5405 228 252.62 370.475> 284 34<559.512 641.133>
LayerCount: 2
Back
Fore
SplineSet
329 916 m 0
 365 916 366 891 366 886 c 0
 366 853 222 752 212 752 c 0
 205 752 202 759 202 765 c 0
 202 771 269 867 302 908 c 0
 303 909 315 916 329 916 c 0
191 47 m 0xe8
 227 47 281 79 281 89 c 2
 281 89 281 228 281 228 c 17
 253 220 203 206 185 199 c 0
 148 185 123 158 123 119 c 0
 123 81 152 47 191 47 c 0xe8
247 446 m 0
 305 446 358 385 358 306 c 2
 358 306 358 95 358 95 c 2
 358 67 366 47 390 47 c 0
 408 47 421 58 424 60 c 1
 427 60 428 55 428 52 c 0
 428 46 426 38 423 33 c 1
 411 22 368 -6 346 -6 c 0
 316 -6 290 28 284 60 c 1
 272 48 194 -8 158 -8 c 0
 90 -8 38 43 38 110 c 0xe8
 38 152 66 183 89 191 c 0
 146 211 238 243 268 256 c 0
 278 260 281 264 281 282 c 2
 281 282 281 309 281 309 c 2
 281 355 243 408 193 408 c 0
 157 408 143 384 136 344 c 0
 130 309 114 295 88 295 c 0
 66 295 53 318 53 338 c 0xd8
 53 342 56 357 60 362 c 1
 92 392 172 446 247 446 c 0
173 601 m 128
 173 569 198 544 229 544 c 128
 260 544 284 569 284 601 c 128
 284 633 260 657 229 657 c 128
 198 657 173 633 173 601 c 128
139 601 m 128
 139 651 180 692 229 692 c 128
 278 692 318 651 318 601 c 128
 318 551 278 509 229 509 c 128
 180 509 139 551 139 601 c 128
EndSplineSet
Validated: 513
Substitution2: "Crimson-Roman-'smcp' Lowercase to Small Capitals lookup 2-1" aringacute.sc
EndChar
StartChar: AEacute
Encoding: 740 508 478
Width: 918
VWidth: 1048
Flags: HW
HStem: -3 30<-15.615 36.2641 129.313 191.196 364.181 366 366.036 423.137> 0 35<534.612 761.95> 263 39<271.999 440> 319 38<527 709.449> 639 34<365.419 366 366.036 411.404 530.532 760.227> 745 137
VStem: 440 87<45.2678 261 304 317.528 357.75 579.836> 532 189 738 33<236.009 297 379.11 437.994> 810 33<536.096 583.35>
LayerCount: 2
Back
Fore
SplineSet
484 0 m 0x7f
 415 0 366 -3 366 -3 c 1
 362 2 364 27 366 27 c 1
 378 27 428 38 433 50 c 1
 439 74 440 121 440 138 c 10
 440 138 440 261 440 261 c 17
 422 262 375 263 349 263 c 0
 307 263 292 261 245 258 c 0
 243 258 240 255 240 255 c 129
 240 255 197 182 165 132 c 0
 145 100 124 66 124 53 c 0
 124 28 181 27 189 27 c 1
 192 24 193 3 191 -3 c 1
 150 -1 137 2 92 2 c 0
 45 2 33 -1 -14 -3 c 1
 -17 0 -17 20 -14 27 c 1xbf
 -2 27 30 37 44 46 c 0
 70 62 101 106 121 140 c 2
 121 140 404 598 404 598 c 2
 407 603 412 611 412 618 c 0
 412 636 378 644 366 644 c 1
 361 650 364 672 366 674 c 1
 366 674 415 673 484 673 c 0
 580 673 701 680 813 680 c 1
 820 629 834 587 843 541 c 1
 840 538 831 536 824 536 c 128
 817 536 811 538 810 543 c 0
 787 625 745 639 691 639 c 2
 691 639 603 639 603 639 c 0
 591 639 535 638 532 628 c 0
 527 612 527 583 527 555 c 2
 527 555 527 364 527 364 c 2
 527 359 548 357 571 357 c 2
 571 357 626 357 626 357 c 2
 724 357 721 363 738 431 c 0
 739 436 747 438 754 438 c 128
 761 438 768 436 771 433 c 1
 771 433 771 240 771 240 c 1
 769 238 762 236 755 236 c 128
 748 236 740 239 738 244 c 0
 723 302 719 305 710 311 c 0
 699 318 640 319 601 319 c 0
 572 319 527 319 527 310 c 2
 527 310 527 116 527 116 c 2
 527 101 528 50 534 45 c 0
 547 35 563 35 606 35 c 2
 606 35 655 35 655 35 c 2
 703 35 755 45 784 62 c 0
 817 81 833 122 849 166 c 0
 850 170 856 172 863 172 c 0
 873 172 886 169 889 166 c 1
 870 111 841 41 834 -4 c 1
 722 -4 620 0 484 0 c 0x7f
440 304 m 9
 440 304 440 580 440 580 c 17
 418 546 272 307 272 307 c 129
 272 307 271 303 273 303 c 0
 300 302 330 302 354 302 c 0
 386 302 421 303 440 304 c 9
EndSplineSet
Refer: 438 -1 N 1 0 0 1 890 0 2
Validated: 1
EndChar
StartChar: aeacute
Encoding: 741 509 479
Width: 668
VWidth: 1048
Flags: HW
HStem: -8 55<142.374 215.972> -8 65<426.287 554.89> 254 38<347 537.462> 412 37<173.135 267 402.565 499.665> 507 164
VStem: 38 85<66.1501 170.866> 53 83<301.51 361.807> 271 71<146.077 225> 322 164 538 87<292.353 377.159>
LayerCount: 2
Back
Fore
SplineSet
449 671 m 0
 485 671 486 646 486 641 c 0
 486 608 342 507 332 507 c 0
 325 507 322 514 322 520 c 0
 322 526 389 622 422 663 c 0
 423 664 435 671 449 671 c 0
EndSplineSet
Refer: 348 230 N 1 0 0 1 0 0 3
Validated: 8389121
Substitution2: "Crimson-Roman-'smcp' Lowercase to Small Capitals lookup 2-1" aeacute.sc
EndChar
StartChar: Oslashacute
Encoding: 742 510 480
Width: 765
VWidth: 1048
Flags: HW
HStem: -10 35<316.155 477.392> 648 35<287.247 448.434> 663 20<579 583.5> 745 137
VStem: 50 102<222.454 454.921> 332 189 614 102<214.691 450.696>
LayerCount: 2
Back
Fore
SplineSet
579 683 m 17xb8
 588 681 612 666 608 660 c 9
 608 660 180 -13 180 -13 c 17
 171 -10 147 4 151 10 c 9
 151 10 579 683 579 683 c 17xb8
367 648 m 0
 213 648 152 495 152 358 c 0
 152 199 239 25 398 25 c 0
 552 25 614 178 614 316 c 0
 614 475 526 648 367 648 c 0
382 683 m 128
 562 683 716 540 716 336 c 0
 716 145 562 -10 382 -10 c 128
 202 -10 50 133 50 336 c 0
 50 527 202 683 382 683 c 128
EndSplineSet
Refer: 438 -1 N 1 0 0 1 690 0 2
Validated: 549
Substitution2: "Crimson-Roman-'c2sc' Capitals to Small Capitals in Latin lookup 0 subtable" oslashacute.sc
EndChar
StartChar: oslashacute
Encoding: 743 511 481
Width: 521
VWidth: 1048
Flags: HW
HStem: -8 21<128 132> -7 34<217.94 328.684> 416 34<194.77 303.642> 427 20<381 384.5> 506 164
VStem: 43 88<126.495 321.518> 221 164 392 88<121.733 314.45>
LayerCount: 2
Back
Fore
SplineSet
348 670 m 0
 384 670 385 645 385 640 c 0
 385 607 241 506 231 506 c 0
 224 506 221 513 221 519 c 0
 221 525 288 621 321 662 c 0
 322 663 334 670 348 670 c 0
132 -8 m 17x9c
 124 -4 101 7 104 13 c 9
 104 13 381 447 381 447 c 17
 388 444 412 433 409 427 c 9
 409 427 132 -8 132 -8 c 17x9c
250 416 m 0
 163 416 131 327 131 239 c 0
 131 140 181 27 273 27 c 0
 360 27 392 116 392 203 c 0
 392 302 341 416 250 416 c 0
261 450 m 0
 396 450 480 354 480 226 c 0
 480 94 387 -7 263 -7 c 0
 128 -7 43 90 43 218 c 0
 43 350 137 450 261 450 c 0
EndSplineSet
Validated: 549
Substitution2: "Crimson-Roman-'smcp' Lowercase to Small Capitals lookup 2-1" oslashacute.sc
EndChar
StartChar: uni0233
Encoding: 745 563 483
Width: 480
VWidth: 1048
Flags: HW
HStem: -233 73<45.3594 135.653> 411 29<0.747559 52.5449 153.093 206.887 296.188 349.305 428.782 478.352> 522 43<157.889 390.599>
LayerCount: 2
Back
Fore
SplineSet
386 522 m 1
 339 522 234 522 157 522 c 1
 147 526 154 559 163 565 c 9
 252 565 304 565 393 565 c 1
 400 560 396 533 386 522 c 1
EndSplineSet
Refer: 314 121 N 1 0 0 1 0 0 3
Validated: 545
Substitution2: "Crimson-Roman-'smcp' Lowercase to Small Capitals lookup 2-1" uni0233.sc
EndChar
StartChar: uni02BB
Encoding: 542 699 350
Width: 174
VWidth: 1048
Flags: W
HStem: 487 183
VStem: 31 65<533 612.643>
LayerCount: 2
Back
Fore
SplineSet
134 543 m 0
 134 517 114 487 53 487 c 1
 41 497 31 525 31 541 c 0
 31 612 89 657 115 670 c 0
 116 671 119 672 123 672 c 0
 136 672 143 668 143 665 c 0
 143 660 96 630 96 605 c 0
 96 577 134 574 134 543 c 0
EndSplineSet
Validated: 1
EndChar
StartChar: afii57929
Encoding: 543 700 351
Width: 152
VWidth: 1048
Flags: W
HStem: 472 218
VStem: 62 60<544.727 644>
LayerCount: 2
Back
Fore
SplineSet
85 690 m 0
 92 690 101 687 107 684 c 1
 113 674 122 661 122 627 c 0
 122 576 91 517 50 472 c 1
 44 472 30 478 30 483 c 1
 48 507 62 535 62 566 c 0
 62 614 33 612 33 647 c 0
 33 665 53 690 85 690 c 0
EndSplineSet
Validated: 1
EndChar
StartChar: uni02BE
Encoding: 1622 702 625
Width: 199
VWidth: 0
Flags: W
HStem: 449 34<32.7764 78.8396> 680 35<30.7155 82.8203>
VStem: 117 52<514.568 651.523>
LayerCount: 2
Back
Fore
SplineSet
35 483 m 1
 83 483 117 530 117 582 c 0
 117 638 87 680 31 680 c 1
 28 686 26 702 34 715 c 1
 110 715 169 655 169 583 c 0
 169 511 107 449 32 449 c 1
 29 458 30 469 35 483 c 1
EndSplineSet
Validated: 33
EndChar
StartChar: uni02BF
Encoding: 1623 703 626
Width: 199
VWidth: 0
Flags: W
HStem: 449 34<121.16 167.224> 680 35<117.18 169.284>
VStem: 31 52<514.568 651.523>
LayerCount: 2
Back
Fore
SplineSet
165 483 m 1
 170 469 171 458 168 449 c 1
 93 449 31 511 31 583 c 0
 31 655 90 715 166 715 c 1
 174 702 172 686 169 680 c 1
 113 680 83 638 83 582 c 0
 83 530 117 483 165 483 c 1
EndSplineSet
Validated: 33
EndChar
StartChar: uni02C0
Encoding: 544 704 352
Width: 211
VWidth: 1048
Flags: W
HStem: 618 30<81.6051 134.348>
VStem: 30 47<561.768 613.198> 61 43<479.254 526.1> 139 42<553.98 616.335>
LayerCount: 2
Back
Fore
SplineSet
126 648 m 0xd0
 162 648 181 627 181 596 c 0
 181 562 153 538 129 528 c 0
 111 520 104 515 104 503 c 0
 104 495 109 486 112 483 c 1
 112 478 101 469 96 469 c 1
 90 471 61 483 61 503 c 0xb0
 61 529 92 541 107 548 c 0
 127 557 139 569 139 586 c 0
 139 602 128 618 110 618 c 0
 90 618 77 610 77 582 c 0
 77 567 59 561 47 561 c 0
 40 561 30 565 30 570 c 0
 30 605 82 648 126 648 c 0xd0
EndSplineSet
Validated: 1
EndChar
StartChar: top_white_circle
Encoding: 31 730 243
Width: 269
GlyphClass: 2
Flags: W
HStem: 553 27<88.1929 163.513> 705 28<83.3366 161.612>
VStem: 32 27<603.727 678.763> 187 29<602.913 681.553>
LayerCount: 2
Back
Fore
SplineSet
125 733 m 0
 150 733 171 725 189 707 c 0
 207 689 216 668 216 643 c 0
 216 618 207 596 189 579 c 0
 171 562 150 553 125 553 c 0
 99 553 77 562 59 580 c 0
 41 598 32 619 32 643 c 0
 32 668 41 690 59 707 c 0
 77 724 100 733 125 733 c 0
69 674 m 0
 63 664 59 654 59 642 c 0
 59 618 70 600 92 588 c 0
 102 583 112 580 123 580 c 0
 148 580 166 590 178 611 c 0
 184 621 187 632 187 643 c 0
 187 666 177 683 156 695 c 0
 145 701 134 705 122 705 c 0
 99 705 81 694 69 674 c 0
EndSplineSet
Validated: 1
EndChar
StartChar: uni0311
Encoding: 1624 785 627
Width: 0
VWidth: 1048
GlyphClass: 4
Flags: W
HStem: 587 47<-323.665 -206.504>
VStem: -377 23<512.389 529.905> -176 22<512.195 530.904>
LayerCount: 2
Back
Fore
SplineSet
-265 587 m 0
 -308 587 -344 557 -354 513 c 0
 -354 511 -356 510 -358 510 c 0
 -364 510 -377 518 -377 523 c 0
 -377 524 -376 528 -376 530 c 0
 -367 588 -320 634 -265 634 c 0
 -210 634 -164 585 -155 531 c 0
 -155 529 -154 524 -154 523 c 0
 -154 518 -166 510 -172 510 c 0
 -174 510 -176 511 -176 513 c 0
 -186 557 -222 587 -265 587 c 0
EndSplineSet
Validated: 1
EndChar
StartChar: uni0314
Encoding: 1597 788 600
Width: 0
GlyphClass: 4
Flags: W
HStem: 505 13<-215.33 -199.631>
VStem: -305 52<545.398 629.031>
LayerCount: 2
Back
Fore
SplineSet
-241 696 m 0
 -224 696 -193 676 -193 664 c 3
 -193 662 -194 659 -196 658 c 0
 -212 644 -253 623 -253 575 c 0
 -253 550 -231 526 -198 518 c 1
 -198 510 -206 505 -210 505 c 0
 -220 505 -305 521 -305 616 c 0
 -305 655 -273 696 -241 696 c 0
EndSplineSet
Validated: 1
EndChar
StartChar: dieresistonos
Encoding: 1607 901 610
Width: 355
Flags: W
HStem: 453.575 220.095 464 82<76.4453 150.767 274.445 347.607>
VStem: 72 83<468.419 541.767> 178.947 105.71 270 82<468.419 541.767>
LayerCount: 2
Back
Fore
SplineSet
260.262695312 673.669921875 m 0
 280.140625 673.669921875 284.658203125 660.423828125 284.658203125 649.21484375 c 0
 284.658203125 597.248046875 199.727539062 456.631835938 192.5 453.575195312 c 0
 191.596679688 453.575195312 190.693359375 453.575195312 189.7890625 453.575195312 c 0
 186.17578125 453.575195312 178.947265625 457.650390625 178.947265625 462.745117188 c 0
 178.947265625 471.916015625 199.727539062 588.077148438 217.797851562 647.176757812 c 0
 221.412109375 657.3671875 244 673.669921875 260.262695312 673.669921875 c 0
114 546 m 4x60
 138 546 155 529 155 505 c 4
 155 482 138 464 114 464 c 4
 90 464 72 482 72 505 c 4
 72 529 90 546 114 546 c 4x60
312 546 m 4
 334 546 352 529 352 505 c 4
 352 482 334 464 312 464 c 4
 288 464 270 482 270 505 c 4x68
 270 529 288 546 312 546 c 4
EndSplineSet
Validated: 1
EndChar
StartChar: Alphatonos
Encoding: 1598 902 601
Width: 557
VWidth: 1048
Flags: W
HStem: -10 21<15.5 33> 296 26<291.355 318> 662 20<173.5 202> 746 216
VStem: 221 117
LayerCount: 2
Back
Fore
SplineSet
311 962 m 0
 333 962 338 949 338 938 c 0
 338 887 244 749 236 746 c 0
 235 746 234 746 233 746 c 0
 229 746 221 750 221 755 c 0
 221 764 244 878 264 936 c 0
 268 946 293 962 311 962 c 0
-41 27 m 1
 50 122 139 461 185 613 c 1
 171 630 139 624 114 611 c 1
 112 615 111 622 111 628 c 1
 117 652 159 682 188 682 c 0
 216 682 240 671 264 641 c 0
 321 570 346 462 385 347 c 0
 433 205 485 61 532 4 c 1
 530 -5 518 -12 518 -12 c 129
 518 -12 455 -6 432 17 c 1
 386 103 361 184 326 296 c 1
 326 296 123 254 123 254 c 129
 123 254 50 0 50 0 c 2
 49 -5 36 -10 30 -10 c 1
 1 0 -28 9 -41 27 c 1
139 310 m 129
 139 310 318 322 318 322 c 1
 286 423 261 521 214 596 c 1
 214 596 139 310 139 310 c 129
EndSplineSet
Validated: 1
EndChar
StartChar: Epsilontonos
Encoding: 1599 904 602
Width: 542
VWidth: 1048
Flags: W
HStem: 0 44<177.689 413.295> 314 50<171 336.408> 630 44<169.987 398.994> 746 216
VStem: 95 76<60.08 314 364 616.807> 266 117 511 13<115.49 116.918>
LayerCount: 2
Back
Fore
SplineSet
356 962 m 0
 378 962 383 949 383 938 c 0
 383 887 289 749 281 746 c 0
 280 746 279 746 278 746 c 0
 274 746 266 750 266 755 c 0
 266 764 289 878 309 936 c 0
 313 946 338 962 356 962 c 0
307 44 m 0
 405 44 506 111 511 122 c 1
 519 119 524 103 524 98 c 0
 524 90 494 0 443 0 c 0
 400 0 277 0 154 0 c 0
 136 0 86 5 68 35 c 1
 81 53 95 119 95 175 c 0
 95 351 90 617 90 617 c 1
 82 634 66 651 52 657 c 1
 52 664 56 674 62 677 c 1
 113 674 130 674 174 674 c 0
 277 675 299 678 413 680 c 1
 413 680 444 641 470 598 c 1
 465 588 465 584 456 580 c 1
 383 621 349 630 266 630 c 0
 214 630 211 627 168 622 c 1
 168 591 169 467 170 364 c 1
 175 364 183 364 195 364 c 0
 258 364 299 371 354 393 c 1
 379 377 405 328 416 311 c 1
 417 304 406 294 400 292 c 1
 371 305 334 316 282 316 c 0
 256 316 206 316 171 314 c 1
 171 281 172 256 172 242 c 0
 173 170 168 81 176 59 c 1
 212 47 250 44 307 44 c 0
EndSplineSet
Validated: 1
EndChar
StartChar: Etatonos
Encoding: 1600 905 603
Width: 559
VWidth: 1048
Flags: W
HStem: 302 53<127 346.893> 319 37<216.952 424> 660 20<64 80 426 442> 746 216
VStem: 61 66<2.10827 20 20.139 304.834 355 597.003> 256 117 424 65<2.10827 20 20.1151 319 356 597.003>
LayerCount: 2
Back
Fore
SplineSet
346 962 m 0
 368 962 373 949 373 938 c 0
 373 887 279 749 271 746 c 0
 270 746 269 746 268 746 c 0
 264 746 256 750 256 755 c 0
 256 764 279 878 299 936 c 0
 303 946 328 962 346 962 c 0
489 479 m 0x78
 489 366 489 284 490 223 c 0
 491 151 501 23 509 1 c 1
 502 -9 493 -16 483 -16 c 0
 477 -16 417 5 417 20 c 2
 417 20 423 178 424 319 c 1x78
 346 316 210 315 127 302 c 1
 127 272 128 247 128 223 c 0
 129 151 138 23 146 1 c 1
 139 -9 131 -16 121 -16 c 0
 115 -16 54 5 54 20 c 2
 54 20 61 211 61 362 c 0
 61 384 54 555 44 663 c 1
 46 669 61 680 67 680 c 0
 93 680 137 658 137 642 c 0
 137 635 127 545 127 479 c 0
 127 433 127 392 127 355 c 1xb8
 127 355 424 356 424 356 c 129
 424 356 424 362 424 362 c 2
 424 384 417 555 407 663 c 1
 409 669 423 680 429 680 c 0
 455 680 500 658 500 642 c 0
 500 635 489 545 489 479 c 0x78
EndSplineSet
Validated: 1
EndChar
StartChar: Iotatonos
Encoding: 1601 906 604
Width: 186
VWidth: 1048
Flags: W
HStem: 660 20<63 79> 746 216
VStem: -108 117 60 66<2.10827 20 20.139 597.003>
LayerCount: 2
Back
Fore
SplineSet
-18 962 m 0
 4 962 9 949 9 938 c 0
 9 887 -85 749 -93 746 c 0
 -94 746 -95 746 -96 746 c 0
 -100 746 -108 750 -108 755 c 0
 -108 764 -85 878 -65 936 c 0
 -61 946 -36 962 -18 962 c 0
126 479 m 0
 126 366 126 284 127 223 c 0
 128 151 137 23 145 1 c 1
 138 -9 130 -16 120 -16 c 0
 114 -16 53 5 53 20 c 2
 53 20 60 211 60 362 c 0
 60 384 53 555 43 663 c 1
 45 669 60 680 66 680 c 0
 92 680 136 658 136 642 c 0
 136 635 126 545 126 479 c 0
EndSplineSet
Validated: 1
EndChar
StartChar: Omicrontonos
Encoding: 1602 908 605
Width: 735
VWidth: 1048
Flags: W
HStem: -10 40<274.203 438.213> 642 41<289.439 454.999> 746 216
VStem: 51 90<205.078 454.453> 303 117 596 90<217.672 458.72>
LayerCount: 2
Back
Fore
SplineSet
393 962 m 0
 415 962 420 949 420 938 c 0
 420 887 326 749 318 746 c 0
 317 746 316 746 315 746 c 0
 311 746 303 750 303 755 c 0
 303 764 326 878 346 936 c 0
 350 946 375 962 393 962 c 0
372 642 m 3
 224 642 141 472 141 316 c 27
 141 176 217 30 357 30 c 0
 502 30 596 192 596 347 c 27
 596 491 516 642 372 642 c 3
367 683 m 128
 539 683 686 543 686 327 c 0
 686 136 539 -10 367 -10 c 128
 195 -10 51 123 51 345 c 0
 51 536 195 683 367 683 c 128
EndSplineSet
Validated: 1
EndChar
StartChar: Upsilontonos
Encoding: 1603 910 606
Width: 561
VWidth: 1048
Flags: W
HStem: 605 79<-5.34162 65.6566> 746 216
VStem: 170 117 196 75<1.32061 241.273>
LayerCount: 2
Back
Fore
SplineSet
260 962 m 0
 282 962 287 949 287 938 c 0
 287 887 193 749 185 746 c 0
 184 746 183 746 182 746 c 0
 178 746 170 750 170 755 c 0
 170 764 193 878 213 936 c 0
 217 946 242 962 260 962 c 0
534 639 m 5
 394 555 271 262 271 188 c 4
 271 116 278 23 286 1 c 5
 279 -9 271 -16 261 -16 c 4
 255 -16 196 5 196 20 c 0
 196 88 205 146 209 184 c 4
 210 191 211 198 212 205 c 5
 154 442 87 605 26 605 c 0
 -2 605 -24 588 -31 579 c 1
 -34 579 -39 586 -42 591 c 0
 -44 595 -45 599 -45 602 c 0
 -32 647 10 684 45 684 c 0
 114 684 191 452 228 284 c 5
 272 443 370 607 454 679 c 5
 461 683 526 662 528 660 c 4
 534 654 537 647 534 639 c 5
EndSplineSet
Validated: 1
EndChar
StartChar: Omegatonos
Encoding: 1604 911 607
Width: 727
VWidth: 1048
Flags: W
HStem: 0 55<71.0758 215 477.58 636.839> 642 41<271.634 435.582> 746 216
VStem: 44 90<234.298 471.259> 307 117 566 91<231.476 468.671>
LayerCount: 2
Back
Fore
SplineSet
397 962 m 0
 419 962 424 949 424 938 c 0
 424 887 330 749 322 746 c 0
 321 746 320 746 319 746 c 0
 315 746 307 750 307 755 c 0
 307 764 330 878 350 936 c 0
 354 946 379 962 397 962 c 0
346 683 m 0
 523 683 657 533 657 343 c 0
 657 218 581 115 477 61 c 1
 489 56 525 55 552 55 c 0
 607 55 660 86 679 99 c 1
 686 99 689 88 689 84 c 1
 683 70 644 0 572 0 c 0
 534 0 525 0 439 0 c 1
 432 10 417 37 417 52 c 0
 417 60 424 72 428 77 c 1
 545 153 566 266 566 357 c 0
 566 532 474 642 355 642 c 0
 202 642 134 468 134 351 c 0
 134 192 201 108 272 72 c 1
 280 62 303 30 303 19 c 0
 303 10 292 4 279 0 c 1
 193 0 225 2 99 0 c 1
 87 6 33 56 27 66 c 1
 30 74 41 77 46 77 c 1
 74 69 94 56 138 53 c 0
 173 51 215 58 215 58 c 1
 117 100 44 228 44 361 c 0
 44 540 181 683 346 683 c 0
EndSplineSet
Validated: 1
EndChar
StartChar: iotadieresistonos
Encoding: 1605 912 608
Width: 232
VWidth: 1048
Flags: HW
HStem: -3 61<92 168.555> 423 20<71 79> 513 94<-56.0169 24.3115 130.983 211.312> 673 216
VStem: -64 96<520.699 598.668> 19 117 51 60<64.3034 335.312> 51 79<155.091 425.987> 123 96<520.699 598.668>
LayerCount: 2
Back
Fore
SplineSet
109 889 m 0
 131 889 136 876 136 865 c 0
 136 814 42 676 34 673 c 0
 33 673 32 673 31 673 c 0
 27 673 19 677 19 682 c 0
 19 691 42 805 62 863 c 0
 66 873 91 889 109 889 c 0
172 607 m 128
 198 607 219 585 219 559 c 128
 219 533 197 513 171 513 c 128
 145 513 123 534 123 560 c 128
 123 586 146 607 172 607 c 128
-15 607 m 128
 11 607 32 585 32 559 c 128
 32 533 10 513 -16 513 c 128
 -42 513 -64 534 -64 560 c 128
 -64 586 -41 607 -15 607 c 128
EndSplineSet
Validated: 8388609
EndChar
StartChar: Alpha
Encoding: 746 913 484
Width: 557
VWidth: 1048
Flags: HW
HStem: -10 21G<45.5 63> 296 26<321.355 348> 662 20G<203.5 232>
LayerCount: 2
Back
Fore
SplineSet
-11 27 m 1
 80 122 169 461 215 613 c 1
 201 630 169 624 144 611 c 1
 142 615 141 622 141 628 c 1
 147 652 189 682 218 682 c 0
 246 682 270 671 294 641 c 0
 351 570 376 462 415 347 c 0
 463 205 515 61 562 4 c 1
 560 -5 548 -12 548 -12 c 1
 548 -12 485 -6 462 17 c 1
 416 103 391 184 356 296 c 1
 356 296 153 254 153 254 c 1
 153 254 80 0 80 0 c 2
 79 -5 66 -10 60 -10 c 1
 31 0 2 9 -11 27 c 1
169 310 m 1
 169 310 348 322 348 322 c 1
 316 423 291 521 244 596 c 1
 244 596 169 310 169 310 c 1
EndSplineSet
Validated: 33
EndChar
StartChar: Beta
Encoding: 747 914 485
Width: 536
VWidth: 1048
Flags: HW
HStem: -3 40<166.832 318.943> 335 38<157 290.134> 633 41<163.806 319.838> 657 20G<49 77.5>
VStem: 85 71<48.0858 334 376 615.59> 369 76<436.735 588.022> 403 89<105.371 262.455>
LayerCount: 2
Back
Fore
SplineSet
80 617 m 1xea
 72 634 56 651 42 657 c 1
 42 664 46 674 52 677 c 1xda
 103 674 120 674 164 674 c 0
 342 674 445 622 445 514 c 0xec
 445 417 364 378 336 369 c 1
 378 358 492 312 492 193 c 0
 492 124 456 0 237 -3 c 0
 203 -3 265 -5 142 -5 c 0
 124 -5 76 -10 58 20 c 1
 71 38 85 105 85 161 c 0
 85 337 80 617 80 617 c 1xea
241 335 m 0
 213 335 213 337 155 334 c 1
 155 301 156 252 156 238 c 0
 157 166 158 69 166 47 c 1
 184 40 185 37 223 37 c 0
 300 37 403 65 403 179 c 0
 403 267 344 335 241 335 c 0
229 633 m 0xec
 210 634 180 632 163 624 c 1
 157 583 156 479 157 376 c 1
 162 376 181 373 191 373 c 0
 324 373 369 443 369 510 c 0
 369 593 324 633 229 633 c 0xec
EndSplineSet
Validated: 33
EndChar
StartChar: Gamma
Encoding: 748 915 486
Width: 523
VWidth: 1048
Flags: HW
HStem: 633 41<186.006 409.612> 659 20<45.4409 71.3555>
VStem: 114 75<2.11769 627.708>
LayerCount: 2
Back
Fore
SplineSet
184 625 m 1xa0
 184 578 188 296 189 236 c 0
 190 164 196 23 204 1 c 1
 197 -9 188 -16 178 -16 c 0
 172 -16 114 5 114 20 c 2
 114 20 112 617 112 617 c 17
 101 639 65 654 42 659 c 1
 42 666 46 676 52 679 c 1x60
 103 676 137 674 191 674 c 24
 294 674 344 678 458 680 c 9
 458 680 502 597 516 545 c 1
 511 535 506 532 497 530 c 1
 439 611 392 633 309 633 c 0
 257 633 227 630 184 625 c 1xa0
EndSplineSet
Validated: 1
EndChar
StartChar: Delta
Encoding: 749 916 487
Width: 643
VWidth: 1048
Flags: HW
HStem: -4 21G<554 562> 3 62<96 511.858>
LayerCount: 2
Back
Fore
SplineSet
512 65 m 1x40
 456 186 373 375 307 542 c 1
 303 545 96 65 96 65 c 17
 116 65 496 65 512 65 c 1x40
325 671 m 1
 435 415 497 294 613 34 c 1
 606 8 567 -2 557 -4 c 1x80
 551 -1 519 3 493 3 c 16
 236 3 28 0 28 0 c 1
 25 0 20 6 20 10 c 1
 20 10 174 344 270 561 c 0
 282 589 286 607 291 633 c 1
 296 645 323 676 325 671 c 1
EndSplineSet
Validated: 33
EndChar
StartChar: Epsilon
Encoding: 750 917 488
Width: 542
VWidth: 1048
Flags: HW
HStem: 0 44<168.689 404.295> 314 50<162 327.408> 630 44<160.987 389.994>
VStem: 86 76<60.08 314 364 616.807> 502 13<115.49 116.918>
LayerCount: 2
Back
Fore
SplineSet
298 44 m 0
 396 44 497 111 502 122 c 1
 510 119 515 103 515 98 c 0
 515 90 485 0 434 0 c 0
 391 0 268 0 145 0 c 0
 127 0 77 5 59 35 c 1
 72 53 86 119 86 175 c 0
 86 351 81 617 81 617 c 1
 73 634 57 651 43 657 c 1
 43 664 47 674 53 677 c 1
 104 674 121 674 165 674 c 0
 268 675 290 678 404 680 c 1
 404 680 435 641 461 598 c 1
 456 588 456 584 447 580 c 1
 374 621 340 630 257 630 c 0
 205 630 202 627 159 622 c 1
 159 591 160 467 161 364 c 1
 166 364 174 364 186 364 c 0
 249 364 290 371 345 393 c 1
 370 377 396 328 407 311 c 1
 408 304 397 294 391 292 c 1
 362 305 325 316 273 316 c 0
 247 316 197 316 162 314 c 1
 162 281 163 256 163 242 c 0
 164 170 159 81 167 59 c 1
 203 47 241 44 298 44 c 0
EndSplineSet
Validated: 33
EndChar
StartChar: Zeta
Encoding: 751 918 489
Width: 559
VWidth: 1048
Flags: HW
HStem: 0 41<146.483 431.858> 630 47<116.582 407.977>
LayerCount: 2
Back
Fore
SplineSet
59 563 m 1
 54 560 34 566 34 570 c 1
 48 612 69 657 94 679 c 1
 109 677 110 677 135 677 c 0
 135 677 310 677 310 677 c 2
 386 677 414 678 494 688 c 1
 500 684 506 672 506 664 c 1
 504 656 144 51 144 51 c 17
 197 43 248 41 329 41 c 0
 428 41 492 92 514 122 c 1
 522 119 527 103 527 98 c 0
 527 90 497 0 446 0 c 0
 403 0 292 0 118 0 c 0
 84 0 40 15 40 37 c 1
 130 150 137 173 214 305 c 0
 274 408 333 507 409 636 c 1
 361 638 271 634 186 630 c 0
 128 627 85 587 59 563 c 1
EndSplineSet
Validated: 33
EndChar
StartChar: Eta
Encoding: 752 919 490
Width: 559
VWidth: 1048
Flags: HW
HStem: 302 53<126 345.893> 319 37<215.952 423> 660 20G<63 79 425 441>
VStem: 60 66<2.10827 20 20.139 304.834 355 597.003> 423 65<2.10827 20 20.1151 319 356 597.003>
LayerCount: 2
Back
Fore
SplineSet
488 479 m 0x78
 488 366 488 284 489 223 c 0
 490 151 500 23 508 1 c 1
 501 -9 492 -16 482 -16 c 0
 476 -16 416 5 416 20 c 2
 416 20 422 178 423 319 c 1x78
 345 316 209 315 126 302 c 1
 126 272 127 247 127 223 c 0
 128 151 137 23 145 1 c 1
 138 -9 130 -16 120 -16 c 0
 114 -16 53 5 53 20 c 2
 53 20 60 211 60 362 c 0
 60 384 53 555 43 663 c 1
 45 669 60 680 66 680 c 0
 92 680 136 658 136 642 c 0
 136 635 126 545 126 479 c 0
 126 433 126 392 126 355 c 1xb8
 126 355 423 356 423 356 c 1
 423 356 423 362 423 362 c 2
 423 384 416 555 406 663 c 1
 408 669 422 680 428 680 c 0
 454 680 499 658 499 642 c 0
 499 635 488 545 488 479 c 0x78
EndSplineSet
Validated: 1
EndChar
StartChar: Theta
Encoding: 753 920 491
Width: 733
VWidth: 1048
Flags: HW
HStem: -10 40<272.203 436.213> 319 42<278.716 445.666> 642 41<287.439 452.999>
VStem: 49 90<205.078 454.453> 594 90<217.672 458.72>
LayerCount: 2
Back
Fore
SplineSet
334 361 m 0
 402 361 439 368 469 401 c 0
 471 404 475 401 478 399 c 1
 488 384 515 324 523 299 c 1
 524 292 514 284 508 282 c 1
 464 311 457 319 392 319 c 0
 324 319 287 313 257 280 c 0
 255 277 251 280 248 282 c 1
 238 297 211 357 203 382 c 1
 202 389 212 397 218 399 c 1
 262 370 269 361 334 361 c 0
370 642 m 3
 222 642 139 472 139 316 c 27
 139 176 215 30 355 30 c 0
 500 30 594 192 594 347 c 27
 594 491 514 642 370 642 c 3
365 683 m 0
 537 683 684 543 684 327 c 0
 684 136 537 -10 365 -10 c 0
 193 -10 49 123 49 345 c 0
 49 536 193 683 365 683 c 0
EndSplineSet
Validated: 1
EndChar
StartChar: Iota
Encoding: 754 921 492
Width: 186
VWidth: 1048
Flags: HW
HStem: 660 20G<62 78>
VStem: 59 66<2.10827 20 20.139 597.003>
LayerCount: 2
Back
Fore
SplineSet
125 479 m 0
 125 366 125 284 126 223 c 0
 127 151 136 23 144 1 c 1
 137 -9 129 -16 119 -16 c 0
 113 -16 52 5 52 20 c 2
 52 20 59 211 59 362 c 0
 59 384 52 555 42 663 c 1
 44 669 59 680 65 680 c 0
 91 680 135 658 135 642 c 0
 135 635 125 545 125 479 c 0
EndSplineSet
Validated: 1
EndChar
StartChar: Kappa
Encoding: 755 922 493
Width: 509
VWidth: 1048
Flags: HW
HStem: -4 63<405.956 494.938> 660 20G<63 79>
VStem: 60 66<1.53751 20 20.139 193.38 264 597.003>
LayerCount: 2
Back
Fore
SplineSet
527 51 m 1
 505 20 473 -4 428 -4 c 0
 326 -4 238 184 205 323 c 1
 161 242 131 161 133 100 c 1
 136 53 141 12 145 1 c 1
 138 -9 130 -16 120 -16 c 0
 114 -16 53 5 53 20 c 2
 53 20 60 211 60 362 c 0
 60 384 53 555 43 663 c 1
 45 669 60 680 66 680 c 0
 92 680 136 658 136 642 c 0
 136 635 126 545 126 479 c 0
 126 390 126 319 126 264 c 1
 187 438 322 616 393 676 c 1
 400 680 468 659 470 657 c 0
 476 651 479 644 476 636 c 1
 397 589 297 475 225 357 c 1
 269 187 392 59 466 59 c 0
 503 59 519 77 524 80 c 1
 527 80 530 59 527 51 c 1
EndSplineSet
Validated: 33
EndChar
StartChar: Lambda
Encoding: 756 923 494
Width: 549
VWidth: 1048
Flags: HW
HStem: -10 21G<42.5 60> 662 20G<200.5 229>
LayerCount: 2
Back
Fore
SplineSet
291 641 m 24
 353 535 373 462 412 347 c 0
 460 205 512 61 559 4 c 1
 557 -5 545 -12 545 -12 c 25
 545 -12 482 -6 459 17 c 1
 411 106 386 191 349 309 c 0
 316 414 290 518 241 596 c 1
 190 393 145 230 77 0 c 1
 76 -5 63 -10 57 -10 c 1
 28 0 -1 9 -14 27 c 1
 77 122 166 461 212 613 c 1
 198 630 165 624 141 611 c 1
 139 615 138 622 138 628 c 1
 144 652 186 682 215 682 c 0
 243 682 274 670 291 641 c 24
EndSplineSet
Validated: 33
EndChar
StartChar: Mu
Encoding: 757 924 495
Width: 721
VWidth: 1048
Flags: HW
HStem: 662 20G<70.5 81.5 549 561>
VStem: 58 37<257 657>
LayerCount: 2
Back
Fore
SplineSet
629 478 m 0
 639 365 646 283 652 222 c 0
 659 150 679 23 689 3 c 1
 683 -8 676 -16 666 -17 c 0
 660 -18 596 3 595 18 c 0
 587 148 585 202 574 353 c 0
 568 427 562 493 550 563 c 1
 518 377 470 228 407 82 c 0
 404 73 392 66 392 66 c 1
 392 66 328 67 305 90 c 1
 269 140 240 206 193 307 c 0
 161 375 132 449 114 512 c 1
 108 430 99 361 95 257 c 0
 91 154 100 46 113 -6 c 1
 111 -11 102 -22 96 -23 c 1
 82 -19 37 0 25 25 c 1
 62 282 58 493 58 657 c 0
 58 663 66 682 75 682 c 0
 88 682 114 657 123 648 c 1
 156 576 206 452 256 342 c 0
 304 238 340 174 375 124 c 1
 457 302 496 456 531 650 c 0
 533 662 546 679 552 679 c 0
 570 679 612 653 617 641 c 1
 618 634 624 544 629 478 c 0
EndSplineSet
Validated: 33
EndChar
StartChar: Nu
Encoding: 758 925 496
Width: 499
VWidth: 1048
Flags: HW
HStem: -10 21G<442 442> 659 20G<43.5 53 406 423.5>
VStem: 37 55<431.23 520> 417 57<296.346 603>
LayerCount: 2
Back
Fore
SplineSet
460 7 m 1
 460 -2 442 -10 442 -10 c 0
 442 -10 378 0 360 15 c 1
 313 92 249 207 199 309 c 0
 161 386 122 458 93 520 c 1
 90 446 89 379 92 256 c 1
 96 143 112 46 128 -5 c 1
 127 -10 119 -21 113 -23 c 1
 84 -12 51 5 37 30 c 1
 55 289 48 461 37 655 c 0
 37 663 41 679 46 679 c 0
 60 679 95 651 100 645 c 1
 138 576 206 448 261 347 c 0
 315 247 376 132 422 58 c 1
 422 170 423 264 417 395 c 0
 413 498 407 607 393 659 c 1
 394 664 403 676 409 677 c 1
 438 664 466 562 474 524 c 1
 464 266 464 194 460 7 c 1
EndSplineSet
Validated: 33
EndChar
StartChar: Xi
Encoding: 759 926 497
Width: 542
VWidth: 1048
Flags: HW
HStem: 0 44<127.792 397.828> 325 42<172.65 338.35> 632 45<122.864 365.319>
VStem: 69 27<543.927 584.12> 497 13<138.035 142.111>
LayerCount: 2
Back
Fore
SplineSet
159 677 m 0
 279 677 282 677 397 678 c 1
 426 648 454 594 468 559 c 1
 466 549 448 541 439 543 c 1
 412 583 364 632 265 632 c 0
 208 632 265 632 203 632 c 0
 157 632 96 617 96 549 c 1
 94 545 76 537 69 542 c 1
 59 568 44 630 40 647 c 1
 65 665 114 677 159 677 c 0
226 367 m 4
 294 367 331 374 361 407 c 4
 363 410 368 406 371 404 c 5
 381 389 408 329 416 304 c 5
 417 297 406 289 400 287 c 5
 356 316 350 325 285 325 c 4
 217 325 180 318 150 285 c 0
 148 282 143 285 140 287 c 1
 130 302 103 362 95 387 c 1
 94 394 105 402 111 404 c 1
 155 375 161 367 226 367 c 4
289 44 m 0
 428 44 492 136 497 147 c 1
 505 144 510 129 510 124 c 0
 510 116 465 0 414 0 c 0
 371 0 321 0 198 0 c 0
 156 0 99 3 58 18 c 1
 49 36 28 112 31 147 c 1
 35 151 61 141 63 136 c 1
 106 53 159 44 289 44 c 0
EndSplineSet
Validated: 33
EndChar
StartChar: Omicron
Encoding: 760 927 498
Width: 735
VWidth: 1048
Flags: HW
HStem: -10 40<273.203 437.213> 642 41<288.439 453.999>
VStem: 50 90<205.078 454.453> 595 90<217.672 458.72>
LayerCount: 2
Back
Fore
SplineSet
371 642 m 3
 223 642 140 472 140 316 c 27
 140 176 216 30 356 30 c 0
 501 30 595 192 595 347 c 27
 595 491 515 642 371 642 c 3
366 683 m 0
 538 683 685 543 685 327 c 0
 685 136 538 -10 366 -10 c 0
 194 -10 50 123 50 345 c 0
 50 536 194 683 366 683 c 0
EndSplineSet
Validated: 1
EndChar
StartChar: Pi
Encoding: 761 928 499
Width: 654
VWidth: 1048
Flags: HW
HStem: 633 52<227.581 432.64> 659 20<45.4409 74.5195>
VStem: 124 76<2.11769 626.788> 445 66<2.10827 20 20.139 597.002>
LayerCount: 2
Back
Fore
SplineSet
195 625 m 1xb0
 195 578 199 296 200 236 c 0
 201 164 206 23 214 1 c 1
 207 -9 198 -16 188 -16 c 0
 182 -16 124 5 124 20 c 2
 124 20 122 617 122 617 c 1
 111 639 65 654 42 659 c 1
 42 666 46 676 52 679 c 1x70
 103 676 144 673 202 674 c 0
 298 675 336 683 450 685 c 1
 450 685 587 657 610 639 c 1
 615 632 610 622 607 621 c 1
 575 625 548 628 520 630 c 1
 518 602 511 532 511 479 c 0
 511 366 511 284 512 223 c 0
 513 151 522 23 530 1 c 1
 523 -9 515 -16 505 -16 c 0
 499 -16 438 5 438 20 c 2
 438 20 445 211 445 362 c 0
 445 381 440 527 431 633 c 1
 422 633 411 633 401 633 c 0
 349 633 238 630 195 625 c 1xb0
EndSplineSet
Validated: 33
EndChar
StartChar: Rho
Encoding: 762 929 500
Width: 558
VWidth: 1048
Flags: HW
HStem: 293 33<275.781 370.683> 635 39<196.82 363.541> 659 20<45.4409 74.5195>
VStem: 124 76<2.11769 630.401> 438 83<393.254 563.028>
LayerCount: 2
Back
Fore
SplineSet
296 635 m 0xd8
 262 635 234 635 195 625 c 1
 195 578 199 296 200 236 c 0
 201 164 206 23 214 1 c 1
 207 -9 198 -16 188 -16 c 0
 182 -16 124 5 124 20 c 2
 124 20 122 617 122 617 c 17
 111 639 65 654 42 659 c 1
 42 666 46 676 52 679 c 1xb8
 103 676 144 674 202 674 c 4
 242 674 282 678 335 672 c 4
 466 658 521 571 521 479 c 15
 521 373 431 293 321 293 c 7
 313 293 286 299 276 308 c 5
 272 312 267 329 270 334 c 5
 285 327 305 326 315 326 c 4
 388 326 438 396 438 477 c 4
 438 562 381 635 296 635 c 0xd8
EndSplineSet
Validated: 33
EndChar
StartChar: Sigma
Encoding: 763 931 501
Width: 580
VWidth: 1048
Flags: HW
HStem: -2 47<140.071 438.522> 638 36<170 393.026>
LayerCount: 2
Back
Fore
SplineSet
27 30 m 1
 53 49 86 71 94 80 c 1
 187 165 288 252 341 301 c 1
 278 413 69 624 33 657 c 1
 33 664 37 674 43 677 c 1
 94 674 111 674 155 674 c 0
 258 675 316 678 430 680 c 1
 430 680 460 641 486 598 c 1
 481 588 482 584 473 580 c 1
 400 621 368 638 285 638 c 0
 233 638 211 635 168 630 c 1
 238 549 343 455 404 362 c 0
 406 359 426 334 424 314 c 1
 346 241 158 75 138 60 c 1
 182 45 237 45 289 45 c 0
 352 45 405 53 449 71 c 0
 483 85 522 110 527 121 c 1
 535 118 541 102 541 97 c 0
 541 89 492 -2 450 -2 c 0
 407 -2 234 -2 111 -2 c 0
 93 -2 45 0 27 30 c 1
EndSplineSet
Validated: 33
EndChar
StartChar: Tau
Encoding: 764 932 502
Width: 575
VWidth: 1048
Flags: HW
HStem: 636 41<95.2984 242 306 446.458>
VStem: 34 27<543.927 584.12> 237 75<2.11769 636>
LayerCount: 2
Back
Fore
SplineSet
352 636 m 2
 352 636 306 636 306 636 c 1
 306 578 311 294 312 236 c 0
 313 164 319 23 327 1 c 1
 320 -9 311 -16 301 -16 c 0
 295 -16 237 5 237 20 c 2
 237 20 242 636 242 636 c 1
 242 636 168 636 168 636 c 2
 122 636 61 617 61 549 c 1
 59 545 41 537 34 542 c 1
 24 568 9 630 5 647 c 1
 30 665 79 677 124 677 c 2
 124 677 308 677 308 677 c 2
 371 677 394 677 484 678 c 1
 513 648 541 594 555 559 c 1
 553 549 535 541 526 543 c 1
 499 583 451 636 352 636 c 2
EndSplineSet
Validated: 33
EndChar
StartChar: Upsilon
Encoding: 765 933 503
Width: 561
VWidth: 1048
Flags: HW
HStem: 605 79<25.6584 96.6566>
VStem: 227 75<1.32061 241.273>
LayerCount: 2
Back
Fore
SplineSet
565 639 m 5
 425 555 302 262 302 188 c 4
 302 116 309 23 317 1 c 5
 310 -9 302 -16 292 -16 c 4
 286 -16 227 5 227 20 c 0
 227 88 236 146 240 184 c 4
 241 191 242 198 243 205 c 5
 185 442 118 605 57 605 c 0
 29 605 7 588 0 579 c 1
 -3 579 -8 586 -11 591 c 0
 -13 595 -14 599 -14 602 c 0
 -1 647 41 684 76 684 c 0
 145 684 222 452 259 284 c 5
 303 443 401 607 485 679 c 5
 492 683 557 662 559 660 c 4
 565 654 568 647 565 639 c 5
EndSplineSet
Validated: 33
EndChar
StartChar: Phi
Encoding: 766 934 504
Width: 655
VWidth: 1048
Flags: HW
HStem: 109 35<240.408 292 368 414.767> 529 36<240.494 287 366 417.176> 660 20G<298 314>
VStem: 43 85<250.265 420.867> 287 85<566.87 661.59> 296 65<145.358 527.403> 527 85<250.217 423.322>
LayerCount: 2
Back
Fore
SplineSet
43 327 m 0xfa
 39 445 140 545 287 563 c 1
 285 598 282 633 279 663 c 1
 281 669 295 680 301 680 c 0
 327 680 372 658 372 642 c 0
 372 638 369 605 366 565 c 1
 508 554 608 462 612 347 c 0
 616 228 516 127 368 110 c 1
 372 59 377 13 381 1 c 1
 374 -9 365 -16 355 -16 c 0
 349 -16 289 5 289 20 c 2
 289 20 291 57 292 109 c 1
 149 120 47 211 43 327 c 0xfa
361 479 m 0xf6
 361 366 361 284 362 223 c 0
 362 200 364 173 366 144 c 1
 458 161 527 243 527 337 c 0
 527 432 457 513 364 529 c 1
 363 512 361 494 361 479 c 0xf6
289 528 m 1
 197 510 128 430 128 337 c 0
 128 242 199 160 293 144 c 1
 295 210 296 290 296 362 c 0
 296 375 294 449 289 528 c 1
EndSplineSet
Validated: 33
EndChar
StartChar: Chi
Encoding: 767 935 505
Width: 544
VWidth: 1048
Flags: HW
HStem: -6 21G<32 39> 629 53<35.1995 99.9376>
LayerCount: 2
Back
Fore
SplineSet
546 4 m 1
 544 -5 531 -12 531 -12 c 1
 531 -12 461 -5 438 18 c 0
 391 66 319 175 262 286 c 1
 201 187 91 38 55 0 c 0
 50 -4 42 -6 36 -6 c 0
 28 -6 -8 5 -8 25 c 1
 46 59 156 195 238 331 c 1
 195 427 157 512 102 604 c 0
 92 620 74 629 59 629 c 0
 41 629 26 621 14 611 c 1
 12 615 11 622 11 628 c 1
 17 652 59 682 88 682 c 0
 116 682 145 669 164 641 c 0
 197 596 243 497 283 409 c 1
 337 503 371 556 440 647 c 1
 462 664 517 685 517 685 c 1
 527 685 542 677 542 672 c 1
 503 640 397 523 304 359 c 1
 365 225 465 82 546 4 c 1
EndSplineSet
Validated: 1
EndChar
StartChar: Psi
Encoding: 768 936 506
Width: 720
VWidth: 1048
Flags: HW
HStem: 305 40<275.161 338 403 437.871> 629 53<8.68286 74.067 661.861 724.069>
VStem: 338 65<2.10827 20 20.1078 305 347 597.003>
LayerCount: 2
Back
SplineSet
59.3916015625 671.744140625 m 0
 125.952148438 671.744140625 165.887695312 590.84765625 196.608398438 491.51953125 c 0
 221.84375 409.926757812 262.923828125 357.272460938 344.046875 349.235351562 c 1
 344.057617188 353.686523438 344.064453125 358.108398438 344.064453125 362.49609375 c 0
 344.064453125 384 336.896484375 555.0078125 326.65625 662.528320312 c 1
 328.704101562 668.671875 343.040039062 679.935546875 349.18359375 679.935546875 c 0
 374.784179688 679.935546875 419.83984375 658.431640625 419.83984375 642.047851562 c 0
 419.83984375 634.879882812 409.599609375 544.767578125 409.599609375 479.232421875 c 0
 409.599609375 433.236328125 409.669921875 392.36328125 409.669921875 355.915039062 c 1
 469.26171875 377.685546875 519.4140625 443.247070312 560.127929688 526.3359375 c 0
 592.172851562 591.733398438 625.6640625 663.551757812 695.295898438 677.887695312 c 0
 719.78125 682.928710938 757.759765625 661.50390625 765.952148438 643.072265625 c 0
 766.975585938 638.975585938 766.975585938 624.639648438 761.856445312 624.639648438 c 1
 753.6640625 632.83203125 737.280273438 637.952148438 721.919921875 637.952148438 c 0
 684.032226562 637.952148438 649.215820312 559.103515625 621.568359375 509.952148438 c 0
 562.499023438 404.938476562 521.671875 319.2734375 409.83203125 305.147460938 c 1
 409.98046875 274.31640625 410.224609375 247.213867188 410.624023438 223.232421875 c 0
 411.819335938 151.5546875 420.864257812 22.5283203125 429.055664062 1.0244140625 c 1
 421.887695312 -9.2158203125 413.696289062 -16.3837890625 403.456054688 -16.3837890625 c 0
 397.311523438 -16.3837890625 336.896484375 5.1201171875 336.896484375 20.48046875 c 2
 336.896484375 20.48046875 342.39453125 167.383789062 343.759765625 304.998046875 c 1
 240.639648438 310.272460938 165.887695312 374.784179688 121.856445312 502.784179688 c 0
 100.7890625 564.025390625 69.6318359375 630.784179688 30.7197265625 630.784179688 c 0
 20.48046875 630.784179688 13.3115234375 629.759765625 1.0244140625 623.616210938 c 1025
EndSplineSet
Fore
SplineSet
119 503 m 0
 95 570 79 629 34 629 c 0
 16 629 1 621 -11 611 c 1
 -13 615 -14 622 -14 628 c 1
 -8 652 30 682 59 682 c 0
 114 682 142 631 186 492 c 0
 213 408 257 353 338 345 c 1
 338 349 338 358 338 362 c 0
 338 384 331 555 321 663 c 1
 323 669 337 680 343 680 c 0
 369 680 414 658 414 642 c 0
 414 635 403 545 403 479 c 0
 403 433 403 384 403 347 c 1
 472 365 512 439 546 525 c 0
 581 613 613 681 674 681 c 0
 699 681 729 659 735 648 c 1
 735 645 733 634 728 633 c 1
 721 635 705 636 696 636 c 0
 658 636 645 560 622 508 c 0
 573 392 515 318 403 304 c 1
 403 273 404 247 404 223 c 0
 405 151 415 23 423 1 c 1
 416 -9 407 -16 397 -16 c 0
 391 -16 331 5 331 20 c 2
 331 20 337 168 338 305 c 1
 235 310 166 372 119 503 c 0
EndSplineSet
Validated: 1
EndChar
StartChar: Omega
Encoding: 769 937 507
Width: 727
VWidth: 1048
Flags: HW
HStem: 0 55<77.0758 221 483.58 642.839> 642 41<277.634 441.582>
VStem: 50 90<234.298 471.259> 572 91<231.476 468.671>
LayerCount: 2
Back
Fore
SplineSet
352 683 m 0
 529 683 663 533 663 343 c 0
 663 218 587 115 483 61 c 1
 495 56 531 55 558 55 c 0
 613 55 666 86 685 99 c 1
 692 99 695 88 695 84 c 1
 689 70 650 0 578 0 c 0
 540 0 531 0 445 0 c 1
 438 10 423 37 423 52 c 0
 423 60 430 72 434 77 c 1
 551 153 572 266 572 357 c 0
 572 532 480 642 361 642 c 0
 208 642 140 468 140 351 c 0
 140 192 207 108 278 72 c 1
 286 62 309 30 309 19 c 0
 309 10 298 4 285 0 c 1
 199 0 231 2 105 0 c 1
 93 6 39 56 33 66 c 1
 36 74 47 77 52 77 c 1
 80 69 100 56 144 53 c 0
 179 51 221 58 221 58 c 1
 123 100 50 228 50 361 c 0
 50 540 187 683 352 683 c 0
EndSplineSet
Validated: 33
EndChar
StartChar: uni03D8
Encoding: 1216 984 598
Width: 1024
VWidth: 1048
Flags: H
LayerCount: 2
Back
SplineSet
381.952148438 683.0078125 m 0
 562.17578125 683.0078125 715.776367188 539.6484375 715.776367188 335.872070312 c 0
 715.776367188 161.693359375 588.690429688 18.015625 430.080078125 -6.5361328125 c 1
 430.080078125 -6.5361328125 430.080078125 -110.591796875 430.080078125 -110.591796875 c 2
 430.080078125 -141.311523438 430.080078125 -169.984375 435.200195312 -186.368164062 c 0
 438.272460938 -197.631835938 493.568359375 -202.751953125 505.856445312 -202.751953125 c 1
 509.952148438 -207.872070312 510.975585938 -227.328125 505.856445312 -232.448242188 c 1
 463.872070312 -230.400390625 425.984375 -227.328125 386.047851562 -227.328125 c 0
 346.112304688 -227.328125 307.200195312 -230.400390625 265.215820312 -232.448242188 c 1
 260.095703125 -227.328125 261.120117188 -207.872070312 265.215820312 -202.751953125 c 1
 277.50390625 -202.751953125 332.799804688 -197.631835938 335.872070312 -186.368164062 c 0
 340.9921875 -169.984375 340.9921875 -141.311523438 340.9921875 -110.591796875 c 2
 340.9921875 -110.591796875 340.9921875 -7.7412109375 340.9921875 -7.7412109375 c 1
 179.34375 12.1298828125 50.17578125 148.69140625 50.17578125 335.872070312 c 0
 50.17578125 527.360351562 201.727539062 683.0078125 381.952148438 683.0078125 c 0
366.591796875 648.192382812 m 0
 212.9921875 648.192382812 151.551757812 495.616210938 151.551757812 358.400390625 c 0
 151.551757812 199.6796875 239.616210938 24.576171875 398.3359375 24.576171875 c 0
 551.935546875 24.576171875 614.400390625 178.17578125 614.400390625 316.416015625 c 0
 614.400390625 475.135742188 525.311523438 648.192382812 366.591796875 648.192382812 c 0
EndSplineSet
Fore
Validated: 1
EndChar
StartChar: afii10058
Encoding: 1278 1033 599
Width: 1024
VWidth: 1048
Flags: H
LayerCount: 2
Back
SplineSet
307.200195312 648.192382812 m 1
 294.912109375 648.192382812 239.616210938 643.072265625 236.543945312 631.807617188 c 0
 231.423828125 615.423828125 231.423828125 586.751953125 231.423828125 556.032226562 c 1026
EndSplineSet
Fore
Validated: 1
EndChar
StartChar: anusvara
Encoding: 32 3458 97
Width: 372
GlyphClass: 2
Flags: W
HStem: 26 45<111.396 240.787> 282 29<121.704 229.922>
VStem: 32 38<115.324 236.384> 284 39<118.404 236.828>
LayerCount: 2
Back
Fore
SplineSet
93 242 m 0
 77 223 70 201 70 176 c 0
 70 142 83 114 110 94 c 0
 130 78 151 71 176 71 c 0
 210 71 238 85 260 112 c 0
 276 131 284 152 284 177 c 0
 284 210 271 237 244 258 c 0
 225 274 202 282 177 282 c 0
 142 282 114 269 93 242 c 0
67 262 m 0
 96 295 132 311 178 311 c 0
 214 311 245 301 272 278 c 0
 305 249 323 212 323 168 c 0
 323 133 312 102 289 75 c 0
 261 42 224 26 179 26 c 0
 143 26 111 37 83 60 c 0
 49 88 32 125 32 170 c 0
 32 205 44 236 67 262 c 0
EndSplineSet
Validated: 1
EndChar
StartChar: visarga
Encoding: 33 3459 98
Width: 253
GlyphClass: 2
Flags: W
HStem: 38 27<82.4362 156.685> 175 31<78.6799 155.597> 229 27<82.466 156.888> 367 29<79.7848 154.609>
VStem: 33 28<85.363 155.48 276.163 347.271> 175 29<84.0769 157.008 275.077 347.716>
LayerCount: 2
Back
Fore
SplineSet
61 121 m 0
 61 103 69 89 83 77 c 0
 93 69 105 65 119 65 c 0
 137 65 152 71 163 85 c 0
 171 95 175 107 175 120 c 0
 175 138 168 152 154 163 c 0
 143 171 131 175 118 175 c 0
 103 175 89 170 78 159 c 0
 67 148 61 136 61 121 c 0
61 312 m 0
 61 294 69 280 83 268 c 0
 93 260 105 256 119 256 c 0
 137 256 152 262 163 276 c 0
 171 286 175 298 175 311 c 0
 175 329 168 343 154 354 c 0
 143 362 131 367 118 367 c 0
 103 367 89 362 78 351 c 0
 67 340 61 327 61 312 c 0
54 369 m 0
 71 387 93 396 118 396 c 0
 140 396 159 389 175 375 c 0
 194 359 204 338 204 313 c 0
 204 292 196 273 181 257 c 0
 164 239 144 229 119 229 c 0
 97 229 77 237 61 251 c 0
 42 268 33 288 33 313 c 0
 33 334 40 353 54 369 c 0
54 177 m 0
 72 196 94 206 119 206 c 0
 141 206 159 198 175 184 c 0
 194 167 204 147 204 122 c 0
 204 101 196 82 181 66 c 0
 164 48 143 38 118 38 c 0
 97 38 77 45 61 59 c 0
 42 76 33 97 33 122 c 0
 33 143 40 161 54 177 c 0
EndSplineSet
Validated: 1
EndChar
StartChar: si_A
Encoding: 34 3461 99
Width: 586
GlyphClass: 2
Flags: W
HStem: -5 28<218.401 368 397 425.494> 205 29<397 457.969> 294 22<188.364 324> 402 41<202.909 295.771>
VStem: 34 82<90.0703 241.254> 324 31<316 367.058> 368 29<-220 0 30 211 234.923 389.291> 474 65<245.839 346.278>
LayerCount: 2
Back
Fore
SplineSet
434 411 m 1
 409 398 397 369 397 325 c 2
 397 325 397 239 397 239 c 1
 405 236 413 234 421 234 c 0
 436 234 448 239 458 248 c 0
 469 258 474 272 474 288 c 0
 474 311 462 343 437 383 c 0
 432 392 431 401 434 411 c 1
324 316 m 1
 323 356 305 383 274 395 c 0
 262 400 251 402 241 402 c 0
 231 402 223 400 216 395 c 0
 208 390 199 379 189 362 c 0
 181 349 171 342 156 340 c 0
 153 340 151 339 148 339 c 0
 138 339 130 342 123 349 c 0
 115 357 111 368 111 380 c 0
 111 389 113 396 118 404 c 0
 135 429 168 442 219 443 c 0
 220 443 221 443 222 443 c 0
 261 443 292 431 317 406 c 0
 343 378 356 340 355 294 c 1
 355 294 242 294 242 294 c 2
 205 294 175 282 151 257 c 0
 127 232 116 203 116 168 c 0
 116 89 162 42 256 27 c 0
 270 25 285 23 301 23 c 0
 322 23 344 26 368 29 c 1
 368 29 368 321 368 321 c 2
 368 359 377 389 395 411 c 0
 411 429 430 440 450 445 c 1
 450 445 473 434 473 434 c 1
 461 430 456 423 456 413 c 0
 456 410 457 405 459 401 c 0
 461 397 476 383 503 360 c 0
 523 342 535 323 538 303 c 0
 539 298 539 294 539 289 c 0
 539 266 531 247 514 232 c 0
 494 214 468 205 438 205 c 0
 424 205 411 207 397 211 c 1
 397 211 397 30 397 30 c 1
 422 34 448 41 474 51 c 0
 493 59 514 70 536 85 c 1
 536 85 536 52 536 52 c 1
 522 44 504 36 483 27 c 0
 462 18 433 10 397 2 c 1
 397 2 397 -220 397 -220 c 1
 397 -220 368 -220 368 -220 c 1
 368 -220 368 0 368 0 c 1
 340 -3 313 -5 289 -5 c 0
 281 -5 273 -4 265 -4 c 0
 115 4 38 57 34 155 c 0
 34 158 34 162 34 165 c 0
 34 217 53 258 93 286 c 0
 122 306 161 316 211 316 c 2
 211 316 324 316 324 316 c 1
EndSplineSet
Validated: 33
EndChar
StartChar: si_Aa
Encoding: 35 3462 100
Width: 870
GlyphClass: 2
Flags: W
HStem: -5 28<218.401 368 397 425.494> -4 41<615.197 711.402> 205 29<397 457.969> 294 22<188.364 324> 370 38<628.925 715.965> 402 41<202.909 295.771>
VStem: 34 82<90.0703 241.254> 324 31<316 367.058> 368 29<-220 0 30 211 234.923 389.291> 474 65<245.839 346.278> 565 27<69.3647 131 259 320.313> 752 67<80.7313 330.603>
LayerCount: 2
Back
Fore
SplineSet
595 259 m 1x7bf0
 595 259 566 259 566 259 c 1
 566 263 566 268 566 272 c 0
 566 308 576 339 597 364 c 0
 620 392 651 407 689 408 c 0
 690 408 690 408 691 408 c 0
 734 408 767 389 790 351 c 0
 810 317 819 271 819 212 c 0
 819 208 819 205 819 201 c 0
 816 64 769 -4 680 -4 c 0
 646 -4 618 6 597 26 c 0
 576 46 565 74 565 109 c 0
 565 117 565 123 566 131 c 1
 566 131 593 131 593 131 c 1
 592 126 592 121 592 116 c 0
 592 94 599 75 612 60 c 0
 625 45 643 38 664 37 c 0
 665 37 667 37 668 37 c 0
 721 37 749 92 752 201 c 0
 752 206 752 210 752 215 c 0
 752 257 746 291 735 319 c 0
 722 352 704 370 680 370 c 0
 680 370 679 370 679 370 c 0
 652 369 630 357 614 335 c 0
 602 319 596 298 594 272 c 0
 594 268 594 263 595 259 c 1x7bf0
EndSplineSet
Refer: 99 3461 S 1 0 0 1 0 0 2
Validated: 1
EndChar
StartChar: si_I
Encoding: 38 3465 103
Width: 607
GlyphClass: 2
Flags: W
HStem: -164 23<260.963 357.246> -13 23<244 324.859> 55 28<154.981 293.141> 124 29<271.488 340.565> 253 29<270.958 342.484> 366 77<172.768 405.929>
VStem: 34 41<146.139 280.648> 177 59<-128.563 -42.8125> 221 35<165.688 239.275> 358 40<166.066 240.517> 384 66<-125.474 -41.4625> 518 39<108.239 262.666>
LayerCount: 2
Back
Fore
SplineSet
256 203 m 0xfed0
 256 188 261 175 272 166 c 0
 283 157 294 153 307 153 c 0
 322 153 334 158 344 168 c 0
 354 178 358 190 358 203 c 0
 358 218 354 230 343 239 c 0
 332 248 320 253 307 253 c 0
 292 253 280 248 270 238 c 0
 260 228 256 216 256 203 c 0xfed0
341 134 m 1
 330 127 318 124 304 124 c 0
 283 124 264 131 247 146 c 0
 230 161 221 179 221 200 c 0
 221 225 232 246 252 262 c 0
 270 276 289 282 310 282 c 0
 314 282 317 282 321 282 c 0
 344 280 363 270 377 252 c 0
 391 234 398 213 398 190 c 0xfed0
 398 161 388 135 365 111 c 0
 342 87 314 71 281 62 c 0
 263 57 243 55 223 55 c 0
 170 55 126 70 90 100 c 0
 54 130 35 169 34 215 c 0
 34 218 34 220 34 223 c 0
 34 292 59 347 108 387 c 0
 153 424 212 443 286 443 c 0
 292 443 299 442 305 442 c 0
 386 439 447 417 490 377 c 0
 534 335 557 275 557 196 c 0
 557 145 541 101 509 63 c 0
 477 25 438 2 393 -6 c 1
 431 -13 450 -37 450 -77 c 0
 450 -105 434 -126 404 -142 c 0
 379 -155 351 -163 318 -164 c 0
 313 -164 309 -164 305 -164 c 0
 248 -164 208 -148 186 -116 c 0
 180 -108 177 -97 177 -85 c 0
 177 -55 190 -40 216 -40 c 0
 233 -40 242 -49 242 -67 c 0
 242 -70 241 -73 239 -79 c 0
 237 -85 236 -90 236 -94 c 0
 236 -108 243 -120 258 -129 c 0
 271 -137 288 -141 309 -141 c 0
 312 -141 316 -140 319 -140 c 0
 359 -137 381 -120 384 -88 c 0
 384 -86 384 -85 384 -83 c 0xff30
 384 -40 338 -16 244 -13 c 1
 244 -13 244 15 244 15 c 1
 269 12 292 10 313 10 c 0
 377 10 429 26 467 59 c 0
 501 88 518 130 518 183 c 0
 518 235 499 278 460 311 c 0
 421 344 370 363 309 366 c 0
 303 366 296 366 290 366 c 0
 234 366 188 355 151 333 c 0
 106 308 81 270 76 221 c 0
 76 217 75 213 75 209 c 0
 75 172 92 140 127 113 c 0
 151 94 184 84 227 83 c 0
 228 83 229 83 230 83 c 0
 275 83 312 100 341 134 c 1
EndSplineSet
Validated: 1
EndChar
StartChar: si_Ii
Encoding: 39 3466 104
Width: 540
GlyphClass: 2
Flags: W
HStem: 0 75<158.077 343.096> 413 27<428.977 487.208> 424 24<253.477 336.904> 485 28<159.352 218.866> 517 28<427.084 487.631> 590 27<158.594 217.972>
VStem: 32 36<170.037 310.84> 120 28<524.312 579.557> 229 26<523.285 578.984> 390 28<450.45 507.34> 440 54<173.321 328.06> 498 26<451.236 505.786>
LayerCount: 2
Back
Fore
SplineSet
418 479 m 0xdff0
 418 468 422 460 430 452 c 0
 438 444 447 440 458 440 c 0
 469 440 478 444 486 452 c 0
 494 460 498 469 498 479 c 0
 498 490 493 499 485 506 c 0
 477 513 468 517 458 517 c 0
 447 517 438 513 430 506 c 0
 422 499 418 490 418 479 c 0xdff0
148 553 m 0
 148 542 153 533 161 525 c 0
 169 517 178 513 189 513 c 0
 200 513 210 516 218 524 c 0
 226 532 229 541 229 552 c 0
 229 563 225 572 217 579 c 0
 209 586 199 590 188 590 c 0
 178 590 169 586 161 579 c 0
 153 572 148 563 148 553 c 0
456 545 m 0
 474 545 490 538 504 525 c 0
 518 512 524 496 524 478 c 0
 524 461 518 446 506 433 c 0
 494 420 478 413 459 413 c 0
 441 413 425 419 411 432 c 0
 397 445 390 461 390 479 c 0
 390 496 396 512 409 525 c 0
 422 538 438 545 456 545 c 0
122 364 m 0
 86 331 68 290 68 243 c 0
 68 199 85 160 118 127 c 0
 153 92 197 75 250 75 c 0
 309 75 357 96 394 139 c 0
 425 175 440 216 440 260 c 0
 440 306 423 346 389 379 c 0
 358 409 318 424 272 424 c 0xbff0
 215 424 166 404 122 364 c 0
174 432 m 0
 191 441 214 454 241 470 c 0
 255 478 280 498 315 529 c 0
 331 545 348 567 366 592 c 0
 380 611 391 625 401 633 c 0
 406 636 412 638 419 638 c 0
 435 638 443 633 443 621 c 0
 443 601 419 569 369 527 c 0
 336 499 297 472 253 446 c 1
 261 447 268 448 275 448 c 0
 284 448 292 447 300 445 c 0
 357 440 403 416 440 375 c 0
 476 334 494 286 494 230 c 0
 494 159 463 98 402 48 c 0
 363 16 314 0 254 0 c 0
 190 0 137 20 95 61 c 0
 53 102 32 155 32 218 c 0
 32 274 47 320 78 355 c 0
 103 384 135 410 174 432 c 0
185 617 m 0
 203 617 220 611 234 598 c 0
 248 585 255 569 255 551 c 0
 255 534 249 518 236 505 c 0
 223 492 207 485 188 485 c 0
 170 485 154 491 140 504 c 0
 126 517 120 533 120 553 c 0
 120 569 126 585 139 598 c 0
 152 611 167 617 185 617 c 0
EndSplineSet
Validated: 1
EndChar
StartChar: si_U
Encoding: 40 3467 105
Width: 666
GlyphClass: 2
Flags: W
HStem: -165 34<260.281 440.099> 278 25<221.625 519> 399 43<365.038 471.648>
VStem: 33 78<9.63879 190.914> 588 29<2.52148 71>
LayerCount: 2
Back
Fore
SplineSet
289 278 m 6
 238 278 196 260 161 226 c 4
 128 194 111 156 111 113 c 4
 111 110 112 108 112 105 c 4
 115 33 141 -26 190 -71 c 4
 234 -111 287 -131 348 -131 c 4
 355 -131 363 -131 371 -130 c 4
 432 -125 482 -105 524 -67 c 4
 566 -29 587 17 588 71 c 5
 588 71 617 71 617 71 c 5
 618 6 593 -49 541 -93 c 4
 492 -135 430 -159 358 -164 c 4
 349 -165 341 -165 333 -165 c 4
 260 -165 194 -143 137 -100 c 4
 70 -49 36 15 33 95 c 4
 33 98 33 100 33 103 c 4
 33 157 53 203 93 242 c 4
 135 283 185 303 243 303 c 6
 243 303 519 303 519 303 c 5
 516 338 500 364 473 381 c 4
 454 393 436 399 418 399 c 4
 402 399 387 395 373 385 c 4
 368 382 361 374 355 363 c 4
 349 352 339 344 326 339 c 4
 322 338 317 337 312 337 c 4
 302 337 293 341 285 348 c 4
 277 355 273 364 273 375 c 4
 273 379 274 383 275 387 c 4
 287 422 322 441 381 442 c 4
 383 442 385 442 387 442 c 4
 434 442 474 427 505 396 c 4
 536 365 552 328 552 283 c 4
 552 281 552 280 552 278 c 5
 552 278 289 278 289 278 c 6
EndSplineSet
Validated: 33
EndChar
StartChar: si_Uu
Encoding: 41 3468 106
Width: 1017
GlyphClass: 2
Flags: W
HStem: -165 34<260.281 440.099> -2 29<760.286 843.138> 217 26<657.977 733.719> 278 25<221.625 519> 399 43<365.038 471.648> 418 24<779.812 850.13>
VStem: 33 78<9.63879 190.914> 588 29<2.52148 71> 594 30<276.374 405.322> 697 28<66.233 161> 729 29<342.442 399.082> 751 44<255.78 341.01> 891 72<105.75 352.673>
LayerCount: 2
Back
Fore
SplineSet
668 438 m 1xf6d8
 639 420 624 384 624 330 c 0
 624 306 631 285 645 268 c 0
 659 251 678 243 701 243 c 0
 715 243 728 248 737 259 c 0
 746 270 751 282 751 297 c 0xf6d8
 751 315 744 331 730 345 c 0
 730 349 729 353 729 357 c 0
 729 383 739 405 759 423 c 0
 773 436 799 442 837 442 c 0
 878 442 910 419 933 371 c 0
 953 331 963 284 963 231 c 0
 963 229 963 227 963 225 c 0
 962 165 949 114 924 72 c 0
 895 23 856 -2 805 -2 c 0
 773 -2 747 10 727 34 c 0
 707 58 697 88 697 123 c 0
 697 135 698 148 701 161 c 1
 701 161 728 161 728 161 c 1
 726 150 725 139 725 128 c 0
 725 98 732 73 747 54 c 0
 761 36 780 27 804 27 c 0
 805 27 806 27 807 27 c 0
 863 29 891 95 891 225 c 0
 891 231 891 238 891 244 c 0
 889 359 865 417 821 418 c 0
 820 418 819 418 818 418 c 0
 802 418 788 413 777 404 c 0
 764 393 758 378 758 357 c 0
 758 355 758 353 758 351 c 0xf668
 783 338 795 320 795 295 c 0
 795 287 794 280 791 272 c 0
 786 254 773 240 755 230 c 0
 738 221 720 217 700 217 c 0
 699 217 696 217 695 217 c 0
 665 218 641 228 622 250 c 0
 603 272 594 298 594 329 c 0
 594 379 607 415 632 438 c 1
 632 438 668 438 668 438 c 1xf6d8
EndSplineSet
Refer: 105 3467 N 1 0 0 1 0 0 2
Validated: 1
EndChar
StartChar: si_vocalicR
Encoding: 42 3469 107
Width: 915
GlyphClass: 2
Flags: W
HStem: -1 31<708.105 808.151> -1 75<121.573 270.582 371.56 535.752> 17 27<773.094 823.839> 199 28<729.673 820> 290 28<143.803 266.541 372.017 523.076> 331 93<78.0699 149.989> 367 35<705.034 784.81> 391 52<158.319 246.842> 401 42<397.925 518.849>
VStem: 32 40<122.309 234.264> 306 31<108.882 186> 534 38<313.313 384.315> 582 40<121.688 245.398> 648 24<248 318.39> 648 32<58.139 162.091> 820 63<120.819 199 227 324.994> 821 46<41.6643 198.334>
LayerCount: 2
Back
Fore
SplineSet
371 316 m 1x18f8
 391 321 414 325 443 325 c 0
 475 325 500 321 518 313 c 1
 528 323 534 334 534 347 c 0
 534 360 529 372 518 382 c 0
 507 392 494 398 479 400 c 0
 473 401 467 401 461 401 c 0
 405 401 375 373 371 316 c 1x18f8
298 289 m 1
 275 290 255 290 238 290 c 0
 221 290 207 290 196 289 c 0
 162 286 134 275 111 257 c 0
 85 237 72 211 72 178 c 0
 72 149 84 124 110 104 c 0
 136 84 165 74 197 74 c 0
 225 74 249 79 269 91 c 0
 294 105 306 124 306 148 c 2
 306 148 306 186 306 186 c 1
 306 186 337 186 337 186 c 1
 337 186 337 148 337 148 c 2
 337 122 351 103 379 90 c 0
 402 79 429 74 461 74 c 0
 494 74 523 84 547 105 c 0
 570 126 582 152 582 182 c 0
 582 214 571 240 549 261 c 0
 528 281 502 293 472 296 c 0
 461 297 450 297 439 297 c 0
 407 297 373 294 338 287 c 1
 338 291 338 294 338 298 c 0
 338 334 347 365 364 390 c 0
 386 422 418 439 461 442 c 0
 465 442 468 443 472 443 c 0x58f8
 524 443 557 420 570 374 c 0
 571 369 572 363 572 358 c 0
 572 345 569 334 562 323 c 0
 557 314 550 307 542 304 c 1
 590 281 617 240 622 182 c 0
 623 176 622 170 622 164 c 0
 622 123 608 87 580 55 c 0
 548 18 506 0 455 0 c 0
 389 0 344 28 319 84 c 1
 298 27 252 -1 182 -1 c 0
 138 -1 102 15 74 46 c 0
 46 77 32 115 32 157 c 0
 32 166 33 174 34 183 c 0
 44 238 75 278 129 301 c 0
 156 312 189 318 230 318 c 0
 242 318 254 317 267 316 c 1
 264 366 240 391 195 391 c 0
 194 391 195 391 194 391 c 0x5978
 176 391 163 381 155 362 c 0
 146 341 130 331 109 331 c 0
 108 331 106 331 105 331 c 0
 81 332 70 346 70 371 c 0
 70 392 79 410 100 424 c 0x1c78
 118 437 140 443 167 443 c 0x1978
 173 443 179 443 185 442 c 0
 260 434 298 388 298 304 c 0
 298 299 298 294 298 289 c 1
EndSplineSet
Refer: 194 3544 N 1 0 0 1 614 0 2
Validated: 1
EndChar
StartChar: si_vocalicU
Encoding: 44 3471 109
Width: 824
GlyphClass: 2
Flags: W
HStem: 0 73<261.171 556.182> 2 27<113.236 157.413 653.201 698.984> 80 30<111.106 154.695 652.251 698.862> 289 24<249.088 349.686 449.534 564.375> 400 43<253.601 336.007> 410 32<480.842 586.048> 463 28<138.929 194.082 612.297 673.732>
VStem: 32 31<131.919 355.553> 139 39<134 236.567> 162 91<339.807 398.224> 195 32<436.344 462.697> 350 31<312.317 381.287> 418 31<311 380.096> 583 27<416.256 461.715> 605 31<308.782 390.326> 623 27<39.2448 61.772> 630 38<128.422 242.984> 746 33<117.979 361.788>
LayerCount: 2
Back
Fore
SplineSet
281 441 m 0x7b3940
 348 433 381 398 381 332 c 0
 381 318 379 303 375 287 c 1
 318 287 284 286 276 285 c 0
 251 281 229 269 209 250 c 0
 189 230 178 208 178 182 c 0
 178 145 204 117 256 97 c 0
 299 81 351 73 411 73 c 0
 557 73 630 109 630 180 c 0
 630 183 630 186 630 189 c 0
 625 244 592 276 531 286 c 0
 515 288 497 289 474 289 c 0
 459 289 442 289 424 288 c 1
 420 302 418 316 418 330 c 0
 418 363 429 391 451 411 c 0
 473 431 504 441 543 442 c 0
 562 442 577 439 587 432 c 1
 584 440 583 447 583 454 c 0xb7bcc0
 583 479 599 491 631 491 c 0
 633 491 636 490 639 490 c 0
 685 487 722 457 749 399 c 0
 769 353 779 303 779 249 c 0
 779 189 770 134 752 85 c 0
 732 32 707 5 678 2 c 0
 676 2 675 2 673 2 c 0
 658 2 646 7 636 18 c 0x771a40
 627 28 623 39 623 52 c 0
 623 55 623 58 624 62 c 1
 578 20 507 0 411 0 c 0xb31940
 310 0 235 20 188 62 c 1
 189 59 189 56 189 53 c 0
 189 40 184 28 175 18 c 0
 165 7 152 2 138 2 c 0
 136 2 135 2 133 2 c 0
 104 5 79 32 59 84 c 0
 41 132 32 187 32 246 c 0
 32 259 33 272 34 284 c 0
 39 337 52 382 75 421 c 0
 102 465 133 488 171 490 c 0
 174 490 176 491 179 491 c 0
 211 491 227 479 227 455 c 0
 227 450 226 443 224 436 c 1
 235 440 248 443 262 443 c 0
 268 443 274 442 281 441 c 0x7b3940
184 463 m 0
 182 463 182 463 180 463 c 0
 151 463 124 445 101 408 c 0
 79 372 68 330 65 284 c 0
 64 269 63 255 63 242 c 0
 63 189 74 135 94 82 c 1
 104 100 117 110 133 110 c 0
 140 110 147 108 155 105 c 1
 145 121 140 144 139 172 c 0
 139 174 139 175 139 177 c 0x3bb840
 139 210 151 239 176 264 c 0
 200 288 230 303 265 308 c 0
 283 311 310 312 348 312 c 1
 349 318 350 325 350 332 c 0
 350 374 332 396 295 399 c 0
 292 399 290 400 288 400 c 0
 270 400 258 393 253 378 c 0
 243 350 230 334 214 331 c 0
 209 330 205 330 201 330 c 0
 175 330 162 343 162 368 c 0x3b5840
 162 384 170 400 186 414 c 1
 191 423 195 433 195 445 c 0
 195 456 191 462 184 463 c 0
721 86 m 1
 738 143 746 199 746 253 c 0
 746 264 746 274 745 285 c 0
 742 331 731 373 710 408 c 0
 688 445 662 463 633 463 c 0
 632 463 631 463 630 463 c 0
 617 462 610 454 610 438 c 0x331cc0
 610 428 614 416 620 404 c 1
 631 393 636 375 636 348 c 0x331a40
 636 323 626 305 607 291 c 1
 647 263 668 222 668 170 c 0
 668 167 668 163 668 160 c 0x3318c0
 667 137 661 117 652 103 c 1
 660 108 668 111 677 111 c 0
 697 111 711 102 721 86 c 1
677 80 m 0
 674 80 671 79 668 78 c 0x7318c0
 656 73 650 66 650 56 c 0
 650 53 650 50 651 46 c 0
 656 34 665 29 677 29 c 0x731940
 680 29 683 30 686 31 c 0
 697 34 702 42 702 54 c 0
 702 61 699 67 694 72 c 0
 689 77 683 80 677 80 c 0
583 302 m 1x371c40
 598 315 605 331 605 350 c 0x371a40
 605 365 600 378 590 390 c 0
 580 402 566 409 548 410 c 0
 543 410 538 410 534 410 c 0
 511 410 493 404 477 392 c 0
 458 378 449 359 449 335 c 0
 449 327 450 319 452 311 c 1
 470 312 484 313 495 313 c 0
 500 313 505 312 509 312 c 0
 526 311 551 308 583 302 c 1x371c40
110 63 m 0
 107 55 108 48 113 40 c 0
 118 32 125 29 134 29 c 0x731840
 146 29 155 34 159 46 c 0
 162 54 160 62 155 69 c 0
 150 76 143 80 134 80 c 0
 122 80 115 74 110 63 c 0
EndSplineSet
Validated: 1
EndChar
StartChar: si_vocalicUu
Encoding: 45 3472 110
Width: 1203
GlyphClass: 2
Flags: W
HStem: -2 29<968.286 1051.14> 0 73<261.171 556.182> 2 27<113.236 157.413 653.201 698.984> 80 30<111.106 154.695 652.251 698.862> 217 26<865.977 941.907> 289 24<249.088 349.686 449.534 564.375> 400 43<253.601 336.007> 410 32<480.842 586.048> 418 24<988.561 1057.16> 463 28<138.929 194.082 612.297 673.732>
VStem: 32 31<131.919 355.553> 139 39<134 236.567> 162 91<339.807 398.224> 195 32<436.344 462.697> 350 31<312.317 381.287> 418 31<311 380.096> 583 27<416.256 461.715> 605 31<308.782 390.326> 623 27<39.2448 61.772> 630 38<128.422 242.984> 746 33<117.979 361.788> 802 29<278.853 402.955> 905 28<66.233 161> 937 28<343.147 397.963> 958 44<255.435 341.706> 1099 71<105.75 355.674>
LayerCount: 2
Back
Fore
SplineSet
1086 225 m 1024,423,-1
EndSplineSet
Refer: 203 3551 S 1 0 0 1 768 0 2
Refer: 109 3471 N 1 0 0 1 0 0 2
Validated: 1
EndChar
